<svg width="20" height="20" viewBox="0 0 20 20" fill="none" xmlns="http://www.w3.org/2000/svg">
<path d="M18.9584 7.99046L17.6784 7.75046C17.5184 7.27046 17.3584 6.79046 17.0384 6.31046L17.8384 5.27046C18.0784 4.95046 17.9984 4.55046 17.7584 4.23046L15.9184 2.39046C15.6784 2.15046 15.1984 2.07046 14.8784 2.31046L13.8384 3.03046C13.3584 2.79046 12.7984 2.55046 12.2384 2.39046L11.9984 1.11046C11.9184 0.710459 11.5984 0.470459 11.1984 0.470459H8.55844C8.15844 0.470459 7.83844 0.790459 7.75844 1.11046L7.59844 2.39046C7.11844 2.47046 6.55844 2.71046 6.07844 3.03046L5.11844 2.31046C4.79844 2.07046 4.39844 2.07046 4.07844 2.39046L2.23844 4.23046C1.99844 4.47046 1.91844 4.95046 2.15844 5.27046L2.87844 6.23046C2.55844 6.71046 2.39844 7.27046 2.23844 7.83046L1.03844 7.99046C0.638437 8.07046 0.398438 8.39046 0.398438 8.79046V11.4305C0.398438 11.8305 0.718437 12.1505 1.03844 12.2305L2.23844 12.3905C2.39844 12.9505 2.63844 13.4305 2.87844 13.9905L2.23844 14.9505C1.99844 15.2705 1.99844 15.6705 2.31844 15.9905L4.15844 17.8305C4.39844 18.0705 4.87844 18.1505 5.19844 17.9105L6.15844 17.1905C6.63844 17.4305 7.11844 17.6705 7.59844 17.8305L7.75844 19.0305C7.83844 19.4305 8.15844 19.6705 8.55844 19.6705H11.1984C11.5984 19.6705 11.9184 19.3505 11.9984 19.0305L12.1584 17.8305C12.7184 17.6705 13.1984 17.4305 13.6784 17.1905L14.7184 17.9105C15.0384 18.1505 15.5184 18.0705 15.7584 17.8305L17.5984 15.9905C17.8384 15.7505 17.9184 15.2705 17.6784 14.9505L16.9584 13.9105C17.1984 13.4305 17.4384 12.9505 17.5984 12.4705L18.8784 12.2305C19.2784 12.1505 19.5184 11.8305 19.5184 11.4305V8.79046C19.5984 8.39046 19.2784 8.07046 18.9584 7.99046ZM14.6384 13.8305C13.9184 12.9505 13.0384 12.3105 11.9184 11.9105C11.7584 11.8305 11.5984 11.9105 11.5184 11.9105C11.0384 12.0705 10.5584 12.2305 10.0784 12.2305C9.59844 12.2305 9.03844 12.1505 8.63844 11.9105C8.47844 11.8305 8.31844 11.8305 8.23844 11.9105C7.11844 12.3105 6.15844 12.9505 5.51844 13.8305C4.71844 12.7905 4.23844 11.5105 4.23844 10.1505C4.23844 6.87046 6.87844 4.15046 10.2384 4.15046C13.5184 4.15046 16.1584 6.79046 16.1584 10.1505C15.9184 11.5105 15.4384 12.7905 14.6384 13.8305Z" fill="currentColor"/>
<path d="M9.99766 6.15063C8.63766 6.15063 7.59766 7.27064 7.59766 8.55064C7.59766 9.91063 8.63766 10.9506 9.99766 10.9506C11.2777 10.9506 12.3977 9.91063 12.3977 8.55064C12.3977 7.19064 11.3577 6.15063 9.99766 6.15063Z" fill="currentColor"/>
</svg>
