<svg width="20" height="20" viewBox="0 0 20 20" fill="none" xmlns="http://www.w3.org/2000/svg">
<path d="M17.2 7.69999V6.79999L11.8 1.39999H2.8C1.801 1.39999 1 2.20099 1 3.19999V15.8C1 16.2774 1.18964 16.7352 1.52721 17.0728C1.86477 17.4104 2.32261 17.6 2.8 17.6H8.2V15.917L15.751 8.36599C16.147 7.96999 16.651 7.75399 17.2 7.69999ZM10.9 2.74999L15.85 7.69999H10.9V2.74999ZM18.865 11.471L17.983 12.353L16.147 10.517L17.029 9.63499C17.2 9.45499 17.497 9.45499 17.677 9.63499L18.865 10.823C19.045 11.003 19.045 11.3 18.865 11.471ZM15.517 11.147L17.353 12.983L11.836 18.5H10V16.664L15.517 11.147Z" fill="currentColor"/>
</svg>
