<svg width="20" height="20" viewBox="0 0 20 20" fill="none" xmlns="http://www.w3.org/2000/svg">
<path d="M17.921 3.20474C17.9202 2.63138 17.6928 2.08159 17.2884 1.67515C16.884 1.2687 16.3353 1.03855 15.762 1.03482L10.4485 1.00005C10.1611 0.998106 9.87619 1.05319 9.61022 1.16211C9.34425 1.27104 9.10253 1.43164 8.89905 1.63462L1.63845 8.87566C1.43626 9.07735 1.27579 9.31691 1.16624 9.58065C1.05669 9.8444 1.0002 10.1271 1 10.4127C0.999799 10.6983 1.05589 10.9812 1.16507 11.2451C1.27424 11.5089 1.43437 11.7487 1.63628 11.9507L7.01382 17.3293C7.28609 17.6014 7.62573 17.7963 7.99801 17.894C8.3703 17.9918 8.76186 17.9889 9.13267 17.8857C8.35714 16.72 8.01547 15.3191 8.16727 13.9273C8.31906 12.5355 8.95469 11.2412 9.96326 10.2701C10.9718 9.29906 12.2893 8.71292 13.6859 8.61396C15.0824 8.515 16.4694 8.9095 17.6048 9.72863C17.8172 9.38445 17.9294 8.98782 17.9286 8.58337L17.921 3.20474ZM13.567 6.42866C13.2789 6.42866 13.0025 6.31418 12.7987 6.1104C12.5949 5.90663 12.4805 5.63025 12.4805 5.34207C12.4805 5.05388 12.5949 4.77751 12.7987 4.57373C13.0025 4.36996 13.2789 4.25548 13.567 4.25548C13.8552 4.25548 14.1316 4.36996 14.3354 4.57373C14.5392 4.77751 14.6536 5.05388 14.6536 5.34207C14.6536 5.63025 14.5392 5.90663 14.3354 6.1104C14.1316 6.31418 13.8552 6.42866 13.567 6.42866ZM19 14.5781C19 15.8749 18.4848 17.1186 17.5679 18.0356C16.6509 18.9526 15.4072 19.4677 14.1103 19.4677C12.8135 19.4677 11.5698 18.9526 10.6528 18.0356C9.73584 17.1186 9.22068 15.8749 9.22068 14.5781C9.22068 13.2813 9.73584 12.0376 10.6528 11.1206C11.5698 10.2036 12.8135 9.68843 14.1103 9.68843C15.4072 9.68843 16.6509 10.2036 17.5679 11.1206C18.4848 12.0376 19 13.2813 19 14.5781ZM14.1103 11.8616C13.9663 11.8616 13.8281 11.9189 13.7262 12.0207C13.6243 12.1226 13.567 12.2608 13.567 12.4049V14.5781C13.567 14.7222 13.6243 14.8604 13.7262 14.9623C13.8281 15.0641 13.9663 15.1214 14.1103 15.1214C14.2544 15.1214 14.3926 15.0641 14.4945 14.9623C14.5964 14.8604 14.6536 14.7222 14.6536 14.5781V12.4049C14.6536 12.2608 14.5964 12.1226 14.4945 12.0207C14.3926 11.9189 14.2544 11.8616 14.1103 11.8616ZM14.1103 17.4304C14.2905 17.4304 14.4632 17.3588 14.5906 17.2315C14.7179 17.1041 14.7895 16.9314 14.7895 16.7513C14.7895 16.5712 14.7179 16.3984 14.5906 16.2711C14.4632 16.1437 14.2905 16.0722 14.1103 16.0722C13.9302 16.0722 13.7575 16.1437 13.6301 16.2711C13.5028 16.3984 13.4312 16.5712 13.4312 16.7513C13.4312 16.9314 13.5028 17.1041 13.6301 17.2315C13.7575 17.3588 13.9302 17.4304 14.1103 17.4304Z" fill="currentColor"/>
</svg>
