<svg width="20" height="20" viewBox="0 0 20 20" fill="none" xmlns="http://www.w3.org/2000/svg">
<path d="M16.6667 3.95832C16.6667 3.35054 16.4252 2.76764 15.9954 2.33787C15.5657 1.9081 14.9828 1.66666 14.375 1.66666H3.95832C3.35054 1.66666 2.76764 1.9081 2.33787 2.33787C1.9081 2.76764 1.66666 3.35054 1.66666 3.95832V14.375C1.66666 14.9828 1.9081 15.5657 2.33787 15.9954C2.76764 16.4252 3.35054 16.6667 3.95832 16.6667H9.18499C8.55026 15.6765 8.25673 14.5059 8.34916 13.3333H4.79166C4.6333 13.3333 4.48087 13.2731 4.36516 13.165C4.24945 13.0569 4.17909 12.9089 4.1683 12.7509C4.15751 12.5929 4.20709 12.4367 4.30702 12.3139C4.40695 12.1911 4.54978 12.1107 4.70666 12.0892L4.79166 12.0833H8.59416C8.84697 11.3034 9.27352 10.5911 9.84166 9.99999H4.79166C4.6333 9.99994 4.48087 9.93979 4.36516 9.83168C4.24945 9.72357 4.17909 9.57557 4.1683 9.41759C4.15751 9.2596 4.20709 9.10341 4.30702 8.98057C4.40695 8.85773 4.54978 8.77741 4.70666 8.75582L4.79166 8.74999H11.0417C11.1767 8.74999 11.3025 8.79332 11.4042 8.86666C12.1362 8.51529 12.938 8.33302 13.75 8.33332C14.7838 8.33173 15.7962 8.62736 16.6667 9.18499V3.95832ZM13.5417 5.41666C13.7 5.4167 13.8524 5.47686 13.9681 5.58497C14.0839 5.69307 14.1542 5.84107 14.165 5.99906C14.1758 6.15704 14.1262 6.31323 14.0263 6.43607C13.9264 6.55891 13.7835 6.63924 13.6267 6.66082L13.5417 6.66666H4.79166C4.6333 6.66661 4.48087 6.60645 4.36516 6.49835C4.24945 6.39024 4.17909 6.24224 4.1683 6.08426C4.15751 5.92627 4.20709 5.77008 4.30702 5.64724C4.40695 5.5244 4.54978 5.44407 4.70666 5.42249L4.79166 5.41666H13.5417ZM9.58332 12.1908L9.95582 12.5492C10.1174 12.7047 10.2459 12.8912 10.3337 13.0975C10.4215 13.3038 10.4667 13.5258 10.4667 13.75C10.4667 13.9742 10.4215 14.1962 10.3337 14.4025C10.2459 14.6088 10.1174 14.7953 9.95582 14.9508L9.58332 15.3092C9.74999 15.7875 9.99166 16.2283 10.2942 16.6175L10.7958 16.4692C11.0125 16.4053 11.24 16.3861 11.4643 16.4128C11.6887 16.4395 11.9052 16.5116 12.1009 16.6246C12.2965 16.7376 12.4671 16.8892 12.6023 17.0702C12.7376 17.2512 12.8346 17.4578 12.8875 17.6775L13.0325 18.2733C13.5075 18.3531 13.9925 18.3531 14.4675 18.2733L14.6117 17.6767C14.6646 17.457 14.7618 17.2504 14.8971 17.0694C15.0324 16.8884 15.2031 16.7369 15.3988 16.6239C15.5945 16.511 15.8112 16.439 16.0356 16.4124C16.26 16.3858 16.4874 16.4051 16.7042 16.4692L17.2058 16.6175C17.5075 16.2283 17.7492 15.7875 17.9167 15.3092L17.5442 14.9508C17.3826 14.7953 17.2541 14.6088 17.1663 14.4025C17.0785 14.1962 17.0332 13.9742 17.0332 13.75C17.0332 13.5258 17.0785 13.3038 17.1663 13.0975C17.2541 12.8912 17.3826 12.7047 17.5442 12.5492L17.9167 12.1908C17.7526 11.7189 17.5125 11.2769 17.2058 10.8825L16.7042 11.0308C16.4874 11.0947 16.26 11.1139 16.0357 11.0872C15.8113 11.0604 15.5947 10.9884 15.3991 10.8754C15.2035 10.7623 15.0329 10.6107 14.8976 10.4297C14.7624 10.2487 14.6654 10.0421 14.6125 9.82249L14.4675 9.22666C13.9922 9.14681 13.5069 9.14681 13.0317 9.22666L12.8883 9.82332C12.8353 10.043 12.7382 10.2496 12.6029 10.4306C12.4676 10.6115 12.2969 10.7631 12.1012 10.876C11.9054 10.989 11.6888 11.0609 11.4644 11.0876C11.24 11.1142 11.0125 11.0949 10.7958 11.0308L10.2942 10.8825C9.98748 11.2769 9.74737 11.7189 9.58332 12.1908ZM13.75 15C13.0833 15 12.5417 14.44 12.5417 13.75C12.5417 13.06 13.0833 12.5 13.75 12.5C14.4167 12.5 14.9583 13.06 14.9583 13.75C14.9583 14.44 14.4167 15 13.75 15Z" fill="currentColor"/>
</svg>
