<svg width="16" height="15" viewBox="0 0 16 15" fill="none" xmlns="http://www.w3.org/2000/svg">
<path d="M15.4375 6.93762C15.4366 6.0428 15.0807 5.1849 14.448 4.55216C13.8152 3.91943 12.9573 3.56355 12.0625 3.56262H9.26406C9.05945 3.55067 5.49391 3.29965 2.09852 0.451996C1.93455 0.314291 1.73469 0.226237 1.52242 0.198178C1.31015 0.17012 1.09428 0.203222 0.900167 0.293595C0.706055 0.383969 0.541765 0.527862 0.426596 0.708369C0.311427 0.888877 0.250163 1.0985 0.25 1.31262V12.5626C0.250029 12.7768 0.311196 12.9865 0.426313 13.1671C0.541429 13.3477 0.705711 13.4917 0.899849 13.5822C1.09399 13.6727 1.30991 13.7058 1.52225 13.6778C1.73458 13.6498 1.93451 13.5617 2.09852 13.424C4.75422 11.1965 7.51258 10.558 8.6875 10.3794V12.6097C8.68726 12.7951 8.73284 12.9777 8.82018 13.1412C8.90752 13.3047 9.03392 13.4441 9.18812 13.547L9.96156 14.0624C10.1111 14.1622 10.2823 14.2247 10.4609 14.2447C10.6395 14.2647 10.8203 14.2416 10.9882 14.1774C11.1561 14.1131 11.3061 14.0096 11.4257 13.8755C11.5453 13.7413 11.6311 13.5805 11.6758 13.4064L12.5034 10.2873C13.3153 10.1793 14.0603 9.7801 14.6 9.16397C15.1397 8.54784 15.4373 7.7567 15.4375 6.93762ZM1.375 12.5577V1.31262C4.38508 3.83754 7.46617 4.47668 8.6875 4.63418V9.23825C7.46758 9.39856 4.38719 10.0363 1.375 12.5577ZM10.5859 13.1202V13.1279L9.8125 12.6125V10.3126H11.3313L10.5859 13.1202ZM12.0625 9.18762H9.8125V4.68762H12.0625C12.6592 4.68762 13.2315 4.92467 13.6535 5.34663C14.0754 5.76859 14.3125 6.34088 14.3125 6.93762C14.3125 7.53436 14.0754 8.10665 13.6535 8.52861C13.2315 8.95057 12.6592 9.18762 12.0625 9.18762Z" fill="currentColor"/>
</svg>
