<svg width="14" height="18" viewBox="0 0 14 18" fill="none" xmlns="http://www.w3.org/2000/svg">
<path d="M12.6943 3.26231C12.5026 3.10398 12.2859 2.97898 12.0526 2.88731C11.8109 2.79565 11.5693 2.98731 11.5193 3.23731C11.2359 4.66231 9.9776 5.73731 8.46094 5.73731H5.54427C4.71094 5.73731 3.9276 5.41231 3.33594 4.82065C2.9026 4.38731 2.6026 3.83731 2.48594 3.24565C2.43594 2.99565 2.18594 2.79565 1.94427 2.89565C0.977604 3.28731 0.335938 4.17065 0.335938 5.94565V14.0706C0.335938 16.5706 1.8276 17.404 3.66927 17.404H10.3359C12.1776 17.404 13.6693 16.5706 13.6693 14.0706V5.94565C13.6693 4.58731 13.2943 3.75398 12.6943 3.26231ZM3.66927 9.27898H7.0026C7.34427 9.27898 7.6276 9.56231 7.6276 9.90398C7.6276 10.2456 7.34427 10.529 7.0026 10.529H3.66927C3.3276 10.529 3.04427 10.2456 3.04427 9.90398C3.04427 9.56231 3.3276 9.27898 3.66927 9.27898ZM10.3359 13.8623H3.66927C3.3276 13.8623 3.04427 13.579 3.04427 13.2373C3.04427 12.8956 3.3276 12.6123 3.66927 12.6123H10.3359C10.6776 12.6123 10.9609 12.8956 10.9609 13.2373C10.9609 13.579 10.6776 13.8623 10.3359 13.8623Z" fill="currentColor"/>
<path d="M10.3307 2.6123C10.3307 3.64564 9.48906 4.4873 8.45573 4.4873H5.53906C5.0224 4.4873 4.55573 4.27897 4.21406 3.9373C3.8724 3.59564 3.66406 3.12897 3.66406 2.6123C3.66406 1.57897 4.50573 0.737305 5.53906 0.737305H8.45573C8.9724 0.737305 9.43906 0.945638 9.78073 1.2873C10.1224 1.62897 10.3307 2.09564 10.3307 2.6123Z" fill="currentColor"/>
</svg>
