<svg width="24" height="25" viewBox="0 0 24 25" fill="currentColor" xmlns="http://www.w3.org/2000/svg">
<path d="M9.5675 19.3201C9.3775 19.3201 9.1875 19.2501 9.0375 19.1001L2.9675 13.0301C2.6775 12.7401 2.6775 12.2601 2.9675 11.9701L9.0375 5.90012C9.3275 5.61012 9.8075 5.61012 10.0975 5.90012C10.3875 6.19012 10.3875 6.67012 10.0975 6.96012L4.5575 12.5001L10.0975 18.0401C10.3875 18.3301 10.3875 18.8101 10.0975 19.1001C9.9575 19.2501 9.7575 19.3201 9.5675 19.3201Z" fill="currentColor"/>
<path d="M20.5019 13.25H3.67188C3.26188 13.25 2.92188 12.91 2.92188 12.5C2.92188 12.09 3.26188 11.75 3.67188 11.75H20.5019C20.9119 11.75 21.2519 12.09 21.2519 12.5C21.2519 12.91 20.9119 13.25 20.5019 13.25Z" fill="currentColor"/>
</svg>
