<svg width="31" height="34" viewBox="0 0 31 34" fill="none" xmlns="http://www.w3.org/2000/svg">
<path d="M22.1667 0.333344H8.83333C3 0.333344 0.5 3.66668 0.5 8.66668V25.3333C0.5 30.3333 3 33.6667 8.83333 33.6667H22.1667C28 33.6667 30.5 30.3333 30.5 25.3333V8.66668C30.5 3.66668 28 0.333344 22.1667 0.333344ZM8.83333 17.4167H15.5C16.1833 17.4167 16.75 17.9833 16.75 18.6667C16.75 19.35 16.1833 19.9167 15.5 19.9167H8.83333C8.15 19.9167 7.58333 19.35 7.58333 18.6667C7.58333 17.9833 8.15 17.4167 8.83333 17.4167ZM22.1667 26.5833H8.83333C8.15 26.5833 7.58333 26.0167 7.58333 25.3333C7.58333 24.65 8.15 24.0833 8.83333 24.0833H22.1667C22.85 24.0833 23.4167 24.65 23.4167 25.3333C23.4167 26.0167 22.85 26.5833 22.1667 26.5833ZM26.3333 12.4167H23C20.4667 12.4167 18.4167 10.3667 18.4167 7.83334V4.50001C18.4167 3.81668 18.9833 3.25001 19.6667 3.25001C20.35 3.25001 20.9167 3.81668 20.9167 4.50001V7.83334C20.9167 8.98334 21.85 9.91668 23 9.91668H26.3333C27.0167 9.91668 27.5833 10.4833 27.5833 11.1667C27.5833 11.85 27.0167 12.4167 26.3333 12.4167Z" fill="currentColor"/>
</svg>
