<svg width="20" height="20" viewBox="0 0 20 20" fill="none" xmlns="http://www.w3.org/2000/svg">
<path d="M16.6011 10.6634L10.1901 17.0697C9.31077 17.9487 8.11823 18.4425 6.87484 18.4422C5.63146 18.442 4.4391 17.9479 3.56005 17.0685C2.681 16.1892 2.18728 14.9966 2.1875 13.7532C2.18772 12.5099 2.68186 11.3175 3.56122 10.4384L11.23 2.79079C11.8162 2.20482 12.6113 1.87576 13.4402 1.87598C13.8506 1.87609 14.257 1.95703 14.6361 2.1142C15.0153 2.27136 15.3598 2.50167 15.6499 2.79196C15.94 3.08225 16.1702 3.42685 16.3271 3.80608C16.4841 4.1853 16.5648 4.59173 16.5647 5.00216C16.5646 5.41259 16.4836 5.81898 16.3265 6.19812C16.1693 6.57727 15.939 6.92174 15.6487 7.21188L15.6354 7.22438L8.15106 14.4291C8.06232 14.5144 7.95763 14.5815 7.84298 14.6264C7.72832 14.6713 7.60594 14.6931 7.48283 14.6908C7.35972 14.6884 7.23829 14.6617 7.12547 14.6124C7.01264 14.5631 6.91064 14.492 6.82528 14.4033C6.73992 14.3145 6.67288 14.2099 6.62798 14.0952C6.58308 13.9805 6.5612 13.8582 6.56359 13.7351C6.56599 13.6119 6.59261 13.4905 6.64193 13.3777C6.69126 13.2649 6.76232 13.1629 6.85106 13.0775L14.3284 5.88063C14.5621 5.64546 14.6929 5.32707 14.6918 4.99551C14.6908 4.66395 14.5581 4.34638 14.3229 4.11266C14.2065 3.99693 14.0684 3.90528 13.9165 3.84292C13.7647 3.78056 13.602 3.74873 13.4378 3.74924C13.1063 3.75026 12.7887 3.88296 12.555 4.11813L4.88622 11.7634C4.35879 12.2911 4.06257 13.0066 4.06271 13.7527C4.06279 14.1221 4.13562 14.4878 4.27705 14.8291C4.41848 15.1704 4.62574 15.4804 4.887 15.7416C5.14826 16.0027 5.4584 16.2099 5.79971 16.3512C6.14102 16.4925 6.50682 16.5651 6.87623 16.5651C7.62227 16.5649 8.3377 16.2684 8.86513 15.7408L15.2761 9.33454C15.3633 9.24733 15.4668 9.17816 15.5807 9.13096C15.6947 9.08376 15.8168 9.05947 15.9401 9.05947C16.0635 9.05947 16.1856 9.08376 16.2995 9.13096C16.4135 9.17816 16.517 9.24733 16.6042 9.33454C16.6914 9.42174 16.7606 9.52527 16.8078 9.63921C16.855 9.75315 16.8793 9.87527 16.8793 9.9986C16.8793 10.1219 16.855 10.244 16.8078 10.358C16.7606 10.4719 16.6914 10.5755 16.6042 10.6627L16.6011 10.6634Z" fill="#2E3139"/>
</svg>
