<svg width="60" height="60" viewBox="0 0 60 60" fill="none" xmlns="http://www.w3.org/2000/svg">
<rect width="60" height="60" rx="30" fill="#F6F5F4"/>
<g clip-path="url(#clip0_837_21112)">
<path d="M33.4875 36.5158C34.5562 36.169 34.9453 34.4721 35.8359 33.8205C36.7359 33.169 38.4703 33.319 39.1266 32.419C39.7734 31.5283 39.0984 29.9299 39.4453 28.8565C39.7828 27.8252 41.2781 26.9346 41.2781 25.7908C41.2781 24.6471 39.7828 23.7518 39.4453 22.7205C39.0984 21.6518 39.7734 20.0486 39.1266 19.1627C38.4703 18.2627 36.7359 18.408 35.8359 17.7565C34.95 17.1096 34.5562 15.408 33.4875 15.0611C32.4562 14.7283 31.1484 15.8627 30.0047 15.8627C28.8609 15.8627 27.5484 14.7283 26.5172 15.0611C25.4484 15.408 25.0594 17.1096 24.1687 17.7565C23.2687 18.408 21.5344 18.2627 20.8781 19.158C20.2313 20.0486 20.9062 21.6518 20.5594 22.7205C20.2219 23.7518 18.7266 24.6471 18.7266 25.7908C18.7266 26.9346 20.2219 27.8252 20.5594 28.8565C20.9062 29.9299 20.2313 31.5283 20.8781 32.419C21.5344 33.3143 23.2687 33.169 24.1687 33.8205C25.0547 34.4721 25.4484 36.169 26.5172 36.5158C27.5484 36.8486 28.8562 35.719 30.0047 35.719C31.1437 35.719 32.4562 36.8486 33.4875 36.5158ZM30 32.4799C26.3016 32.4799 23.3109 29.4799 23.3109 25.7908C23.3109 22.0924 26.3062 19.1018 30 19.1018C33.6937 19.1018 36.6844 22.0971 36.6844 25.7908C36.6891 29.4846 33.6937 32.4799 30 32.4799Z" fill="#4C40F7"/>
<path d="M36.1625 34.2748C35.8719 34.4904 35.6187 34.9076 35.3469 35.3482C34.9344 36.0232 34.4656 36.7873 33.6594 37.0498C33.4766 37.1107 33.2797 37.1389 33.0781 37.1389C32.4922 37.1389 31.9156 36.9045 31.3578 36.6748C31.2359 36.6232 31.1094 36.5764 30.9875 36.5295L32.7969 44.9998L35.9047 41.3576L40.3484 42.0654L36.7484 34.0076C36.5141 34.0826 36.3125 34.167 36.1625 34.2748ZM26.9187 37.1389C26.7172 37.1389 26.5203 37.1107 26.3375 37.0498C25.5312 36.7873 25.0578 36.0186 24.6453 35.3436C24.3734 34.9029 24.1203 34.4904 23.8297 34.2748C23.6797 34.167 23.4734 34.0826 23.2484 34.0076L19.6484 42.0654L24.0922 41.3576L27.1953 44.9998L29.0094 36.5295C28.8828 36.5764 28.7609 36.6232 28.6344 36.6748C28.0859 36.9045 27.5047 37.1389 26.9187 37.1389ZM34.8453 24.2154L31.4984 23.7279L29.9984 20.6904L28.4984 23.7279L25.1516 24.2154L27.575 26.5779L27.0031 29.9154L29.9984 28.3357L32.9937 29.9154L32.4219 26.5779L34.8453 24.2154Z" fill="#4C40F7"/>
</g>
<defs>
<clipPath id="clip0_837_21112">
<rect width="30" height="30" fill="white" transform="translate(15 15)"/>
</clipPath>
</defs>
</svg>
