<svg width="167" height="35" viewBox="0 0 167 35" fill="none" xmlns="http://www.w3.org/2000/svg">
<path d="M158.563 28.4926C163.245 28.2845 164.51 23.0548 162.267 20.3636C162.298 20.1555 162.313 19.9475 162.327 19.7394C168.198 18.9487 168.168 9.94569 161.891 10.1122C161.228 10.1261 160.566 10.1261 159.888 10.1539C163.983 8.12855 163.276 0.818024 157.72 0.970615C108.971 2.27459 60.2366 3.57855 11.4873 4.88253C5.46515 5.04899 5.23929 12.734 10.2377 14.3154C8.416 14.3154 6.60933 14.3154 4.78764 14.3016C-1.62596 14.2599 -1.56573 23.7068 4.78764 23.9981C11.6378 24.3171 18.473 24.6084 25.3232 24.8443C23.1553 24.9414 20.9873 25.0385 18.8042 25.1356C12.4508 25.4269 12.4057 35.1234 18.8042 34.8321C65.4003 32.7236 111.982 30.6012 158.578 28.4926H158.563Z" fill="#BAD4B7"/>
</svg>
