<svg width="20" height="17" viewBox="0 0 20 17" fill="none" xmlns="http://www.w3.org/2000/svg">
<path d="M19.4874 9.74784C21.42 7.53145 19.5842 5.18019 16.9267 2.84575C16.772 3.3685 16.4762 3.842 16.0697 4.21763C15.6632 4.59326 15.1606 4.85747 14.6135 4.98312C14.523 4.98225 14.4358 4.95018 14.3675 4.89268C14.2992 4.83517 14.2544 4.75601 14.2411 4.66942C14.2278 4.58282 14.2468 4.49447 14.2948 4.42025C14.3428 4.34603 14.4167 4.2908 14.503 4.26449C14.9577 4.13091 15.3651 3.87798 15.6799 3.53382C15.9948 3.18966 16.2047 2.76777 16.2864 2.3151C15.2567 1.46119 14.0627 0.812481 12.7729 0.40625C11.657 1.35283 10.4342 2.80916 11.4886 4.81356C11.5351 4.89891 11.545 4.99848 11.5163 5.09083C11.4875 5.18319 11.4224 5.26093 11.335 5.30732C11.2476 5.35371 11.1448 5.36503 11.0488 5.33885C10.9528 5.31266 10.8713 5.25106 10.8218 5.16733C9.6602 2.98657 10.7146 1.3949 11.9002 0.181463C9.45313 -0.269299 6.92006 0.125916 4.74375 1.29803C5.6458 1.3449 6.49399 1.72793 7.1102 2.36669C7.14633 2.40049 7.17519 2.44086 7.19512 2.48548C7.21505 2.53011 7.22567 2.5781 7.22635 2.6267C7.22703 2.67531 7.21777 2.72356 7.19909 2.76869C7.18042 2.81382 7.15271 2.85493 7.11754 2.88966C7.08238 2.9244 7.04046 2.95207 6.9942 2.97108C6.94794 2.99009 6.89824 3.00006 6.84798 3.00043C6.79772 3.0008 6.74787 2.99156 6.70132 2.97324C6.65476 2.95491 6.61241 2.92786 6.5767 2.89365C5.05449 1.33025 2.78169 2.0916 1.85905 3.8334C0.630826 5.95987 1.62082 7.12513 3.22332 7.40415C3.32286 7.41792 3.41273 7.4692 3.47331 7.54682C3.53389 7.62443 3.56026 7.72206 3.54667 7.81841C3.53308 7.91476 3.48063 8.002 3.40077 8.06108C3.3209 8.12017 3.22011 8.1463 3.12039 8.13379C3.0518 8.12642 1.44749 7.89794 0.803485 6.67819C0.747088 6.57288 0.699924 6.46317 0.662489 6.35022C-0.68269 7.99375 -0.595044 9.27615 0.88351 10.776C1.08389 10.994 1.34212 11.155 1.63026 11.2414C1.91841 11.3277 2.2255 11.3363 2.5183 11.2661C3.71625 10.9731 5.33676 10.3246 5.66975 9.48986C5.97602 8.754 5.31566 8.68185 5.81456 8.26643C6.46571 7.98368 6.66954 9.05988 6.38621 9.74781C6.12594 10.4609 5.11073 11.1496 4.21788 11.4835C4.42407 12.1083 4.85725 12.6397 5.4373 12.9796C6.6453 13.7019 8.25722 13.5545 8.93934 13.3776C9.03115 13.353 9.12779 13.3505 9.2208 13.3705C9.31381 13.3904 9.40035 13.432 9.47284 13.4918C9.92634 13.8692 10.4677 14.1348 11.0505 14.2657C11.299 14.3086 11.5212 14.4418 11.6716 14.6379L13.2607 16.8415C13.2959 16.8901 13.3427 16.9299 13.397 16.9574C13.4514 16.985 13.5118 16.9996 13.5732 17H14.9031C15.0041 16.9997 15.1008 16.9608 15.1722 16.8917C15.2436 16.8227 15.2839 16.7291 15.2842 16.6315V15.1317C18.4752 14.4012 20.5573 12.9506 19.4189 10.1827C19.3842 10.1118 19.3721 10.0326 19.3844 9.95512C19.3966 9.87764 19.4324 9.80546 19.4874 9.74784ZM15.791 7.23832L17.3419 6.89561C17.4398 6.87548 17.5419 6.89332 17.6262 6.94529C17.7106 6.99725 17.7704 7.07917 17.7929 7.17341C17.8154 7.26765 17.7987 7.36666 17.7464 7.44911C17.6941 7.53156 17.6104 7.59084 17.5134 7.61419L15.9624 7.9569C15.9349 7.96284 15.9068 7.96532 15.8786 7.96427C15.7859 7.96329 15.6968 7.92968 15.6279 7.86973C15.559 7.80978 15.5151 7.7276 15.5044 7.63859C15.4936 7.54957 15.5168 7.45982 15.5696 7.38614C15.6223 7.31246 15.701 7.25991 15.791 7.23832ZM12.8377 9.16191C13.2398 8.44619 13.6346 6.90397 12.4337 6.41659C12.3886 6.39535 12.3483 6.36571 12.3151 6.32938C12.2818 6.29304 12.2564 6.25072 12.2401 6.20485C12.2238 6.15897 12.2171 6.11044 12.2202 6.06203C12.2234 6.01363 12.2364 5.9663 12.2585 5.92276C12.7322 5.22976 13.8588 6.56638 13.9161 7.02825C14.1867 7.93479 13.7904 8.95187 13.5312 9.47146C14.3862 10.0414 15.0131 10.8778 15.307 11.8409C15.324 11.8867 15.3315 11.9353 15.3291 11.9839C15.3266 12.0325 15.3142 12.0801 15.2927 12.1241C15.2711 12.168 15.2408 12.2075 15.2035 12.2401C15.1661 12.2727 15.1225 12.2978 15.0751 12.3141C15.0277 12.3303 14.9774 12.3373 14.9272 12.3348C14.8769 12.3322 14.8277 12.32 14.7824 12.299C14.737 12.278 14.6964 12.2485 14.6628 12.2123C14.6292 12.176 14.6034 12.1338 14.5868 12.0878C13.5927 9.19734 11.175 9.46949 9.66335 10.3486C9.578 10.3986 9.47579 10.4143 9.37859 10.3924C9.28139 10.3705 9.19689 10.3128 9.14315 10.2314C9.08941 10.1501 9.0707 10.0517 9.09101 9.95717C9.11132 9.86268 9.16904 9.77961 9.25184 9.72572C9.32803 9.6815 11.0924 8.61284 12.8377 9.16191ZM6.01653 6.22862C5.63362 6.19063 4.44461 6.19246 4.62178 5.54692C4.65546 5.45528 4.72523 5.38022 4.81589 5.33811C4.90655 5.296 5.01074 5.29024 5.10577 5.3221C5.36323 5.43748 5.64363 5.49714 5.92739 5.49691C6.21115 5.49668 6.49145 5.43657 6.74871 5.32077C7.00597 5.20498 7.234 5.03628 7.41688 4.82647C7.59976 4.61665 7.73309 4.37077 7.80756 4.10598C7.83918 4.01485 7.90626 3.93921 7.99457 3.8951C8.08289 3.85099 8.1855 3.84187 8.28065 3.86967C8.3758 3.89748 8.45601 3.96003 8.50428 4.04406C8.55255 4.12809 8.56508 4.22699 8.53922 4.3198C8.40176 4.7122 8.18694 5.07511 7.90664 5.38843C7.98948 5.74486 8.19176 6.06484 8.48206 6.29863C8.64635 6.40699 8.83207 6.48126 9.02751 6.51678C9.22295 6.55229 9.42388 6.54828 9.61764 6.505C9.6672 6.49713 9.71788 6.49881 9.76676 6.50994C9.81565 6.52107 9.86177 6.54143 9.9025 6.56985C9.94322 6.59827 9.97773 6.63419 10.0041 6.67555C10.0304 6.71691 10.048 6.76289 10.0559 6.81085C10.071 6.90746 10.0463 7.00595 9.98718 7.08518C9.92805 7.1644 9.83916 7.21806 9.73959 7.23464C9.23138 7.3369 8.70206 7.25776 8.24952 7.01184C7.79698 6.76591 7.45183 6.36985 7.2779 5.89688C6.89804 6.11991 6.46087 6.23488 6.01653 6.22862Z" fill="currentColor"/>
</svg>
