<svg width="16" height="18" viewBox="0 0 16 18" fill="none" xmlns="http://www.w3.org/2000/svg">
<path d="M11.9572 2.03718V0.737183C11.9572 0.395516 11.6739 0.112183 11.3322 0.112183C10.9906 0.112183 10.7072 0.395516 10.7072 0.737183V1.98718H5.29056V0.737183C5.29056 0.395516 5.00722 0.112183 4.66556 0.112183C4.32389 0.112183 4.04056 0.395516 4.04056 0.737183V2.03718C1.79056 2.24552 0.698889 3.58718 0.532222 5.57885C0.515556 5.82052 0.715556 6.02052 0.948889 6.02052H15.0489C15.2906 6.02052 15.4906 5.81218 15.4656 5.57885C15.2989 3.58718 14.2072 2.24552 11.9572 2.03718Z" fill="currentColor"/>
<path d="M14.6667 7.27051H1.33333C0.875 7.27051 0.5 7.64551 0.5 8.10384V13.2372C0.5 15.7372 1.75 17.4038 4.66667 17.4038H11.3333C14.25 17.4038 15.5 15.7372 15.5 13.2372V8.10384C15.5 7.64551 15.125 7.27051 14.6667 7.27051ZM5.675 14.2455C5.63333 14.2788 5.59167 14.3205 5.55 14.3455C5.5 14.3788 5.45 14.4038 5.4 14.4205C5.35 14.4455 5.3 14.4622 5.25 14.4705C5.19167 14.4788 5.14167 14.4872 5.08333 14.4872C4.975 14.4872 4.86667 14.4622 4.76667 14.4205C4.65833 14.3788 4.575 14.3205 4.49167 14.2455C4.34167 14.0872 4.25 13.8705 4.25 13.6538C4.25 13.4372 4.34167 13.2205 4.49167 13.0622C4.575 12.9872 4.65833 12.9288 4.76667 12.8872C4.91667 12.8205 5.08333 12.8038 5.25 12.8372C5.3 12.8455 5.35 12.8622 5.4 12.8872C5.45 12.9038 5.5 12.9288 5.55 12.9622C5.59167 12.9955 5.63333 13.0288 5.675 13.0622C5.825 13.2205 5.91667 13.4372 5.91667 13.6538C5.91667 13.8705 5.825 14.0872 5.675 14.2455ZM5.675 11.3288C5.51667 11.4788 5.3 11.5705 5.08333 11.5705C4.86667 11.5705 4.65 11.4788 4.49167 11.3288C4.34167 11.1705 4.25 10.9538 4.25 10.7372C4.25 10.5205 4.34167 10.3038 4.49167 10.1455C4.725 9.91217 5.09167 9.83717 5.4 9.97051C5.50833 10.0122 5.6 10.0705 5.675 10.1455C5.825 10.3038 5.91667 10.5205 5.91667 10.7372C5.91667 10.9538 5.825 11.1705 5.675 11.3288ZM8.59167 14.2455C8.43333 14.3955 8.21667 14.4872 8 14.4872C7.78333 14.4872 7.56667 14.3955 7.40833 14.2455C7.25833 14.0872 7.16667 13.8705 7.16667 13.6538C7.16667 13.4372 7.25833 13.2205 7.40833 13.0622C7.71667 12.7538 8.28333 12.7538 8.59167 13.0622C8.74167 13.2205 8.83333 13.4372 8.83333 13.6538C8.83333 13.8705 8.74167 14.0872 8.59167 14.2455ZM8.59167 11.3288C8.55 11.3622 8.50833 11.3955 8.46667 11.4288C8.41667 11.4622 8.36667 11.4872 8.31667 11.5038C8.26667 11.5288 8.21667 11.5455 8.16667 11.5538C8.10833 11.5622 8.05833 11.5705 8 11.5705C7.78333 11.5705 7.56667 11.4788 7.40833 11.3288C7.25833 11.1705 7.16667 10.9538 7.16667 10.7372C7.16667 10.5205 7.25833 10.3038 7.40833 10.1455C7.48333 10.0705 7.575 10.0122 7.68333 9.97051C7.99167 9.83717 8.35833 9.91217 8.59167 10.1455C8.74167 10.3038 8.83333 10.5205 8.83333 10.7372C8.83333 10.9538 8.74167 11.1705 8.59167 11.3288ZM11.5083 14.2455C11.35 14.3955 11.1333 14.4872 10.9167 14.4872C10.7 14.4872 10.4833 14.3955 10.325 14.2455C10.175 14.0872 10.0833 13.8705 10.0833 13.6538C10.0833 13.4372 10.175 13.2205 10.325 13.0622C10.6333 12.7538 11.2 12.7538 11.5083 13.0622C11.6583 13.2205 11.75 13.4372 11.75 13.6538C11.75 13.8705 11.6583 14.0872 11.5083 14.2455ZM11.5083 11.3288C11.4667 11.3622 11.425 11.3955 11.3833 11.4288C11.3333 11.4622 11.2833 11.4872 11.2333 11.5038C11.1833 11.5288 11.1333 11.5455 11.0833 11.5538C11.025 11.5622 10.9667 11.5705 10.9167 11.5705C10.7 11.5705 10.4833 11.4788 10.325 11.3288C10.175 11.1705 10.0833 10.9538 10.0833 10.7372C10.0833 10.5205 10.175 10.3038 10.325 10.1455C10.4083 10.0705 10.4917 10.0122 10.6 9.97051C10.75 9.90384 10.9167 9.88718 11.0833 9.92051C11.1333 9.92884 11.1833 9.94551 11.2333 9.97051C11.2833 9.98717 11.3333 10.0122 11.3833 10.0455C11.425 10.0788 11.4667 10.1122 11.5083 10.1455C11.6583 10.3038 11.75 10.5205 11.75 10.7372C11.75 10.9538 11.6583 11.1705 11.5083 11.3288Z" fill="currentColor"/>
</svg>
