<svg width="20" height="20" viewBox="0 0 20 20" fill="none" xmlns="http://www.w3.org/2000/svg">
<path d="M8.24674 0.649353C8.09174 0.649353 7.9431 0.710925 7.8335 0.820524C7.7239 0.930123 7.66232 1.07877 7.66232 1.23377C7.66232 1.38877 7.7239 1.53741 7.8335 1.64701C7.9431 1.75661 8.09174 1.81818 8.24674 1.81818H9.41557V18.1818H8.24674C8.09174 18.1818 7.9431 18.2434 7.8335 18.353C7.7239 18.4626 7.66232 18.6112 7.66232 18.7662C7.66232 18.9212 7.7239 19.0699 7.8335 19.1795C7.9431 19.2891 8.09174 19.3507 8.24674 19.3507H11.7532C11.9082 19.3507 12.0569 19.2891 12.1665 19.1795C12.2761 19.0699 12.3376 18.9212 12.3376 18.7662C12.3376 18.6112 12.2761 18.4626 12.1665 18.353C12.0569 18.2434 11.9082 18.1818 11.7532 18.1818H10.5844V1.81818H11.7532C11.9082 1.81818 12.0569 1.75661 12.1665 1.64701C12.2761 1.53741 12.3376 1.38877 12.3376 1.23377C12.3376 1.07877 12.2761 0.930123 12.1665 0.820524C12.0569 0.710925 11.9082 0.649353 11.7532 0.649353H8.24674ZM3.96103 3.78182H8.63635V16.2494H3.96103C3.28937 16.2494 2.64523 15.9825 2.1703 15.5076C1.69537 15.0327 1.42856 14.3885 1.42856 13.7169V6.31429C1.42856 5.64264 1.69537 4.99849 2.1703 4.52356C2.64523 4.04863 3.28937 3.78182 3.96103 3.78182ZM16.0389 16.2494H11.3636V3.78182H16.0389C16.7106 3.78182 17.3547 4.04863 17.8297 4.52356C18.3046 4.99849 18.5714 5.64264 18.5714 6.31429V13.7169C18.5714 14.3885 18.3046 15.0327 17.8297 15.5076C17.3547 15.9825 16.7106 16.2494 16.0389 16.2494Z" fill="currentColor"/>
</svg>
