<svg width="18" height="18" viewBox="0 0 18 18" fill="none" xmlns="http://www.w3.org/2000/svg">
<path d="M13.1641 0.737183H4.83073C2.53073 0.737183 0.664062 2.59552 0.664062 4.88718V9.87052V10.7039C0.664062 12.9955 2.53073 14.8539 4.83073 14.8539H6.08073C6.30573 14.8539 6.60573 15.0039 6.7474 15.1872L7.9974 16.8455C8.5474 17.5789 9.4474 17.5789 9.9974 16.8455L11.2474 15.1872C11.4057 14.9789 11.6557 14.8539 11.9141 14.8539H13.1641C15.4641 14.8539 17.3307 12.9955 17.3307 10.7039V4.88718C17.3307 2.59552 15.4641 0.737183 13.1641 0.737183ZM9.83073 10.5289H4.83073C4.48906 10.5289 4.20573 10.2455 4.20573 9.90385C4.20573 9.56218 4.48906 9.27885 4.83073 9.27885H9.83073C10.1724 9.27885 10.4557 9.56218 10.4557 9.90385C10.4557 10.2455 10.1724 10.5289 9.83073 10.5289ZM13.1641 6.36218H4.83073C4.48906 6.36218 4.20573 6.07885 4.20573 5.73718C4.20573 5.39552 4.48906 5.11218 4.83073 5.11218H13.1641C13.5057 5.11218 13.7891 5.39552 13.7891 5.73718C13.7891 6.07885 13.5057 6.36218 13.1641 6.36218Z" fill="currentColor"/>
</svg>
