<svg width="24" height="24" viewBox="0 0 24 24" fill="none" xmlns="http://www.w3.org/2000/svg">
<path d="M20.055 19.7455C20.1226 19.8182 20.1752 19.9035 20.2096 19.9966C20.244 20.0897 20.2595 20.1887 20.2554 20.2879C20.2513 20.387 20.2275 20.4844 20.1854 20.5743C20.1434 20.6642 20.0839 20.7448 20.0105 20.8116C19.937 20.8783 19.851 20.9298 19.7575 20.9631C19.664 20.9964 19.5649 21.0108 19.4658 21.0055C19.3667 21.0001 19.2696 20.9752 19.1802 20.9321C19.0908 20.8889 19.0109 20.8285 18.945 20.7543L17.6728 19.3555C16.1147 20.4287 14.2669 21.0023 12.375 20.9999H4.5C4.10218 20.9999 3.72065 20.8419 3.43934 20.5606C3.15804 20.2792 3 19.8977 3 19.4999V11.6249C2.99792 9.4278 3.77112 7.30042 5.18344 5.61739L3.945 4.25427C3.87748 4.17998 3.82556 4.09289 3.79232 3.99816C3.75909 3.90343 3.7452 3.80299 3.7515 3.7028C3.75779 3.60261 3.78414 3.5047 3.82897 3.41488C3.87381 3.32505 3.93622 3.24515 4.0125 3.17989C4.16698 3.05473 4.36385 2.99412 4.56197 3.01071C4.76009 3.02731 4.94413 3.11984 5.07563 3.26895L20.055 19.7455ZM19.5328 16.9415C19.5707 16.9831 19.6175 17.0157 19.6697 17.0369C19.7219 17.058 19.7781 17.0671 19.8343 17.0635C19.8905 17.0599 19.9452 17.0437 19.9943 17.0161C20.0434 16.9884 20.0856 16.9501 20.1178 16.904C21.3016 15.1629 21.8648 13.074 21.7168 10.9738C21.5688 8.8736 20.7182 6.88436 19.3019 5.3265C17.8857 3.76863 15.9863 2.73283 13.9096 2.38595C11.833 2.03906 9.70007 2.40128 7.85438 3.41427C7.80519 3.44188 7.76287 3.48024 7.73057 3.52648C7.69826 3.57273 7.6768 3.62566 7.66779 3.68135C7.65878 3.73703 7.66245 3.79403 7.67852 3.8481C7.6946 3.90217 7.72266 3.95192 7.76063 3.99364L19.5328 16.9415Z" fill="white"/>
</svg>
