<svg width="41" height="40" viewBox="0 0 41 40" fill="none" xmlns="http://www.w3.org/2000/svg">
<rect x="0.5" width="40" height="40" rx="8" fill="#BAD4B7"/>
<g clip-path="url(#clip0_2877_45827)">
<path d="M20.5 10C14.9858 10 10.5 14.4858 10.5 20C10.5 25.5142 14.9858 30 20.5 30C26.0142 30 30.5 25.5142 30.5 20C30.5 14.4858 26.0142 10 20.5 10ZM25.5684 17.8809L20.1516 23.2974C19.9891 23.4599 19.7758 23.5417 19.5625 23.5417C19.3492 23.5417 19.1359 23.4599 18.9734 23.2974L16.2651 20.5891C15.9391 20.2634 15.9391 19.7366 16.2651 19.4109C16.5909 19.0849 17.1174 19.0849 17.4434 19.4109L19.5625 21.53L24.3901 16.7026C24.7159 16.3766 25.2424 16.3766 25.5684 16.7026C25.8941 17.0284 25.8941 17.5549 25.5684 17.8809Z" fill="#43573C"/>
</g>
<defs>
<clipPath id="clip0_2877_45827">
<rect width="20" height="20" fill="white" transform="translate(10.5 10)"/>
</clipPath>
</defs>
</svg>
