<svg width="9" height="15" viewBox="0 0 9 15" fill="none" xmlns="http://www.w3.org/2000/svg">
<path d="M8.19254 7.94229L1.94254 14.1923C1.88447 14.2504 1.81553 14.2964 1.73966 14.3279C1.66379 14.3593 1.58247 14.3755 1.50035 14.3755C1.41823 14.3755 1.33691 14.3593 1.26104 14.3279C1.18517 14.2964 1.11623 14.2504 1.05816 14.1923C1.00009 14.1342 0.954028 14.0653 0.922601 13.9894C0.891175 13.9135 0.875 13.8322 0.875 13.7501C0.875 13.668 0.891175 13.5867 0.922601 13.5108C0.954028 13.4349 1.00009 13.366 1.05816 13.3079L6.86675 7.5001L1.05816 1.69229C0.940884 1.57502 0.875 1.41596 0.875 1.2501C0.875 1.08425 0.940884 0.925191 1.05816 0.807916C1.17544 0.69064 1.3345 0.624756 1.50035 0.624756C1.6662 0.624756 1.82526 0.69064 1.94254 0.807916L8.19254 7.05792C8.25065 7.11596 8.29675 7.18489 8.3282 7.26077C8.35965 7.33664 8.37584 7.41797 8.37584 7.5001C8.37584 7.58224 8.35965 7.66357 8.3282 7.73944C8.29675 7.81532 8.25065 7.88425 8.19254 7.94229Z" fill="currentColor"/>
</svg>
