<svg width="9" height="15" viewBox="0 0 9 15" fill="none" xmlns="http://www.w3.org/2000/svg">
<path d="M7.94268 13.3079C8.00075 13.366 8.04681 13.4349 8.07824 13.5108C8.10966 13.5867 8.12584 13.668 8.12584 13.7501C8.12584 13.8322 8.10966 13.9135 8.07824 13.9894C8.04681 14.0653 8.00075 14.1342 7.94268 14.1923C7.88461 14.2504 7.81567 14.2964 7.7398 14.3279C7.66393 14.3593 7.58261 14.3755 7.50049 14.3755C7.41837 14.3755 7.33705 14.3593 7.26118 14.3279C7.18531 14.2964 7.11637 14.2504 7.0583 14.1923L0.808304 7.94229C0.750194 7.88425 0.704095 7.81532 0.672642 7.73944C0.641189 7.66357 0.625 7.58224 0.625 7.5001C0.625 7.41797 0.641189 7.33664 0.672642 7.26077C0.704095 7.18489 0.750194 7.11596 0.808304 7.05792L7.0583 0.807916C7.17558 0.69064 7.33464 0.624756 7.50049 0.624756C7.66634 0.624756 7.8254 0.69064 7.94268 0.807916C8.05996 0.925191 8.12584 1.08425 8.12584 1.2501C8.12584 1.41596 8.05996 1.57502 7.94268 1.69229L2.13409 7.5001L7.94268 13.3079Z" fill="currentColor"/>
</svg>
