<svg width="16" height="17" viewBox="0 0 16 17" fill="none" xmlns="http://www.w3.org/2000/svg">
<path d="M10.6693 9H5.33594C5.0626 9 4.83594 8.77333 4.83594 8.5C4.83594 8.22667 5.0626 8 5.33594 8H10.6693C10.9426 8 11.1693 8.22667 11.1693 8.5C11.1693 8.77333 10.9426 9 10.6693 9Z" fill="#6B6B6B"/>
<path d="M10.0026 15.6663H6.0026C2.3826 15.6663 0.835938 14.1197 0.835938 10.4997V6.49967C0.835938 2.87967 2.3826 1.33301 6.0026 1.33301H10.0026C13.6226 1.33301 15.1693 2.87967 15.1693 6.49967V10.4997C15.1693 14.1197 13.6226 15.6663 10.0026 15.6663ZM6.0026 2.33301C2.92927 2.33301 1.83594 3.42634 1.83594 6.49967V10.4997C1.83594 13.573 2.92927 14.6663 6.0026 14.6663H10.0026C13.0759 14.6663 14.1693 13.573 14.1693 10.4997V6.49967C14.1693 3.42634 13.0759 2.33301 10.0026 2.33301H6.0026Z" fill="#6B6B6B"/>
</svg>
