<svg width="18" height="18" viewBox="0 0 18 18" fill="none" xmlns="http://www.w3.org/2000/svg">
<path d="M6.4974 0.737305C4.31406 0.737305 2.53906 2.5123 2.53906 4.69564C2.53906 6.8373 4.21406 8.57064 6.3974 8.64564C6.46406 8.6373 6.53073 8.6373 6.58073 8.64564C6.5974 8.64564 6.60573 8.64564 6.6224 8.64564C6.63073 8.64564 6.63073 8.64564 6.63906 8.64564C8.7724 8.57064 10.4474 6.8373 10.4557 4.69564C10.4557 2.5123 8.68073 0.737305 6.4974 0.737305Z" fill="currentColor"/>
<path d="M10.7328 10.8622C8.40781 9.31221 4.61615 9.31221 2.27448 10.8622C1.21615 11.5705 0.632812 12.5289 0.632812 13.5539C0.632812 14.5789 1.21615 15.5289 2.26615 16.2289C3.43281 17.0122 4.96615 17.4039 6.49948 17.4039C8.03281 17.4039 9.56615 17.0122 10.7328 16.2289C11.7828 15.5205 12.3661 14.5705 12.3661 13.5372C12.3578 12.5122 11.7828 11.5622 10.7328 10.8622Z" fill="currentColor"/>
<path d="M15.6578 5.18714C15.7911 6.80381 14.6411 8.22048 13.0495 8.41214C13.0411 8.41214 13.0411 8.41214 13.0328 8.41214H13.0078C12.9578 8.41214 12.9078 8.41214 12.8661 8.42881C12.0578 8.47048 11.3161 8.21214 10.7578 7.73714C11.6161 6.97048 12.1078 5.82048 12.0078 4.57048C11.9495 3.89548 11.7161 3.27881 11.3661 2.75381C11.6828 2.59548 12.0495 2.49548 12.4245 2.46214C14.0578 2.32048 15.5161 3.53714 15.6578 5.18714Z" fill="currentColor"/>
<path d="M17.3229 12.8955C17.2562 13.7038 16.7396 14.4038 15.8729 14.8788C15.0396 15.3371 13.9896 15.5538 12.9479 15.5288C13.5479 14.9871 13.8979 14.3121 13.9646 13.5955C14.0479 12.5621 13.5563 11.5705 12.5729 10.7788C12.0146 10.3371 11.3646 9.98715 10.6562 9.72881C12.4979 9.19548 14.8146 9.55381 16.2396 10.7038C17.0063 11.3205 17.3979 12.0955 17.3229 12.8955Z" fill="currentColor"/>
</svg>
