<svg width="16" height="17" viewBox="0 0 16 17" fill="none" xmlns="http://www.w3.org/2000/svg">
<path d="M12.1667 0.166626H3.83333C1.33333 0.166626 0.5 1.65829 0.5 3.49996V16.8333H5.5V11.7833C5.5 11.35 5.85 11 6.28333 11H9.725C10.15 11 10.5083 11.35 10.5083 11.7833V16.8333H15.5083V3.49996C15.5 1.65829 14.6667 0.166626 12.1667 0.166626ZM10.0833 6.20829H8.625V7.66663C8.625 8.00829 8.34167 8.29163 8 8.29163C7.65833 8.29163 7.375 8.00829 7.375 7.66663V6.20829H5.91667C5.575 6.20829 5.29167 5.92496 5.29167 5.58329C5.29167 5.24163 5.575 4.95829 5.91667 4.95829H7.375V3.49996C7.375 3.15829 7.65833 2.87496 8 2.87496C8.34167 2.87496 8.625 3.15829 8.625 3.49996V4.95829H10.0833C10.425 4.95829 10.7083 5.24163 10.7083 5.58329C10.7083 5.92496 10.425 6.20829 10.0833 6.20829Z" fill="currentColor"/>
</svg>
