<svg width="18" height="19" viewBox="0 0 18 19" fill="none" xmlns="http://www.w3.org/2000/svg">
<path d="M9 2C4.8675 2 1.5 5.3675 1.5 9.5C1.5 13.6325 4.8675 17 9 17C13.1325 17 16.5 13.6325 16.5 9.5C16.5 5.3675 13.1325 2 9 2ZM12.2625 12.1775C12.1575 12.3575 11.97 12.455 11.775 12.455C11.6775 12.455 11.58 12.4325 11.49 12.3725L9.165 10.985C8.5875 10.64 8.16 9.8825 8.16 9.215V6.14C8.16 5.8325 8.415 5.5775 8.7225 5.5775C9.03 5.5775 9.285 5.8325 9.285 6.14V9.215C9.285 9.485 9.51 9.8825 9.7425 10.0175L12.0675 11.405C12.3375 11.5625 12.4275 11.9075 12.2625 12.1775Z" fill="#43573C"/>
</svg>
