<svg width="20" height="20" viewBox="0 0 20 20" fill="none" xmlns="http://www.w3.org/2000/svg">
<path d="M14.0859 15.2498L4.75261 5.91649C4.43372 5.59761 4.43372 5.06872 4.75261 4.74983C5.07149 4.43095 5.60038 4.43095 5.91927 4.74983L15.2525 14.0831C15.5714 14.402 15.5714 14.9309 15.2525 15.2498C14.9337 15.5687 14.4048 15.5687 14.0859 15.2498Z" fill="currentColor"/>
<path d="M4.74746 15.2498C4.42857 14.9309 4.42857 14.402 4.74746 14.0831L14.0807 4.74983C14.3996 4.43095 14.9285 4.43095 15.2474 4.74983C15.5663 5.06872 15.5663 5.59761 15.2474 5.91649L5.91412 15.2498C5.59523 15.5687 5.06635 15.5687 4.74746 15.2498Z" fill="currentColor"/>
</svg>
