<svg width="18" height="18" viewBox="0 0 18 18" fill="none" xmlns="http://www.w3.org/2000/svg">
<path d="M16.3567 5.74565L10.8983 1.37899C9.83167 0.528987 8.16501 0.520653 7.10667 1.37065L1.64834 5.74565C0.865008 6.37065 0.390008 7.62065 0.556675 8.60399L1.60667 14.8873C1.84834 16.2957 3.15667 17.404 4.58167 17.404H13.415C14.8233 17.404 16.1567 16.2707 16.3983 14.879L17.4483 8.59565C17.5983 7.62065 17.1233 6.37065 16.3567 5.74565ZM9.62334 14.0707C9.62334 14.4123 9.34001 14.6957 8.99834 14.6957C8.65667 14.6957 8.37334 14.4123 8.37334 14.0707V11.5707C8.37334 11.229 8.65667 10.9457 8.99834 10.9457C9.34001 10.9457 9.62334 11.229 9.62334 11.5707V14.0707Z" fill="currentColor"/>
</svg>
