<svg width="25" height="24" viewBox="0 0 25 24" fill="none" xmlns="http://www.w3.org/2000/svg">
<path d="M11.9999 8.08008V10.9401L10.9899 10.5901C10.4799 10.4101 10.1699 10.2401 10.1699 9.37008C10.1699 8.66008 10.6999 8.08008 11.3499 8.08008H11.9999Z" fill="currentColor"/>
<path d="M15.33 14.6301C15.33 15.3401 14.8 15.9201 14.15 15.9201H13.5V13.0601L14.51 13.4101C15.02 13.5901 15.33 13.7601 15.33 14.6301Z" fill="currentColor"/>
<path d="M16.94 2H8.56C4.92 2 2.75 4.17 2.75 7.81V16.19C2.75 19.83 4.92 22 8.56 22H16.94C20.58 22 22.75 19.83 22.75 16.19V7.81C22.75 4.17 20.58 2 16.94 2ZM15.01 12C15.79 12.27 16.83 12.84 16.83 14.63C16.83 16.17 15.63 17.42 14.15 17.42H13.5V18C13.5 18.41 13.16 18.75 12.75 18.75C12.34 18.75 12 18.41 12 18V17.42H11.64C10 17.42 8.67 16.03 8.67 14.33C8.67 13.92 9 13.58 9.42 13.58C9.83 13.58 10.17 13.92 10.17 14.33C10.17 15.21 10.83 15.92 11.64 15.92H12V12.53L10.49 12C9.71 11.73 8.67 11.16 8.67 9.37C8.67 7.83 9.87 6.58 11.35 6.58H12V6C12 5.59 12.34 5.25 12.75 5.25C13.16 5.25 13.5 5.59 13.5 6V6.58H13.86C15.5 6.58 16.83 7.97 16.83 9.67C16.83 10.08 16.5 10.42 16.08 10.42C15.67 10.42 15.33 10.08 15.33 9.67C15.33 8.79 14.67 8.08 13.86 8.08H13.5V11.47L15.01 12Z" fill="currentColor"/>
</svg>
