<svg width="59" height="60" viewBox="0 0 59 60" fill="none" xmlns="http://www.w3.org/2000/svg">
<path d="M16.5309 59.7285C16.533 59.7604 16.547 59.7891 16.5683 59.8106L40.2125 41.1392L58.8608 17.518C58.8608 17.518 13.428 12.69 16.5309 59.7285Z" fill="#6FBF6B"/>
<path d="M58.8589 17.5181L16.5664 59.8106C16.5877 59.832 16.6166 59.8459 16.6485 59.848C63.6869 62.951 58.8589 17.5181 58.8589 17.5181Z" fill="#009959"/>
<path d="M16.4822 59.7791C16.5062 59.8 16.5363 59.8106 16.5666 59.8106L20.0829 29.889L16.5666 0C16.5666 0 -18.9732 28.712 16.4822 59.7791Z" fill="#6FBF6B"/>
<path d="M16.5664 0V59.8107C16.5966 59.8107 16.6268 59.8002 16.6508 59.7792C52.1062 28.712 16.5664 0 16.5664 0Z" fill="#009959"/>
</svg>
