<svg width="20" height="20" viewBox="0 0 20 20" fill="none" xmlns="http://www.w3.org/2000/svg">
<path d="M13.3241 7.16834L5.7455 14.7813C5.45507 15.0732 4.98482 15.0728 4.69477 14.7805L0.921201 10.9811C0.776266 10.835 0.776266 10.5977 0.921201 10.4516L1.44713 9.92248C1.59207 9.77642 1.82756 9.77642 1.97268 9.92248L4.96701 12.9374C5.11195 13.0835 5.34744 13.0835 5.49257 12.9374L12.2736 6.10955C12.4185 5.96348 12.654 5.96348 12.7991 6.10955L13.3247 6.63866C13.47 6.78528 13.4696 7.02228 13.3241 7.16834ZM19.0797 6.63885L18.5619 6.10973C18.419 5.96367 18.1869 5.96367 18.044 6.10973L11.3623 12.9374C11.2191 13.0835 10.9874 13.0835 10.8441 12.9374L10.3084 12.3899C10.1656 12.2439 9.93381 12.2435 9.79056 12.3896L9.27194 12.9179C9.1287 13.064 9.12832 13.3014 9.27157 13.4478L10.576 14.7803C10.8615 15.0727 11.3252 15.073 11.6112 14.7811L19.079 7.16815C19.2228 7.02228 19.2228 6.78491 19.0797 6.63885Z" fill="#43573C"/>
</svg>
