<svg width="25" height="25" viewBox="0 0 25 25" fill="none" xmlns="http://www.w3.org/2000/svg">
<path d="M3.08078 19.5103L3.06078 19.5303C2.79078 18.9403 2.62078 18.2703 2.55078 17.5303C2.62078 18.2603 2.81078 18.9203 3.08078 19.5103Z" fill="#6B6B6B"/>
<path d="M9.50109 10.8801C10.8155 10.8801 11.8811 9.81456 11.8811 8.50012C11.8811 7.18568 10.8155 6.12012 9.50109 6.12012C8.18666 6.12012 7.12109 7.18568 7.12109 8.50012C7.12109 9.81456 8.18666 10.8801 9.50109 10.8801Z" fill="#6B6B6B"/>
<path d="M16.69 2.5H8.31C4.67 2.5 2.5 4.67 2.5 8.31V16.69C2.5 17.78 2.69 18.73 3.06 19.53C3.92 21.43 5.76 22.5 8.31 22.5H16.69C20.33 22.5 22.5 20.33 22.5 16.69V14.4V8.31C22.5 4.67 20.33 2.5 16.69 2.5ZM20.87 13C20.09 12.33 18.83 12.33 18.05 13L13.89 16.57C13.11 17.24 11.85 17.24 11.07 16.57L10.73 16.29C10.02 15.67 8.89 15.61 8.09 16.15L4.35 18.66C4.13 18.1 4 17.45 4 16.69V8.31C4 5.49 5.49 4 8.31 4H16.69C19.51 4 21 5.49 21 8.31V13.11L20.87 13Z" fill="#6B6B6B"/>
</svg>
