<svg width="40" height="36" viewBox="0 0 40 36" fill="none" xmlns="http://www.w3.org/2000/svg">
<rect width="40" height="36" rx="8" fill="#E8ECF3"/>
<path d="M27.5 26.333H12.5C12.1583 26.333 11.875 26.0497 11.875 25.708C11.875 25.3663 12.1583 25.083 12.5 25.083H27.5C27.8417 25.083 28.125 25.3663 28.125 25.708C28.125 26.0497 27.8417 26.333 27.5 26.333Z" fill="#2E3139"/>
<path d="M25.8534 10.9C24.2367 9.28338 22.6534 9.24172 20.9951 10.9L19.9867 11.9084C19.9034 11.9917 19.8701 12.125 19.9034 12.2417C20.5367 14.45 22.3034 16.2167 24.5117 16.85C24.5451 16.8584 24.5784 16.8667 24.6117 16.8667C24.7034 16.8667 24.7867 16.8334 24.8534 16.7667L25.8534 15.7584C26.6784 14.9417 27.0784 14.15 27.0784 13.35C27.0867 12.525 26.6867 11.725 25.8534 10.9Z" fill="#2E3139"/>
<path d="M23.0109 17.6087C22.7692 17.492 22.5359 17.3753 22.3109 17.242C22.1275 17.1337 21.9525 17.017 21.7775 16.892C21.6359 16.8003 21.4692 16.667 21.3109 16.5337C21.2942 16.5253 21.2359 16.4753 21.1692 16.4087C20.8942 16.1753 20.5859 15.8753 20.3109 15.542C20.2859 15.5253 20.2442 15.467 20.1859 15.392C20.1025 15.292 19.9609 15.1253 19.8359 14.9337C19.7359 14.8087 19.6192 14.6253 19.5109 14.442C19.3775 14.217 19.2609 13.992 19.1442 13.7587C18.9912 13.4309 18.561 13.3335 18.3053 13.5893L13.6192 18.2753C13.5109 18.3837 13.4109 18.592 13.3859 18.7337L12.9359 21.9253C12.8525 22.492 13.0109 23.0253 13.3609 23.3837C13.6609 23.6753 14.0775 23.8337 14.5275 23.8337C14.6275 23.8337 14.7275 23.8253 14.8275 23.8087L18.0275 23.3587C18.1775 23.3337 18.3859 23.2337 18.4859 23.1253L23.1797 18.4315C23.4303 18.1809 23.3361 17.7496 23.0109 17.6087Z" fill="#2E3139"/>
</svg>
