<svg width="20" height="20" viewBox="0 0 20 20" fill="none" xmlns="http://www.w3.org/2000/svg">
<path d="M17.5 18.333H2.5C2.15833 18.333 1.875 18.0497 1.875 17.708C1.875 17.3663 2.15833 17.083 2.5 17.083H17.5C17.8417 17.083 18.125 17.3663 18.125 17.708C18.125 18.0497 17.8417 18.333 17.5 18.333Z" fill="currentColor"/>
<path d="M15.8534 2.90005C14.2367 1.28338 12.6534 1.24172 10.9951 2.90005L9.98673 3.90838C9.9034 3.99172 9.87007 4.12505 9.9034 4.24172C10.5367 6.45005 12.3034 8.21672 14.5117 8.85005C14.5451 8.85838 14.5784 8.86672 14.6117 8.86672C14.7034 8.86672 14.7867 8.83338 14.8534 8.76672L15.8534 7.75838C16.6784 6.94172 17.0784 6.15005 17.0784 5.35005C17.0867 4.52505 16.6867 3.72505 15.8534 2.90005Z" fill="currentColor"/>
<path d="M13.0109 9.60866C12.7692 9.49199 12.5359 9.37533 12.3109 9.24199C12.1275 9.13366 11.9525 9.01699 11.7775 8.89199C11.6359 8.80033 11.4692 8.66699 11.3109 8.53366C11.2942 8.52533 11.2359 8.47533 11.1692 8.40866C10.8942 8.17533 10.5859 7.87533 10.3109 7.54199C10.2859 7.52533 10.2442 7.46699 10.1859 7.39199C10.1025 7.29199 9.96088 7.12532 9.83588 6.93366C9.73588 6.80866 9.61921 6.62533 9.51088 6.44199C9.37754 6.21699 9.26088 5.99199 9.14421 5.75866C8.99125 5.43088 8.56103 5.3335 8.30526 5.58928L3.61921 10.2753C3.51088 10.3837 3.41088 10.592 3.38588 10.7337L2.93588 13.9253C2.85254 14.492 3.01088 15.0253 3.36088 15.3837C3.66088 15.6753 4.07754 15.8337 4.52754 15.8337C4.62754 15.8337 4.72754 15.8253 4.82754 15.8087L8.02754 15.3587C8.17754 15.3337 8.38588 15.2337 8.48588 15.1253L13.1797 10.4315C13.4303 10.1809 13.3361 9.7496 13.0109 9.60866Z" fill="currentColor"/>
</svg>
