<svg width="24" height="24" viewBox="0 0 24 24" fill="none" xmlns="http://www.w3.org/2000/svg">
<path d="M17 21.25H7C3.35 21.25 1.25 19.15 1.25 15.5V8.5C1.25 4.85 3.35 2.75 7 2.75H17C20.65 2.75 22.75 4.85 22.75 8.5V15.5C22.75 19.15 20.65 21.25 17 21.25ZM7 4.25C4.14 4.25 2.75 5.64 2.75 8.5V15.5C2.75 18.36 4.14 19.75 7 19.75H17C19.86 19.75 21.25 18.36 21.25 15.5V8.5C21.25 5.64 19.86 4.25 17 4.25H7Z" fill="currentColor"/>
<path d="M16.8477 8.79785C16.9552 8.71046 17.1108 8.73462 17.1846 8.83203L17.1943 8.8457C17.2816 8.95322 17.2584 9.10784 17.1611 9.18164L17.1504 9.18945L14.0205 11.6895L14.0137 11.6953C13.4776 12.1391 12.7461 12.3701 12.0029 12.3701C11.2605 12.3701 10.5265 12.1392 9.97852 11.6924L9.97461 11.6895L6.84473 9.18945C6.73127 9.09457 6.72456 8.93981 6.80078 8.8457C6.89548 8.72915 7.05251 8.72076 7.14746 8.79785L7.15039 8.80078L10.2803 11.3008C10.7648 11.6894 11.3943 11.8672 11.998 11.8672C12.6016 11.8671 13.2304 11.6892 13.7148 11.3008L16.8447 8.80078L16.8477 8.79785Z" fill="currentColor" stroke="currentColor"/>
</svg>
