<svg width="165" height="150" viewBox="0 0 165 150" fill="none" xmlns="http://www.w3.org/2000/svg">
<path d="M10.6897 150C8.11398 150 5.72827 148.792 4.18705 146.652C2.48539 144.287 2.18559 141.293 3.37211 138.641L63.6019 4.7502C64.801 2.09847 67.2374 0.333468 70.1383 0.0421152C73.0391 -0.249237 75.7753 0.983733 77.4854 3.34833L163.329 122.444C165.031 124.809 165.33 127.802 164.144 130.454C162.945 133.106 160.508 134.871 157.607 135.162L11.5469 149.954C11.2471 149.987 10.9684 150 10.6897 150ZM70.9743 0.536148C70.7168 0.536148 70.4508 0.548815 70.1932 0.578373C67.4866 0.857058 65.2106 2.49117 64.0959 4.974L3.86614 138.865C2.75562 141.348 3.03009 144.139 4.62619 146.343C6.21808 148.547 8.77691 149.7 11.4835 149.426L157.544 134.634C160.251 134.356 162.527 132.722 163.641 130.239C164.752 127.756 164.477 124.965 162.881 122.761L77.0463 3.65658C75.6149 1.66778 73.3769 0.536148 70.9743 0.536148Z" fill="currentColor"/>
<path d="M161.353 131.924L87.9444 4.77148C84.9506 -0.417969 77.4641 -0.417969 74.4577 4.77148L1.05375 131.924C-1.94 137.113 1.80114 143.603 7.79286 143.603H154.605C160.601 143.59 164.346 137.109 161.353 131.924ZM133.83 131.603H28.576C22.5843 131.603 18.8305 125.109 21.8369 119.923L74.4704 28.7595C77.4641 23.5701 84.9506 23.5701 87.957 28.7595L140.59 119.919C143.576 125.109 139.83 131.603 133.83 131.603Z" fill="currentColor"/>
<path d="M74.3523 114.628C74.0736 110.477 76.4466 107.289 79.9344 106.639C84.2118 105.849 88.0965 109.282 88.2021 113.729C88.3076 117.867 85.8164 121.131 81.8261 121.409C77.9456 121.688 74.6098 118.597 74.3523 114.628ZM77.156 92.6921L75.7457 43.386C75.6824 41.013 77.5445 39.0537 79.8626 39.0537H82.6748C84.9972 39.0537 86.8551 41.013 86.7918 43.386L85.3814 92.6921C85.3181 94.9723 83.4898 96.7795 81.2645 96.7795C79.035 96.7753 77.2194 94.9681 77.156 92.6921Z" fill="currentColor"/>
</svg>
