<svg width="21" height="21" viewBox="0 0 21 21" fill="none" xmlns="http://www.w3.org/2000/svg">
<path d="M18.2057 8.12494C16.2807 5.09994 13.4641 3.35828 10.4974 3.35828C9.01406 3.35828 7.5724 3.79161 6.25573 4.59994C4.93906 5.41661 3.75573 6.60828 2.78906 8.12494C1.95573 9.43328 1.95573 11.5583 2.78906 12.8666C4.71406 15.8999 7.53073 17.6333 10.4974 17.6333C11.9807 17.6333 13.4224 17.1999 14.7391 16.3916C16.0557 15.5749 17.2391 14.3833 18.2057 12.8666C19.0391 11.5666 19.0391 9.43328 18.2057 8.12494ZM10.4974 13.8666C8.63073 13.8666 7.13073 12.3583 7.13073 10.4999C7.13073 8.64161 8.63073 7.13328 10.4974 7.13328C12.3641 7.13328 13.8641 8.64161 13.8641 10.4999C13.8641 12.3583 12.3641 13.8666 10.4974 13.8666Z" fill="currentColor"/>
<path d="M10.5 8.1167C9.19167 8.1167 8.125 9.18337 8.125 10.5C8.125 11.8084 9.19167 12.875 10.5 12.875C11.8083 12.875 12.8833 11.8084 12.8833 10.5C12.8833 9.1917 11.8083 8.1167 10.5 8.1167Z" fill="currentColor"/>
</svg>
