<svg width="28" height="28" viewBox="0 0 28 28" fill="none" xmlns="http://www.w3.org/2000/svg">
<path d="M24.9375 0.875H3.0625C2.48234 0.875 1.92594 1.10547 1.5157 1.5157C1.10547 1.92594 0.875 2.48234 0.875 3.0625V24.9375C0.875 25.5177 1.10547 26.0741 1.5157 26.4843C1.92594 26.8945 2.48234 27.125 3.0625 27.125H17.9225C18.2098 27.1255 18.4943 27.069 18.7597 26.959C19.0251 26.8489 19.2661 26.6874 19.4688 26.4838L26.4838 19.4688C26.6874 19.2661 26.8489 19.0251 26.959 18.7597C27.069 18.4943 27.1255 18.2098 27.125 17.9225V3.0625C27.125 2.48234 26.8945 1.92594 26.4843 1.5157C26.0741 1.10547 25.5177 0.875 24.9375 0.875ZM9.625 8.53125H18.375C18.6651 8.53125 18.9433 8.64648 19.1484 8.8516C19.3535 9.05672 19.4688 9.33492 19.4688 9.625C19.4688 9.91508 19.3535 10.1933 19.1484 10.3984C18.9433 10.6035 18.6651 10.7188 18.375 10.7188H9.625C9.33492 10.7188 9.05672 10.6035 8.8516 10.3984C8.64648 10.1933 8.53125 9.91508 8.53125 9.625C8.53125 9.33492 8.64648 9.05672 8.8516 8.8516C9.05672 8.64648 9.33492 8.53125 9.625 8.53125ZM14 19.4688H9.625C9.33492 19.4688 9.05672 19.3535 8.8516 19.1484C8.64648 18.9433 8.53125 18.6651 8.53125 18.375C8.53125 18.0849 8.64648 17.8067 8.8516 17.6016C9.05672 17.3965 9.33492 17.2812 9.625 17.2812H14C14.2901 17.2812 14.5683 17.3965 14.7734 17.6016C14.9785 17.8067 15.0938 18.0849 15.0938 18.375C15.0938 18.6651 14.9785 18.9433 14.7734 19.1484C14.5683 19.3535 14.2901 19.4688 14 19.4688ZM9.625 15.0938C9.33492 15.0938 9.05672 14.9785 8.8516 14.7734C8.64648 14.5683 8.53125 14.2901 8.53125 14C8.53125 13.7099 8.64648 13.4317 8.8516 13.2266C9.05672 13.0215 9.33492 12.9062 9.625 12.9062H18.375C18.6651 12.9062 18.9433 13.0215 19.1484 13.2266C19.3535 13.4317 19.4688 13.7099 19.4688 14C19.4688 14.2901 19.3535 14.5683 19.1484 14.7734C18.9433 14.9785 18.6651 15.0938 18.375 15.0938H9.625ZM18.375 24.485V18.375H24.4863L18.375 24.485Z" fill="currentColor"/>
</svg>
