<svg width="16" height="17" viewBox="0 0 16 17" fill="none" xmlns="http://www.w3.org/2000/svg">
<path d="M0.340625 1.90627C0.273387 1.96456 0.219369 2.03652 0.182184 2.11736C0.144998 2.1982 0.125502 2.28605 0.125 2.37502V15.5C0.125 15.6658 0.190848 15.8248 0.308058 15.942C0.425269 16.0592 0.58424 16.125 0.75 16.125C0.91576 16.125 1.07473 16.0592 1.19194 15.942C1.30915 15.8248 1.375 15.6658 1.375 15.5V12.0446C3.46797 10.3914 5.27109 11.2828 7.34766 12.311C8.62891 12.9446 10.0086 13.6274 11.4883 13.6274C12.5766 13.6274 13.718 13.2563 14.9117 12.2211C14.979 12.1628 15.033 12.0909 15.0702 12.01C15.1073 11.9292 15.1268 11.8413 15.1273 11.7524V2.37502C15.1271 2.25506 15.0923 2.13771 15.0271 2.03699C14.9619 1.93627 14.8692 1.85643 14.7598 1.80701C14.6505 1.75758 14.5293 1.74066 14.4106 1.75826C14.292 1.77587 14.1809 1.82725 14.0906 1.90627C11.9031 3.79924 10.05 2.88206 7.90234 1.81877C5.67734 0.71565 3.15469 -0.532006 0.340625 1.90627ZM13.875 11.4571C11.782 13.1102 9.97891 12.218 7.90234 11.1906C5.94922 10.2258 3.77656 9.14924 1.375 10.5344V2.67112C3.46797 1.01799 5.27109 1.9094 7.34766 2.93674C9.30078 3.90159 11.4742 4.97815 13.875 3.59299V11.4571Z" fill="currentColor"/>
</svg>
