<svg width="16" height="17" viewBox="0 0 16 17" fill="none" xmlns="http://www.w3.org/2000/svg">
<path d="M15.125 2.37499V11.75C15.1245 11.839 15.105 11.9268 15.0678 12.0077C15.0306 12.0885 14.9766 12.1605 14.9094 12.2187C13.7156 13.2523 12.5742 13.625 11.4859 13.625C10.0086 13.625 8.62891 12.9422 7.34531 12.3086C5.27109 11.2812 3.46797 10.3914 1.375 12.0445V15.5C1.375 15.6657 1.30915 15.8247 1.19194 15.9419C1.07473 16.0591 0.91576 16.125 0.75 16.125C0.58424 16.125 0.425269 16.0591 0.308058 15.9419C0.190848 15.8247 0.125 15.6657 0.125 15.5V2.37499C0.125599 2.28595 0.145217 2.19806 0.182539 2.11722C0.219861 2.03638 0.274026 1.96444 0.341406 1.90624C3.15391 -0.529701 5.67812 0.717955 7.90312 1.81874C10.0469 2.87967 11.9055 3.79686 14.0906 1.90624C14.1809 1.82794 14.2918 1.77719 14.4101 1.76C14.5284 1.7428 14.6491 1.75989 14.758 1.80922C14.8669 1.85856 14.9593 1.93808 15.0243 2.03836C15.0894 2.13863 15.1243 2.25546 15.125 2.37499Z" fill="#FF513F"/>
</svg>
