<svg width="20" height="21" viewBox="0 0 20 21" fill="none" xmlns="http://www.w3.org/2000/svg">
<g clip-path="url(#clip0_1882_45931)">
<path d="M19.4874 11.7478C21.42 9.53145 19.5842 7.18019 16.9267 4.84575C16.772 5.3685 16.4762 5.842 16.0697 6.21763C15.6632 6.59326 15.1606 6.85747 14.6135 6.98312C14.523 6.98225 14.4358 6.95018 14.3675 6.89268C14.2992 6.83517 14.2544 6.75601 14.2411 6.66942C14.2278 6.58282 14.2468 6.49447 14.2948 6.42025C14.3428 6.34603 14.4167 6.2908 14.503 6.26449C14.9577 6.13091 15.3651 5.87798 15.6799 5.53382C15.9948 5.18966 16.2047 4.76777 16.2864 4.3151C15.2567 3.46119 14.0627 2.81248 12.7729 2.40625C11.657 3.35283 10.4342 4.80916 11.4886 6.81356C11.5351 6.89891 11.545 6.99848 11.5163 7.09083C11.4875 7.18319 11.4224 7.26093 11.335 7.30732C11.2476 7.35371 11.1448 7.36503 11.0488 7.33885C10.9528 7.31266 10.8713 7.25106 10.8218 7.16733C9.6602 4.98657 10.7146 3.3949 11.9002 2.18146C9.45313 1.7307 6.92006 2.12592 4.74375 3.29803C5.6458 3.3449 6.49399 3.72793 7.1102 4.36669C7.14633 4.40049 7.17519 4.44086 7.19512 4.48548C7.21505 4.53011 7.22567 4.5781 7.22635 4.6267C7.22703 4.67531 7.21777 4.72356 7.19909 4.76869C7.18042 4.81382 7.15271 4.85493 7.11754 4.88966C7.08238 4.9244 7.04046 4.95207 6.9942 4.97108C6.94794 4.99009 6.89824 5.00006 6.84798 5.00043C6.79772 5.0008 6.74787 4.99156 6.70132 4.97324C6.65476 4.95491 6.61241 4.92786 6.5767 4.89365C5.05449 3.33025 2.78169 4.0916 1.85905 5.8334C0.630826 7.95987 1.62082 9.12513 3.22332 9.40415C3.32286 9.41792 3.41273 9.4692 3.47331 9.54682C3.53389 9.62443 3.56026 9.72206 3.54667 9.81841C3.53308 9.91476 3.48063 10.002 3.40077 10.0611C3.3209 10.1202 3.22011 10.1463 3.12039 10.1338C3.0518 10.1264 1.44749 9.89794 0.803485 8.67819C0.747088 8.57288 0.699924 8.46317 0.662489 8.35022C-0.68269 9.99375 -0.595044 11.2761 0.88351 12.776C1.08389 12.994 1.34212 13.155 1.63026 13.2414C1.91841 13.3277 2.2255 13.3363 2.5183 13.2661C3.71625 12.9731 5.33676 12.3246 5.66975 11.4899C5.97602 10.754 5.31566 10.6818 5.81456 10.2664C6.46571 9.98368 6.66954 11.0599 6.38621 11.7478C6.12594 12.4609 5.11073 13.1496 4.21788 13.4835C4.42407 14.1083 4.85725 14.6397 5.4373 14.9796C6.6453 15.7019 8.25722 15.5545 8.93934 15.3776C9.03115 15.353 9.12779 15.3505 9.2208 15.3705C9.31381 15.3904 9.40035 15.432 9.47284 15.4918C9.92634 15.8692 10.4677 16.1348 11.0505 16.2657C11.299 16.3086 11.5212 16.4418 11.6716 16.6379L13.2607 18.8415C13.2959 18.8901 13.3427 18.9299 13.397 18.9574C13.4514 18.985 13.5118 18.9996 13.5732 19H14.9031C15.0041 18.9997 15.1008 18.9608 15.1722 18.8917C15.2436 18.8227 15.2839 18.7291 15.2842 18.6315V17.1317C18.4752 16.4012 20.5573 14.9506 19.4189 12.1827C19.3842 12.1118 19.3721 12.0326 19.3844 11.9551C19.3966 11.8776 19.4324 11.8055 19.4874 11.7478ZM15.791 9.23832L17.3419 8.89561C17.4398 8.87548 17.5419 8.89332 17.6262 8.94529C17.7106 8.99725 17.7704 9.07917 17.7929 9.17341C17.8154 9.26765 17.7987 9.36666 17.7464 9.44911C17.6941 9.53156 17.6104 9.59084 17.5134 9.61419L15.9624 9.9569C15.9349 9.96284 15.9068 9.96532 15.8786 9.96427C15.7859 9.96329 15.6968 9.92968 15.6279 9.86973C15.559 9.80978 15.5151 9.7276 15.5044 9.63859C15.4936 9.54957 15.5168 9.45982 15.5696 9.38614C15.6223 9.31246 15.701 9.25991 15.791 9.23832ZM12.8377 11.1619C13.2398 10.4462 13.6346 8.90397 12.4337 8.41659C12.3886 8.39535 12.3483 8.36571 12.3151 8.32938C12.2818 8.29304 12.2564 8.25072 12.2401 8.20485C12.2238 8.15897 12.2171 8.11044 12.2202 8.06203C12.2234 8.01363 12.2364 7.9663 12.2585 7.92276C12.7322 7.22976 13.8588 8.56638 13.9161 9.02825C14.1867 9.93479 13.7904 10.9519 13.5312 11.4715C14.3862 12.0414 15.0131 12.8778 15.307 13.8409C15.324 13.8867 15.3315 13.9353 15.3291 13.9839C15.3266 14.0325 15.3142 14.0801 15.2927 14.1241C15.2711 14.168 15.2408 14.2075 15.2035 14.2401C15.1661 14.2727 15.1225 14.2978 15.0751 14.3141C15.0277 14.3303 14.9774 14.3373 14.9272 14.3348C14.8769 14.3322 14.8277 14.32 14.7824 14.299C14.737 14.278 14.6964 14.2485 14.6628 14.2123C14.6292 14.176 14.6034 14.1338 14.5868 14.0878C13.5927 11.1973 11.175 11.4695 9.66335 12.3486C9.578 12.3986 9.47579 12.4143 9.37859 12.3924C9.28139 12.3705 9.19689 12.3128 9.14315 12.2314C9.08941 12.1501 9.0707 12.0517 9.09101 11.9572C9.11132 11.8627 9.16904 11.7796 9.25184 11.7257C9.32803 11.6815 11.0924 10.6128 12.8377 11.1619ZM6.01653 8.22862C5.63362 8.19063 4.44461 8.19246 4.62178 7.54692C4.65546 7.45528 4.72523 7.38022 4.81589 7.33811C4.90655 7.296 5.01074 7.29024 5.10577 7.3221C5.36323 7.43748 5.64363 7.49714 5.92739 7.49691C6.21115 7.49668 6.49145 7.43657 6.74871 7.32077C7.00597 7.20498 7.234 7.03628 7.41688 6.82647C7.59976 6.61665 7.73309 6.37077 7.80756 6.10598C7.83918 6.01485 7.90626 5.93921 7.99457 5.8951C8.08289 5.85099 8.1855 5.84187 8.28065 5.86967C8.3758 5.89748 8.45601 5.96003 8.50428 6.04406C8.55255 6.12809 8.56508 6.22699 8.53922 6.3198C8.40176 6.7122 8.18694 7.07511 7.90664 7.38843C7.98948 7.74486 8.19176 8.06484 8.48206 8.29863C8.64635 8.40699 8.83207 8.48126 9.02751 8.51678C9.22295 8.55229 9.42388 8.54828 9.61764 8.505C9.6672 8.49713 9.71788 8.49881 9.76676 8.50994C9.81565 8.52107 9.86177 8.54143 9.9025 8.56985C9.94322 8.59827 9.97773 8.63419 10.0041 8.67555C10.0304 8.71691 10.048 8.76289 10.0559 8.81085C10.071 8.90746 10.0463 9.00595 9.98718 9.08518C9.92805 9.1644 9.83916 9.21806 9.73959 9.23464C9.23138 9.3369 8.70206 9.25776 8.24952 9.01184C7.79698 8.76591 7.45183 8.36985 7.2779 7.89688C6.89804 8.11991 6.46087 8.23488 6.01653 8.22862Z" fill="currentcolor"/>
</g>
<defs>
<clipPath id="clip0_1882_45931">
<rect width="20" height="20" fill="white" transform="translate(0 0.5)"/>
</clipPath>
</defs>
</svg>
