<svg width="16" height="15" viewBox="0 0 16 15" fill="none" xmlns="http://www.w3.org/2000/svg">
<path d="M4.90559 8.13281C4.90554 8.55675 4.76866 8.96935 4.51529 9.30925C4.26192 9.64914 3.9056 9.89817 3.49934 10.0193V13.7578C3.49934 13.907 3.44007 14.0501 3.33458 14.1556C3.22909 14.261 3.08602 14.3203 2.93684 14.3203C2.78765 14.3203 2.64458 14.261 2.53909 14.1556C2.4336 14.0501 2.37434 13.907 2.37434 13.7578V10.0193C1.96819 9.89805 1.61202 9.64897 1.35878 9.30909C1.10554 8.9692 0.96875 8.55667 0.96875 8.13281C0.96875 7.70896 1.10554 7.29642 1.35878 6.95654C1.61202 6.61665 1.96819 6.36757 2.37434 6.24633V1.38281C2.37434 1.23363 2.4336 1.09055 2.53909 0.985065C2.64458 0.879576 2.78765 0.820312 2.93684 0.820312C3.08602 0.820312 3.22909 0.879576 3.33458 0.985065C3.44007 1.09055 3.49934 1.23363 3.49934 1.38281V6.24633C3.9056 6.36745 4.26192 6.61648 4.51529 6.95638C4.76866 7.29627 4.90554 7.70887 4.90559 8.13281ZM8.56184 2.87133V1.38281C8.56184 1.23363 8.50257 1.09055 8.39708 0.985065C8.29159 0.879576 8.14852 0.820313 7.99934 0.820312C7.85015 0.820313 7.70708 0.879576 7.60159 0.985065C7.4961 1.09055 7.43684 1.23363 7.43684 1.38281V2.87133C7.03069 2.99257 6.67452 3.24165 6.42128 3.58154C6.16804 3.92142 6.03125 4.33396 6.03125 4.75781C6.03125 5.18167 6.16804 5.5942 6.42128 5.93409C6.67452 6.27397 7.03069 6.52305 7.43684 6.6443V13.7578C7.43684 13.907 7.4961 14.0501 7.60159 14.1556C7.70708 14.261 7.85015 14.3203 7.99934 14.3203C8.14852 14.3203 8.29159 14.261 8.39708 14.1556C8.50257 14.0501 8.56184 13.907 8.56184 13.7578V6.6443C8.96798 6.52305 9.32415 6.27397 9.57739 5.93409C9.83063 5.5942 9.96742 5.18167 9.96742 4.75781C9.96742 4.33396 9.83063 3.92142 9.57739 3.58154C9.32415 3.24165 8.96798 2.99257 8.56184 2.87133ZM13.6243 8.49633V1.38281C13.6243 1.23363 13.5651 1.09055 13.4596 0.985065C13.3541 0.879576 13.211 0.820313 13.0618 0.820312C12.9127 0.820313 12.7696 0.879576 12.6641 0.985065C12.5586 1.09055 12.4993 1.23363 12.4993 1.38281V8.49633C12.0932 8.61757 11.737 8.86665 11.4838 9.20654C11.2305 9.54642 11.0938 9.95896 11.0938 10.3828C11.0938 10.8067 11.2305 11.2192 11.4838 11.5591C11.737 11.899 12.0932 12.1481 12.4993 12.2693V13.7578C12.4993 13.907 12.5586 14.0501 12.6641 14.1556C12.7696 14.261 12.9127 14.3203 13.0618 14.3203C13.211 14.3203 13.3541 14.261 13.4596 14.1556C13.5651 14.0501 13.6243 13.907 13.6243 13.7578V12.2693C14.0305 12.1481 14.3867 11.899 14.6399 11.5591C14.8931 11.2192 15.0299 10.8067 15.0299 10.3828C15.0299 9.95896 14.8931 9.54642 14.6399 9.20654C14.3867 8.86665 14.0305 8.61757 13.6243 8.49633Z" fill="currentColor"/>
</svg>
