<svg width="20" height="21" viewBox="0 0 20 21" fill="none" xmlns="http://www.w3.org/2000/svg">
<g clip-path="url(#clip0_3478_59878)">
<path d="M6.37578 17.925C6.35078 17.925 6.31745 17.9417 6.29245 17.9417C4.67578 17.1417 3.35911 15.8167 2.55078 14.2C2.55078 14.175 2.56745 14.1417 2.56745 14.1167C3.58411 14.4167 4.63411 14.6417 5.67578 14.8167C5.85911 15.8667 6.07578 16.9084 6.37578 17.925Z" fill="currentColor"/>
<path d="M17.4492 14.2084C16.6242 15.8667 15.2492 17.2084 13.5742 18.0167C13.8909 16.9584 14.1576 15.8917 14.3326 14.8167C15.3826 14.6417 16.4159 14.4167 17.4326 14.1167C17.4242 14.15 17.4492 14.1834 17.4492 14.2084Z" fill="currentColor"/>
<path d="M17.5159 6.92494C16.4659 6.60828 15.4076 6.34994 14.3326 6.16661C14.1576 5.09161 13.8992 4.02494 13.5742 2.98328C15.2992 3.80828 16.6909 5.19994 17.5159 6.92494Z" fill="currentColor"/>
<path d="M6.37409 3.07505C6.07409 4.09172 5.85742 5.12505 5.68242 6.17505C4.60742 6.34172 3.54076 6.60838 2.48242 6.92505C3.29076 5.25005 4.63242 3.87505 6.29076 3.05005C6.31576 3.05005 6.34909 3.07505 6.37409 3.07505Z" fill="currentColor"/>
<path d="M12.9085 5.99163C10.9751 5.77496 9.02513 5.77496 7.0918 5.99163C7.30013 4.84996 7.5668 3.70829 7.9418 2.60829C7.95846 2.54163 7.95013 2.49163 7.95846 2.42496C8.6168 2.26663 9.2918 2.16663 10.0001 2.16663C10.7001 2.16663 11.3835 2.26663 12.0335 2.42496C12.0418 2.49163 12.0418 2.54163 12.0585 2.60829C12.4335 3.71663 12.7001 4.84996 12.9085 5.99163Z" fill="currentColor"/>
<path d="M5.49102 13.4083C4.34102 13.2 3.20768 12.9333 2.10768 12.5583C2.04102 12.5417 1.99102 12.55 1.92435 12.5417C1.76602 11.8833 1.66602 11.2083 1.66602 10.5C1.66602 9.80001 1.76602 9.11667 1.92435 8.46667C1.99102 8.45834 2.04102 8.45834 2.10768 8.44167C3.21602 8.07501 4.34102 7.80001 5.49102 7.59167C5.28268 9.52501 5.28268 11.475 5.49102 13.4083Z" fill="currentColor"/>
<path d="M18.3328 10.5C18.3328 11.2083 18.2328 11.8833 18.0745 12.5417C18.0078 12.55 17.9578 12.5417 17.8911 12.5583C16.7828 12.925 15.6495 13.2 14.5078 13.4083C14.7245 11.475 14.7245 9.52501 14.5078 7.59167C15.6495 7.80001 16.7911 8.06667 17.8911 8.44167C17.9578 8.45834 18.0078 8.46667 18.0745 8.46667C18.2328 9.12501 18.3328 9.80001 18.3328 10.5Z" fill="currentColor"/>
<path d="M12.9085 15.0083C12.7001 16.1583 12.4335 17.2916 12.0585 18.3916C12.0418 18.4583 12.0418 18.5083 12.0335 18.575C11.3835 18.7333 10.7001 18.8333 10.0001 18.8333C9.2918 18.8333 8.6168 18.7333 7.95846 18.575C7.95013 18.5083 7.95846 18.4583 7.9418 18.3916C7.57513 17.2833 7.30013 16.1583 7.0918 15.0083C8.05846 15.1166 9.02513 15.1916 10.0001 15.1916C10.9751 15.1916 11.9501 15.1166 12.9085 15.0083Z" fill="currentColor"/>
<path d="M13.1355 13.6361C11.0512 13.899 8.94749 13.899 6.86324 13.6361C6.60027 11.5518 6.60027 9.4481 6.86324 7.36385C8.94749 7.10088 11.0512 7.10088 13.1355 7.36385C13.3984 9.4481 13.3984 11.5518 13.1355 13.6361Z" fill="currentColor"/>
</g>
<defs>
<clipPath id="clip0_3478_59878">
<rect width="20" height="20" fill="white" transform="translate(0 0.5)"/>
</clipPath>
</defs>
</svg>
