<svg width="20" height="20" viewBox="0 0 20 20" fill="none" xmlns="http://www.w3.org/2000/svg">
<path d="M2.29054 15.5416C1.94887 15.5416 1.66554 15.2583 1.66554 14.9166V10.1666C1.62387 7.90825 2.46554 5.77492 4.03221 4.17492C5.59887 2.58325 7.69887 1.70825 9.9572 1.70825C14.5739 1.70825 18.3322 5.46659 18.3322 10.0833V14.8333C18.3322 15.1749 18.0489 15.4583 17.7072 15.4583C17.3655 15.4583 17.0822 15.1749 17.0822 14.8333V10.0833C17.0822 6.15825 13.8905 2.95825 9.9572 2.95825C8.03221 2.95825 6.24887 3.69992 4.92387 5.04992C3.59054 6.40825 2.88221 8.21659 2.91554 10.1499V14.9083C2.91554 15.2583 2.64054 15.5416 2.29054 15.5416Z" fill="currentColor"/>
<path d="M4.9474 10.375H4.83906C3.08906 10.375 1.66406 11.8 1.66406 13.55V15.1167C1.66406 16.8667 3.08906 18.2917 4.83906 18.2917H4.9474C6.6974 18.2917 8.1224 16.8667 8.1224 15.1167V13.55C8.1224 11.8 6.6974 10.375 4.9474 10.375Z" fill="currentColor"/>
<path d="M15.1583 10.375H15.05C13.3 10.375 11.875 11.8 11.875 13.55V15.1167C11.875 16.8667 13.3 18.2917 15.05 18.2917H15.1583C16.9083 18.2917 18.3333 16.8667 18.3333 15.1167V13.55C18.3333 11.8 16.9083 10.375 15.1583 10.375Z" fill="currentColor"/>
</svg>
