<svg width="20" height="21" viewBox="0 0 20 21" fill="none" xmlns="http://www.w3.org/2000/svg">
<path d="M17.0717 3.42881C13.1664 -0.476054 6.83455 -0.476489 2.92881 3.42881C-0.976489 7.33412 -0.976054 13.666 2.92881 17.5717C6.83412 21.4762 13.166 21.4766 17.0717 17.5717C20.9766 13.666 20.9762 7.33455 17.0717 3.42881ZM11.3042 14.8482C11.3042 15.1941 11.1668 15.5259 10.9222 15.7705C10.6776 16.0151 10.3458 16.1526 9.99984 16.1526C9.6539 16.1526 9.32212 16.0151 9.0775 15.7705C8.83289 15.5259 8.69546 15.1941 8.69546 14.8482V9.63069C8.69546 9.28475 8.83289 8.95297 9.0775 8.70835C9.32212 8.46374 9.6539 8.32631 9.99984 8.32631C10.3458 8.32631 10.6776 8.46374 10.9222 8.70835C11.1668 8.95297 11.3042 9.28475 11.3042 9.63069V14.8482ZM9.97679 7.40107C9.22547 7.40107 8.72459 6.86889 8.74024 6.21192C8.72459 5.52321 9.22547 5.00711 9.99201 5.00711C10.759 5.00711 11.2442 5.52364 11.2603 6.21192C11.2599 6.86889 10.7594 7.40107 9.97679 7.40107Z" fill="currentColor"/>
</svg>
