<svg width="25" height="25" viewBox="0 0 25 25" fill="none" xmlns="http://www.w3.org/2000/svg">
<path d="M24.439 7.55609C24.3828 6.28087 24.1765 5.40417 23.881 4.6445C23.5762 3.83813 23.1073 3.11618 22.4929 2.51602C21.8927 1.90653 21.1658 1.43292 20.3686 1.13294C19.6044 0.83753 18.7321 0.631313 17.4567 0.575088C16.1717 0.514102 15.7638 0.5 12.5047 0.5C9.24559 0.5 8.83766 0.514102 7.55743 0.570326C6.28197 0.626551 5.40511 0.832952 4.64547 1.12818C3.83876 1.43292 3.11668 1.90177 2.51641 2.51602C1.9068 3.11618 1.43329 3.84289 1.13306 4.63992C0.837595 5.40417 0.631338 6.27611 0.575102 7.55133C0.514105 8.83607 0.5 9.24392 0.5 12.5024C0.5 15.7608 0.514105 16.1687 0.57034 17.4487C0.626575 18.7239 0.833015 19.6006 1.12848 20.3603C1.43329 21.1666 1.9068 21.8886 2.51641 22.4887C3.11668 23.0982 3.84353 23.5718 4.64071 23.8718C5.40511 24.1672 6.27721 24.3734 7.55285 24.4297C8.83289 24.4861 9.24101 24.5 12.5001 24.5C15.7592 24.5 16.1671 24.4861 17.4473 24.4297C18.7228 24.3734 19.5997 24.1672 20.3593 23.8718C21.9725 23.2482 23.248 21.973 23.8717 20.3603C24.167 19.596 24.3734 18.7239 24.4297 17.4487C24.4859 16.1687 24.5 15.7608 24.5 12.5024C24.5 9.24392 24.4952 8.83607 24.439 7.55609ZM22.2773 17.3549C22.2257 18.527 22.0288 19.16 21.8646 19.5819C21.4613 20.6275 20.6313 21.4573 19.5856 21.8606C19.1635 22.0247 18.5259 22.2215 17.3581 22.273C16.092 22.3294 15.7123 22.3433 12.5094 22.3433C9.30659 22.3433 8.9221 22.3294 7.66056 22.273C6.48823 22.2215 5.85517 22.0247 5.43313 21.8606C4.91273 21.6683 4.43903 21.3635 4.05454 20.965C3.65595 20.5758 3.35115 20.107 3.15881 19.5867C2.99468 19.1647 2.79777 18.527 2.7463 17.3597C2.68988 16.0938 2.67596 15.714 2.67596 12.5117C2.67596 9.30949 2.68988 8.92507 2.7463 7.66396C2.79777 6.49185 2.99468 5.85891 3.15881 5.43695C3.35115 4.91646 3.65595 4.44304 4.05931 4.05845C4.44837 3.65993 4.91731 3.35518 5.4379 3.16306C5.85993 2.99897 6.49776 2.80209 7.66532 2.75045C8.93144 2.69422 9.31135 2.68012 12.514 2.68012C15.7216 2.68012 16.1013 2.69422 17.3629 2.75045C18.5352 2.80209 19.1683 2.99897 19.5903 3.16306C20.1107 3.35518 20.5844 3.65993 20.9689 4.05845C21.3675 4.44762 21.6723 4.91646 21.8646 5.43695C22.0288 5.85891 22.2257 6.49643 22.2773 7.66396C22.3336 8.92983 22.3477 9.30949 22.3477 12.5117C22.3477 15.714 22.3336 16.089 22.2773 17.3549Z" fill="currentColor"/>
<path d="M12.5047 6.3371C9.10033 6.3371 6.33821 9.09851 6.33821 12.5024C6.33821 15.9063 9.10033 18.6677 12.5047 18.6677C15.9092 18.6677 18.6711 15.9063 18.6711 12.5024C18.6711 9.09851 15.9092 6.3371 12.5047 6.3371ZM12.5047 16.5016C10.2961 16.5016 8.50464 14.7107 8.50464 12.5024C8.50464 10.2941 10.2961 8.50311 12.5047 8.50311C14.7134 8.50311 16.5047 10.2941 16.5047 12.5024C16.5047 14.7107 14.7134 16.5016 12.5047 16.5016Z" fill="currentColor"/>
<path d="M20.3547 6.09333C20.3547 6.88817 19.7101 7.53265 18.9149 7.53265C18.12 7.53265 17.4754 6.88817 17.4754 6.09333C17.4754 5.29832 18.12 4.65402 18.9149 4.65402C19.7101 4.65402 20.3547 5.29832 20.3547 6.09333Z" fill="currentColor"/>
</svg>
