<svg width="41" height="40" viewBox="0 0 41 40" fill="none" xmlns="http://www.w3.org/2000/svg">
<rect x="0.5" width="40" height="40" rx="8" fill="#BAD4B7"/>
<path d="M26.9912 13.5166C24.5246 11.0583 20.5246 11.0583 18.0746 13.5166C16.3496 15.2249 15.8329 17.6833 16.4996 19.8499L12.5829 23.7666C12.3079 24.0499 12.1162 24.6083 12.1746 25.0083L12.4246 26.8249C12.5162 27.4249 13.0746 27.9916 13.6746 28.0749L15.4912 28.3249C15.8912 28.3833 16.4496 28.1999 16.7329 27.9083L17.4162 27.2249C17.5829 27.0666 17.5829 26.7999 17.4162 26.6333L15.7996 25.0166C15.5579 24.7749 15.5579 24.3749 15.7996 24.1333C16.0412 23.8916 16.4412 23.8916 16.6829 24.1333L18.3079 25.7583C18.4662 25.9166 18.7329 25.9166 18.8912 25.7583L20.6579 23.9999C22.8162 24.6749 25.2746 24.1499 26.9912 22.4416C29.4496 19.9833 29.4496 15.9749 26.9912 13.5166ZM22.5829 19.9999C21.4329 19.9999 20.4996 19.0666 20.4996 17.9166C20.4996 16.7666 21.4329 15.8333 22.5829 15.8333C23.7329 15.8333 24.6662 16.7666 24.6662 17.9166C24.6662 19.0666 23.7329 19.9999 22.5829 19.9999Z" fill="#43573C"/>
</svg>
