<svg width="20" height="15" viewBox="0 0 20 15" fill="none" xmlns="http://www.w3.org/2000/svg">
<path d="M6.23438 8.48309C6.77645 8.48309 7.21746 8.04207 7.21746 7.5C7.21746 6.95793 6.77645 6.51691 6.23438 6.51691C5.6923 6.51691 5.25133 6.95793 5.25133 7.5C5.25133 8.04207 5.6923 8.48309 6.23438 8.48309Z" fill="currentColor"/>
<path d="M6.23438 9.65496C5.37742 9.65496 4.64953 10.2179 4.40105 10.9935H8.06766C7.81922 10.2179 7.09129 9.65496 6.23438 9.65496Z" fill="currentColor"/>
<path d="M18.1588 0.324219H1.84117C0.812383 0.324219 0 1.15977 0 2.16539V12.8346C0 13.8634 0.835547 14.6758 1.84117 14.6758H18.1588C19.1876 14.6758 20 13.8402 20 12.8346V2.16539C20 1.13656 19.1645 0.324219 18.1588 0.324219ZM8.74477 12.1654H3.72395C3.40035 12.1654 3.13801 11.903 3.13801 11.5795C3.13801 10.4601 3.73504 9.4777 4.62734 8.93371C4.28691 8.5525 4.07945 8.05012 4.07945 7.50004C4.07945 6.3118 5.04613 5.34508 6.23438 5.34508C7.42262 5.34508 8.38934 6.3118 8.38934 7.50004C8.38934 8.05016 8.18188 8.55254 7.84141 8.93375C8.73371 9.47773 9.33074 10.4602 9.33074 11.5795C9.3307 11.903 9.06836 12.1654 8.74477 12.1654ZM15.0208 12.1654H11.8828C11.5592 12.1654 11.2969 11.903 11.2969 11.5795C11.2969 11.2559 11.5592 10.9935 11.8828 10.9935H15.0208C15.3444 10.9935 15.6068 11.2559 15.6068 11.5795C15.6068 11.903 15.3444 12.1654 15.0208 12.1654ZM16.2761 9.65496H11.8828C11.5592 9.65496 11.2969 9.39262 11.2969 9.06902C11.2969 8.74543 11.5592 8.48309 11.8828 8.48309H16.2761C16.5996 8.48309 16.862 8.74543 16.862 9.06902C16.862 9.39262 16.5996 9.65496 16.2761 9.65496ZM16.2761 7.14453H11.8828C11.5592 7.14453 11.2969 6.88219 11.2969 6.55859C11.2969 6.235 11.5592 5.97266 11.8828 5.97266H16.2761C16.5996 5.97266 16.862 6.235 16.862 6.55859C16.862 6.88219 16.5996 7.14453 16.2761 7.14453ZM16.2761 4.00648H3.72395C3.40035 4.00648 3.13801 3.74414 3.13801 3.42055C3.13801 3.09695 3.40035 2.83461 3.72395 2.83461H16.2761C16.5996 2.83461 16.862 3.09695 16.862 3.42055C16.862 3.74414 16.5996 4.00648 16.2761 4.00648Z" fill="currentColor"/>
</svg>
