<svg width="432" height="366" viewBox="0 0 432 366" fill="none" xmlns="http://www.w3.org/2000/svg">
<path d="M-189.812 345.743C-148.543 309.588 -70.7794 263.957 11.6714 215.575C151.604 133.462 305.044 43.4228 316.303 -21.5058C323.136 -60.9043 277.506 -91.0955 144.505 -104.708L144.49 -104.71L144.478 -104.712C99.8963 -116.1 88.2507 -138.752 97.4309 -167.991C115.597 -225.848 215.54 -309.491 302.881 -382.589C342.282 -415.563 379.118 -446.392 404.711 -471.725L404.968 -471.451C379.358 -446.102 342.517 -415.269 303.111 -382.289C215.814 -309.23 115.923 -225.63 97.7969 -167.897C88.6918 -138.897 100.279 -116.421 144.589 -105.099C277.854 -91.4578 323.556 -61.1041 316.682 -21.466C305.388 43.6605 151.857 133.753 11.8423 215.914C-70.5902 264.285 -148.337 309.907 -189.575 346.035L-189.812 345.743ZM-195.112 341.889C-154.413 306.232 -79.2235 261.41 0.512792 213.877C137.572 132.173 288.073 42.4547 299.754 -22.3348C306.769 -61.2427 263.613 -91.1965 137.188 -105.073L137.173 -105.074L137.159 -105.079C89.2286 -118.616 77.3396 -143.29 87.8392 -174.316C107.463 -232.303 205.498 -312.456 292.341 -383.459C333.857 -417.403 372.815 -449.254 399.41 -475.58L399.667 -475.307C373.056 -448.965 334.091 -417.108 292.568 -383.157C205.769 -312.192 107.786 -232.08 88.2021 -174.214C77.7829 -143.426 89.618 -118.929 137.274 -105.465C263.962 -91.5574 307.191 -61.44 300.133 -22.2939C288.417 42.692 137.826 132.463 0.685852 214.216C-79.0343 261.739 -154.208 306.553 -194.875 342.18L-195.112 341.889ZM-200.412 338.034C-160.308 302.9 -87.7145 258.912 -10.7142 212.253C123.481 130.937 271.069 41.5072 283.218 -23.1695C290.435 -61.5862 249.756 -91.303 129.87 -105.438L129.852 -105.439L129.839 -105.444C78.5687 -121.196 66.4431 -147.835 78.2387 -180.53C99.1803 -238.577 195.706 -315.687 282.184 -384.77C325.669 -419.507 366.611 -452.214 394.11 -479.434L394.367 -479.161C366.852 -451.925 325.9 -419.21 282.406 -384.465C195.974 -315.418 99.4996 -238.349 78.5996 -180.419C66.8895 -147.96 78.9654 -121.5 129.964 -105.828C250.109 -91.6605 290.858 -61.7797 283.596 -23.1244C271.412 41.7417 123.737 131.226 -10.5388 212.589C-87.5212 259.236 -160.097 303.214 -200.175 338.326L-200.412 338.034ZM-205.713 334.179C-166.228 299.587 -96.2574 256.464 -22.0222 210.713C109.321 129.766 254.024 40.5846 266.695 -24.0053C274.137 -61.9336 235.942 -91.413 122.552 -105.803L122.536 -105.805L122.519 -105.81C67.9208 -123.83 55.5609 -152.373 68.6203 -186.624C90.7567 -244.683 186.096 -319.111 272.331 -386.432C317.667 -421.825 360.486 -455.253 388.81 -483.289L389.067 -483.016C360.725 -454.962 317.895 -421.526 272.548 -386.125C186.359 -318.84 91.0704 -244.45 68.9777 -186.506C56.0074 -152.489 68.3219 -124.128 122.647 -106.193C236.297 -91.7677 274.561 -62.1238 267.072 -23.9568C254.364 40.8178 109.576 130.052 -21.8445 211.047C-96.0624 256.788 -166.017 299.901 -205.476 334.471L-205.713 334.179ZM-211.013 330.324C-172.178 296.302 -104.862 254.079 -33.4238 209.27C95.0785 128.668 236.928 39.6946 250.185 -24.8373C257.878 -62.2814 222.175 -91.526 115.235 -106.168L115.218 -106.17L115.201 -106.176C57.29 -126.51 44.6918 -156.895 58.9786 -192.597C82.2027 -250.635 176.622 -322.681 262.723 -388.381C309.818 -424.316 354.424 -458.353 383.51 -487.144L383.767 -486.871C354.662 -458.061 310.044 -424.016 262.937 -388.07C176.882 -322.405 82.5119 -250.396 59.3333 -192.472C45.1399 -157.003 57.6964 -126.801 115.334 -106.558C222.532 -91.8773 258.303 -62.4676 250.562 -24.7859C237.268 39.9279 95.3351 128.954 -33.2425 209.602C-104.665 254.401 -171.966 296.615 -210.776 330.616L-211.013 330.324ZM-216.313 326.47C-178.163 293.047 -113.538 251.765 -44.9343 207.941C80.7389 127.662 219.769 38.85 233.689 -25.6616C241.665 -62.6271 208.462 -91.6429 107.917 -106.533L107.898 -106.536L107.882 -106.542C46.6789 -129.228 33.8349 -161.397 49.3085 -198.45C73.5272 -256.443 167.25 -326.359 253.32 -390.566C302.095 -426.952 348.413 -461.504 378.21 -490.999L378.466 -490.726C348.652 -461.213 302.32 -426.651 253.53 -390.253C167.506 -326.081 73.8334 -256.202 49.6612 -198.32C34.2835 -161.497 47.089 -129.512 108.022 -106.921C208.822 -91.9891 242.091 -62.8085 234.064 -25.6055C220.106 39.0841 80.9958 127.947 -44.7499 208.272C-113.339 252.087 -177.952 293.361 -216.076 326.761L-216.313 326.47ZM-221.614 322.615C-184.191 289.83 -122.299 249.536 -56.5757 206.748C66.2794 126.767 202.529 38.0652 217.202 -26.4668C225.5 -62.967 194.809 -91.7608 100.599 -106.898L100.579 -106.902L100.563 -106.908C36.0874 -131.978 22.9875 -165.873 39.6075 -204.187C64.7396 -262.125 157.954 -330.122 244.083 -392.949C294.477 -429.709 342.445 -464.699 372.909 -494.854L373.166 -494.581C342.682 -464.406 294.699 -429.405 244.29 -392.634C158.206 -329.839 65.0416 -261.879 39.9565 -204.051C23.4366 -165.967 36.5019 -132.255 100.708 -107.286C195.173 -92.1031 225.928 -63.1436 217.576 -26.4069C202.865 38.2981 66.5368 127.051 -56.3883 207.078C-122.099 249.858 -183.98 290.143 -221.377 322.906L-221.614 322.615ZM-226.914 318.76C-190.272 286.659 -131.163 247.411 -68.3712 205.719C51.6758 126.01 185.188 37.361 200.723 -27.2397C209.393 -63.2913 181.228 -91.8772 93.2807 -107.263L93.2631 -107.266L93.2443 -107.274C25.5187 -134.753 12.1503 -170.32 29.8752 -209.814C55.8498 -267.69 148.719 -333.947 234.992 -395.499C286.95 -432.568 336.515 -467.93 367.609 -498.708L367.866 -498.435C336.749 -467.633 287.168 -432.26 235.194 -395.179C148.968 -333.662 56.1487 -267.44 30.2222 -209.672C12.6003 -170.407 25.9372 -135.024 93.3935 -107.65C181.596 -92.2157 209.824 -63.4623 201.097 -27.1744C185.521 37.5929 51.9347 126.292 -68.1794 206.046C-130.959 247.73 -190.057 286.97 -226.677 319.052L-226.914 318.76ZM-232.214 314.905C-196.414 283.54 -140.149 245.409 -80.3553 204.886C36.8928 125.424 167.713 36.7643 184.247 -27.9609C193.349 -63.5913 167.729 -91.9903 85.9616 -107.629L85.9409 -107.633L85.9259 -107.64C14.9708 -137.549 1.32024 -174.74 20.1078 -215.336C46.8651 -273.151 139.528 -337.825 226.02 -398.191C279.497 -435.515 330.615 -471.192 362.308 -502.564L362.565 -502.29C330.846 -470.893 279.712 -435.205 226.218 -397.869C139.774 -337.537 47.161 -272.897 20.4533 -215.189C1.77046 -174.82 15.3931 -137.814 86.0833 -108.013C168.102 -92.3219 193.781 -63.7558 184.618 -27.8901C168.043 36.9964 37.1516 125.705 -80.1607 205.21C-139.943 245.727 -196.199 283.851 -231.977 315.197L-232.214 314.905ZM-237.514 311.05C-202.631 280.489 -149.286 243.558 -92.5708 204.294C21.8823 125.057 150.063 36.3163 167.764 -28.6006C177.375 -63.8501 154.328 -92.0945 78.6432 -107.994L78.626 -107.998L78.6084 -108.006C4.4468 -140.363 -9.50191 -179.129 10.3086 -220.759C37.7951 -278.518 130.373 -341.741 217.151 -401.004C272.109 -438.535 324.74 -474.478 357.008 -506.418L357.265 -506.145C324.972 -474.18 272.323 -438.224 217.346 -400.68C130.616 -341.451 38.0873 -278.261 10.6517 -220.608C-9.0522 -179.203 4.87154 -140.625 78.7668 -108.378C154.705 -92.4217 177.809 -64.0071 168.134 -28.5224C150.391 36.5489 22.1414 125.337 -92.3732 204.616C-149.079 243.875 -202.417 280.801 -237.278 311.342L-237.514 311.05ZM-242.815 307.196C-208.945 277.522 -158.611 241.896 -105.075 204.003C6.5804 124.973 132.175 36.0755 151.256 -29.1127C161.479 -64.0422 141.042 -92.1821 71.3231 -108.36L71.3062 -108.364L71.2913 -108.37C-6.05609 -143.192 -20.3182 -183.488 0.476117 -226.089C28.6462 -283.802 121.246 -345.692 208.373 -403.924C264.779 -441.623 318.89 -477.788 351.708 -510.273L351.965 -509.999C319.119 -477.487 264.989 -441.309 208.565 -403.597C121.486 -345.397 28.9362 -283.541 0.818031 -225.935C-19.8672 -183.556 -5.62849 -143.447 71.4551 -108.741C141.425 -92.5007 161.916 -64.1901 151.623 -29.0253C132.5 36.3093 6.84008 125.252 -104.873 204.324C-158.403 242.211 -208.729 277.833 -242.578 307.487L-242.815 307.196ZM-248.115 303.341C-215.382 274.664 -168.178 240.475 -117.947 204.094C-9.10634 125.264 113.957 36.1323 134.694 -29.4252C145.67 -64.1287 127.899 -92.2402 64.0034 -108.725L63.9906 -108.729L63.9736 -108.736C-16.5371 -146.032 -31.1279 -187.818 -9.38754 -231.336C19.425 -289.009 112.14 -349.668 199.672 -406.935C257.497 -444.766 313.058 -481.117 346.408 -514.128L346.665 -513.854C313.286 -480.814 257.705 -444.452 199.861 -406.607C112.377 -349.37 19.7117 -288.745 -9.04784 -231.177C-30.6774 -187.882 -16.1079 -146.284 64.1397 -109.106C128.287 -92.5525 146.11 -64.2679 135.059 -29.3297C114.279 36.3648 -8.84557 125.541 -117.741 204.411C-167.965 240.786 -215.161 274.969 -247.878 303.633L-248.115 303.341ZM-253.416 299.486C-221.976 271.942 -178.056 239.364 -131.297 204.68C-25.3095 126.061 95.2709 36.6196 118.023 -29.4241C129.951 -64.0461 114.928 -92.2486 56.6823 -109.092L56.6655 -109.097L56.6557 -109.102C-27.0002 -148.88 -41.9348 -192.12 -19.283 -236.503C10.1375 -294.149 103.051 -353.666 191.039 -410.028C250.257 -447.96 307.245 -484.464 341.107 -517.983L341.364 -517.709C307.469 -484.159 250.462 -447.642 191.224 -409.696C103.284 -353.366 10.422 -293.881 -18.9443 -236.342C-41.4839 -192.18 -26.5672 -149.126 56.8312 -109.467C115.323 -92.5477 130.391 -64.1717 118.384 -29.3189C95.5876 36.8537 -25.0496 126.338 -131.087 204.993C-177.839 239.672 -221.753 272.246 -253.179 299.777L-253.416 299.486ZM-258.716 295.631C-228.781 269.405 -188.347 238.663 -145.283 205.921C-42.2344 127.571 75.8863 37.7607 101.146 -28.9174C114.317 -63.685 102.18 -92.1707 49.36 -109.458L49.3498 -109.462L49.3388 -109.468C-37.4417 -151.738 -52.7357 -196.395 -29.2065 -241.598C0.791424 -299.227 93.9768 -357.682 182.468 -413.191C243.057 -451.199 301.445 -487.825 335.807 -521.838L336.064 -521.564C301.67 -487.519 243.26 -450.879 182.649 -412.858C94.2072 -357.38 1.07286 -298.957 -28.8698 -241.433C-52.2851 -196.451 -37.0067 -151.979 49.5156 -109.832C102.583 -92.4589 114.761 -63.7965 101.503 -28.7994C76.1994 37.9965 -41.9743 127.846 -145.07 206.232C-188.128 238.97 -228.557 269.709 -258.479 295.923L-258.716 295.631ZM-264.016 291.776C-235.879 267.125 -199.211 238.527 -160.149 208.062C-60.2074 130.114 55.4213 39.9324 83.8663 -27.5602C98.741 -62.8528 89.7244 -91.9441 42.0375 -109.825L42.0372 -109.826L42.0213 -109.833C-47.8647 -154.599 -63.533 -200.645 -39.1584 -246.624C-8.61007 -304.251 84.9124 -361.712 173.949 -416.418C235.89 -454.476 295.66 -491.199 330.507 -525.692L330.764 -525.419C295.883 -490.892 236.091 -454.155 174.127 -416.083C85.1395 -361.408 -8.33194 -303.978 -38.8234 -246.459C-63.082 -200.698 -47.4284 -154.839 42.1973 -110.198C90.1364 -92.2207 99.1905 -62.9489 84.2189 -27.427C55.7301 40.169 -59.9473 130.39 -159.932 208.37C-198.99 238.832 -235.654 267.428 -263.779 292.068L-264.016 291.776ZM-269.316 287.921C-243.399 265.216 -210.896 239.198 -176.277 211.484C-79.7818 134.239 33.1723 43.8182 65.7766 -24.6965C83.138 -61.1778 77.6751 -91.449 34.7135 -110.194L34.7044 -110.198C-58.2705 -157.465 -74.327 -204.871 -49.137 -251.591C-18.0637 -309.224 75.8554 -365.756 165.477 -419.701C228.752 -457.788 289.886 -494.585 325.206 -529.547L325.463 -529.274C290.108 -494.277 228.952 -457.466 165.652 -419.365C76.081 -365.45 -17.7854 -308.95 -48.8026 -251.421C-73.8766 -204.916 -57.8299 -157.698 34.8973 -110.555C78.099 -91.7018 83.5865 -61.2492 66.1197 -24.546C33.4717 44.0604 -79.5234 134.514 -176.054 211.787C-210.669 239.497 -243.167 265.512 -269.08 288.213L-269.316 287.921ZM-274.617 284.067C-251.555 263.863 -223.822 241.072 -194.314 216.823C-101.99 140.952 7.71282 50.8 45.9085 -18.9338C67.2341 -57.8682 66.2361 -90.4317 27.387 -110.564C-68.6585 -160.335 -85.1174 -209.073 -59.1405 -256.501C-27.5604 -314.156 66.8062 -369.812 157.047 -423.035C221.643 -461.133 284.124 -497.983 319.906 -533.402L320.163 -533.128C284.344 -497.672 221.838 -460.808 157.219 -422.696C67.0279 -369.503 -27.2863 -313.877 -58.8081 -256.327C-84.6676 -209.115 -68.2173 -160.564 27.5828 -110.92C66.6726 -90.6626 67.6849 -57.9126 46.2404 -18.761C8.00424 51.0479 -101.734 141.229 -194.087 217.124C-223.594 241.372 -251.328 264.162 -274.38 284.359L-274.617 284.067ZM-163.31 365.018C-119.441 326.584 -29.0668 277.197 66.6844 224.87C221.123 140.472 389.559 48.4257 399.221 -17.4784C405.158 -57.9732 351.037 -88.6398 196.658 -101.655C339.024 -87.9987 388.974 -57.7771 382.997 -18.2351C373.037 47.6531 207.538 139.306 55.9277 223.268C-37.1715 274.827 -125.032 323.483 -168.374 361.454L-168.61 361.163C-125.234 323.161 -37.3544 274.493 55.7652 222.924C207.286 139.012 372.689 47.4119 382.617 -18.2655C388.715 -58.609 336.019 -89.2109 185.186 -102.302C324.031 -88.5696 372.548 -58.4162 366.401 -19.0296C356.153 46.6442 193.673 137.87 44.9745 221.359C-45.4823 272.147 -130.837 320.071 -173.674 357.6L-173.911 357.308C-131.038 319.748 -45.6647 271.814 44.8102 221.016C193.422 137.575 355.805 46.4026 366.022 -19.0616C372.3 -59.2879 321.013 -89.8487 173.537 -103.001C309.036 -89.2051 356.153 -59.0961 349.818 -19.8338C339.252 45.6396 179.775 136.462 33.9791 219.493C-53.8184 269.494 -136.654 316.668 -178.974 353.745L-179.211 353.453C-136.859 316.348 -54.0051 269.163 33.8128 219.151C179.522 136.17 338.905 45.401 349.437 -19.8676C355.905 -59.9473 306.115 -90.4481 162.342 -103.683C294.169 -89.8036 339.781 -59.7575 333.244 -20.6472C322.331 44.6453 165.838 135.088 22.9374 217.676C-62.1867 266.873 -142.486 313.281 -184.274 349.89L-184.511 349.599C-142.692 312.961 -62.3741 266.543 22.7689 217.335C165.585 134.797 321.986 44.4062 332.864 -20.6824C339.531 -60.5709 291.433 -90.9974 151.823 -104.343L151.806 -104.344L151.799 -104.346C110.564 -113.661 99.1763 -134.235 107.023 -161.567C123.571 -219.201 225.925 -306.895 313.909 -382.276C351.003 -414.056 385.541 -443.647 410.011 -467.87L410.268 -467.597C385.793 -443.37 351.245 -413.77 314.141 -381.981C226.204 -306.64 123.905 -218.993 107.393 -161.483C99.6157 -134.392 110.94 -113.991 151.905 -104.735C154.2 -104.515 156.47 -104.291 158.712 -104.062C121.144 -111.447 110.139 -129.855 116.631 -155.068C131.381 -212.363 236.797 -304.825 325.573 -382.692C360.114 -412.989 392.136 -441.075 415.311 -464.016L415.568 -463.742C392.388 -440.797 360.359 -412.703 325.809 -382.399C237.081 -304.574 131.721 -212.161 117.004 -154.996C110.551 -129.934 121.587 -111.652 159.215 -104.371C161.231 -104.191 163.223 -104.006 165.2 -103.819C131.599 -109.464 121.129 -125.643 126.268 -148.525C139.025 -205.338 248.38 -303.526 338.097 -384.081C369.75 -412.501 398.958 -438.726 420.612 -460.16L420.869 -459.887C399.211 -438.449 369.997 -412.219 338.338 -383.793C248.667 -303.279 139.369 -205.142 126.642 -148.465C121.496 -125.548 132.207 -109.418 166.523 -104.007C167.975 -103.885 169.401 -103.758 170.835 -103.634C141.796 -107.848 132.144 -121.733 135.949 -141.986C146.499 -198.151 261.033 -303.394 351.823 -386.82C380.116 -412.819 406.105 -436.7 425.912 -456.306L426.169 -456.032C406.351 -436.415 380.363 -412.535 352.068 -386.536C261.325 -303.153 146.85 -197.964 136.327 -141.942C132.444 -121.267 142.788 -107.302 173.839 -103.642L173.84 -103.642C174.107 -103.621 174.367 -103.598 174.634 -103.577C151.444 -106.928 143.186 -118.418 145.692 -135.514C153.807 -190.862 275.393 -305.131 367.313 -391.522C391.547 -414.298 413.718 -435.135 431.212 -452.451L431.469 -452.178C413.99 -434.875 391.808 -414.028 367.562 -391.24C275.689 -304.895 154.167 -190.685 146.073 -135.485C143.382 -117.136 153.303 -105.326 181.148 -103.278C347.747 -91.0217 405.769 -59.518 399.602 -17.4493C389.907 48.668 221.373 140.769 66.8431 225.216C-28.8863 277.531 -119.24 326.908 -163.073 365.309L-163.31 365.018Z" fill="currentColor" fill-opacity="0.3"/>
</svg>
