<svg width="207" height="179" viewBox="0 0 207 179" fill="none" xmlns="http://www.w3.org/2000/svg">
<path d="M-33.2112 170.828C-16.9367 155.192 14.1546 134.974 47.12 113.537C103.068 77.1541 164.416 37.2597 167.816 10.368C169.88 -5.94982 150.56 -17.4938 95.6532 -20.5756L95.6471 -20.5761L95.6422 -20.5769C77.1084 -24.4143 71.8956 -33.502 75.1156 -45.6898C81.4873 -69.8061 120.974 -106.062 155.483 -137.747C171.05 -152.04 185.604 -165.404 195.641 -176.296L195.752 -176.189C185.708 -165.289 171.152 -151.924 155.583 -137.628C121.092 -105.96 81.6257 -69.7227 75.2678 -45.658C72.0741 -33.5699 77.2596 -24.5534 95.6805 -20.738C150.696 -17.6492 170.049 -6.03985 167.973 10.3772C164.562 37.3509 103.177 77.2689 47.1967 113.673C14.2386 135.105 -16.8461 155.319 -33.1083 170.943L-33.2112 170.828ZM-35.4619 169.344C-19.4119 153.924 10.6369 134.087 42.5029 113.05C97.2775 76.8895 157.424 37.1824 161 10.3399C163.148 -5.77979 144.85 -17.2729 92.6397 -20.5873L92.6337 -20.5877L92.6276 -20.5893C72.6776 -25.2466 67.3265 -35.1607 71.0549 -48.1076C78.0233 -72.3048 116.792 -107.091 151.135 -137.906C167.553 -152.637 182.96 -166.461 193.39 -177.78L193.501 -177.673C183.064 -166.346 167.655 -152.52 151.234 -137.786C116.909 -106.987 78.1601 -72.2194 71.206 -48.0722C67.5061 -35.2247 72.8317 -25.3825 92.6678 -20.75C144.986 -17.4278 163.318 -5.86884 161.157 10.3495C157.57 37.2734 97.3876 77.0038 42.5804 113.186C10.7208 134.218 -19.3219 154.052 -35.3591 169.459L-35.4619 169.344ZM-37.7124 167.86C-21.8973 152.666 7.10075 133.221 37.8591 112.595C91.4643 76.6479 150.419 37.1142 154.19 10.3091C156.43 -5.61253 139.154 -17.055 89.626 -20.599L89.6187 -20.5995L89.6132 -20.6011C68.2488 -26.1053 62.7633 -36.8223 66.9927 -50.4795C74.5015 -74.7263 112.708 -108.234 146.937 -138.253C164.149 -153.347 180.355 -167.56 191.14 -179.264L191.251 -179.156C180.459 -167.445 164.249 -153.229 147.034 -138.132C112.823 -108.128 74.637 -74.6389 67.1431 -50.4406C62.9444 -36.8822 68.406 -26.2379 89.6571 -20.7614C139.292 -17.2085 156.6 -5.70002 154.346 10.3205C150.565 37.2041 91.5747 76.7616 37.9375 112.729C7.18629 133.35 -21.8048 152.791 -37.6097 167.975L-37.7124 167.86ZM-39.9633 166.376C-24.3923 151.417 3.54424 132.376 33.1835 112.175C85.6236 76.4338 143.398 37.0569 147.385 10.2777C149.727 -5.44748 133.476 -16.8393 86.6123 -20.6112L86.6056 -20.6116L86.5986 -20.6134C63.8238 -26.9867 58.2062 -38.4814 62.9255 -52.802C70.925 -77.0762 108.695 -109.459 142.857 -138.75C160.817 -154.149 177.78 -168.693 188.889 -180.748L189 -180.64C177.884 -168.578 160.917 -154.03 142.952 -138.627C108.808 -109.352 71.0583 -76.9864 63.0745 -52.7601C58.3874 -38.5376 63.983 -27.1166 86.6438 -20.7732C133.615 -16.9918 149.897 -5.53366 147.541 10.2905C143.542 37.1463 85.734 76.5467 33.2629 112.309C3.6305 132.506 -24.2997 151.542 -39.8604 166.491L-39.9633 166.376ZM-42.214 164.892C-26.8992 150.179 -0.0365949 131.558 28.4714 111.798C79.7508 76.2516 136.356 37.0141 140.585 10.2476C143.039 -5.2834 127.817 -16.6258 83.5988 -20.6229L83.5916 -20.6232L83.5845 -20.6255C59.405 -27.8872 53.6546 -40.1345 58.8509 -55.074C67.2978 -79.3603 104.734 -110.747 138.872 -139.369C157.545 -155.024 175.231 -169.852 186.638 -182.232L186.749 -182.124C175.334 -169.737 157.644 -154.905 138.966 -139.245C104.846 -110.639 67.4293 -79.268 58.999 -55.0295C53.8367 -40.1874 59.5665 -28.0143 83.6321 -20.7849C127.957 -16.7769 143.211 -5.36795 140.741 10.2616C136.501 37.1035 79.8617 76.3643 28.5521 111.931C0.0505888 131.687 -26.8061 150.304 -42.1113 165.007L-42.214 164.892ZM-44.4644 163.408C-29.42 148.955 -3.64507 130.772 23.7166 111.469C73.8397 76.1093 129.29 36.991 133.791 10.2204C136.371 -5.11931 122.18 -16.4149 80.585 -20.6347L80.5771 -20.6355L80.5703 -20.6376C54.9936 -28.8034 49.1085 -41.7793 54.767 -57.2965C63.6233 -81.5833 100.814 -112.081 134.967 -140.089C154.322 -155.961 172.701 -171.033 184.388 -183.715L184.499 -183.608C172.805 -170.918 154.42 -155.842 135.06 -139.965C100.924 -111.972 63.7537 -81.4897 54.9143 -57.2497C49.291 -41.8288 55.1567 -28.9279 80.6208 -20.7958C122.321 -16.5639 136.542 -5.20188 133.947 10.2364C129.433 37.0809 73.9507 76.2214 23.7986 111.602C-3.55722 130.9 -29.3271 149.08 -44.3618 163.524L-44.4644 163.408ZM-46.7154 161.924C-31.9577 147.746 -7.2871 130.021 18.9107 111.199C67.8814 76.0144 122.191 36.9941 127.002 10.2009C129.722 -4.95372 116.568 -16.2055 77.5712 -20.6466L77.5628 -20.6477L77.5559 -20.6499C50.5896 -29.7334 44.5668 -43.4136 50.6725 -59.4709C59.9052 -83.7518 96.923 -113.452 131.127 -140.894C151.14 -156.95 170.189 -172.233 182.137 -185.199L182.248 -185.092C170.292 -172.118 151.237 -156.83 131.218 -140.768C97.0318 -113.34 60.0339 -83.6567 50.8185 -59.4214C44.7496 -43.4606 50.7547 -29.8553 77.6086 -20.8079C116.711 -16.3531 129.895 -5.03436 127.157 10.2184C122.334 37.0835 67.9925 76.1261 18.9939 111.331C-7.1989 130.15 -31.8649 147.871 -46.6126 162.04L-46.7154 161.924ZM-48.966 160.441C-34.5163 146.558 -10.9692 129.315 14.0445 110.998C61.8665 75.9792 115.053 37.0322 120.216 10.1945C123.098 -4.78282 110.985 -15.9969 74.557 -20.6582L74.5497 -20.659L74.5418 -20.6618C46.1945 -30.6741 40.0299 -45.0364 46.5672 -61.599C56.1473 -85.8707 93.056 -114.849 127.343 -141.77C147.993 -157.983 167.691 -173.449 179.887 -186.683L179.997 -186.576C167.793 -173.332 148.088 -157.861 127.432 -141.643C93.1637 -114.737 56.2749 -85.7736 46.7125 -61.5473C40.2131 -45.0806 46.3614 -30.7937 74.596 -20.8192C111.13 -16.1429 123.271 -4.86123 120.371 10.2143C115.194 37.1212 61.9782 76.0902 14.1294 111.129C-10.8794 129.442 -34.422 146.682 -48.8631 160.556L-48.966 160.441ZM-51.2167 158.957C-37.0987 145.393 -14.6994 128.662 9.10443 110.882C55.7811 76.0175 107.861 37.117 113.433 10.2092C116.499 -4.60312 105.436 -15.7885 71.5427 -20.6703L71.5341 -20.6716L71.5278 -20.6741C41.8076 -31.624 35.4963 -46.6478 42.4495 -63.6836C52.3523 -87.9451 89.2063 -116.269 123.606 -142.707C144.875 -159.053 165.205 -174.678 177.636 -188.167L177.746 -188.06C165.306 -174.559 144.969 -158.93 123.693 -142.578C89.3127 -116.155 52.4787 -87.8464 42.5943 -63.6298C35.6798 -46.6891 41.9761 -31.741 71.5854 -20.8305C105.583 -15.9317 116.674 -4.67889 113.586 10.2314C108.001 37.2061 55.8927 76.1279 9.19052 111.012C-14.6089 128.789 -37.0044 145.517 -51.1138 159.072L-51.2167 158.957ZM-53.4674 157.473C-39.7111 144.257 -18.4887 128.074 4.07395 110.87C49.6064 76.1502 100.6 37.2662 106.647 10.2577C109.931 -4.40784 99.9277 -15.5782 68.5286 -20.6823L68.5215 -20.6834L68.5141 -20.6863C37.4302 -32.5816 30.9667 -48.2468 38.3207 -65.7266C48.5242 -89.9792 85.3705 -117.706 119.908 -143.695C141.782 -160.155 162.729 -175.917 175.385 -189.651L175.496 -189.543C162.83 -175.799 141.876 -160.031 119.995 -143.566C85.4757 -117.591 48.6491 -89.879 38.4645 -65.6711C31.15 -48.2858 37.5998 -32.6972 68.5722 -20.8423C100.076 -15.7198 110.106 -4.48053 106.801 10.2828C100.739 37.3556 49.7181 76.2604 4.16123 110.998C-18.3979 128.201 -39.6172 144.381 -53.3647 157.588L-53.4674 157.473ZM-55.7181 155.989C-42.3613 143.157 -22.3519 127.568 -1.06955 110.986C43.3173 76.4045 93.2454 37.505 99.8546 10.359C103.396 -4.18662 94.467 -15.3633 65.5139 -20.6944L65.5069 -20.6958L65.5007 -20.6979C33.0611 -33.5454 26.4399 -49.8337 34.1799 -67.7312C44.6651 -91.9773 81.5457 -119.156 116.247 -144.729C138.712 -161.285 160.263 -177.167 173.134 -191.135L173.245 -191.027C160.363 -177.047 138.804 -161.16 116.331 -144.599C81.6497 -119.04 44.7892 -91.8757 34.3233 -67.6743C26.624 -49.8704 33.232 -33.6587 65.561 -20.8532C94.6183 -15.5015 103.573 -4.25561 100.007 10.3879C93.3833 37.595 43.4292 76.5144 -0.980627 111.114C-22.2603 127.693 -42.2667 143.28 -55.6151 156.105L-55.7181 155.989ZM-57.9687 154.505C-45.0605 142.104 -26.3099 127.164 -6.35708 111.267C36.8771 76.8203 85.7606 37.8724 93.0434 10.5433C96.8983 -3.92364 89.0651 -15.139 62.4994 -20.7062L62.494 -20.7074L62.4869 -20.7101C28.7009 -34.5147 21.9164 -51.4091 30.0278 -69.7008C40.7778 -93.9429 77.729 -120.618 112.614 -145.802C135.66 -162.439 157.804 -178.425 170.884 -192.618L170.995 -192.511C157.903 -178.305 135.752 -162.314 112.698 -145.671C77.8317 -120.501 40.9006 -93.8397 30.1704 -69.6422C22.1004 -51.4438 28.8725 -34.6261 62.5482 -20.8653C89.2187 -15.2747 97.0764 -3.98912 93.1953 10.5756C85.8975 37.9619 36.9895 76.9292 -6.26642 111.393C-26.2164 127.288 -44.9637 142.225 -57.8658 154.621L-57.9687 154.505ZM-60.2195 153.021C-47.8213 141.11 -30.3897 126.894 -11.8314 111.76C30.2343 77.4539 78.0917 38.4255 86.1935 10.8585C90.4408 -3.59285 83.7354 -14.8976 59.4842 -20.7188L59.4772 -20.7203L59.4731 -20.7222C24.3478 -35.4874 17.3947 -52.9727 25.8642 -71.6374C36.8645 -95.8794 73.9189 -122.089 109.009 -146.91C132.625 -163.615 155.352 -179.69 168.633 -194.102L168.744 -193.995C155.45 -179.569 132.715 -163.488 109.091 -146.777C74.0204 -121.97 36.9865 -95.7749 26.0064 -71.5774C17.5788 -53.0056 24.5211 -35.5965 59.5383 -20.8756C83.8922 -15.0279 90.6194 -3.65276 86.3438 10.8949C78.2263 38.5157 30.3463 77.5629 -11.7393 111.884C-30.2948 127.017 -47.7237 141.231 -60.1168 153.137L-60.2195 153.021ZM-62.4702 151.537C-50.6653 140.196 -34.6316 126.801 -17.5549 112.534C23.3084 78.3937 70.1482 39.2604 79.2681 11.3855C84.0235 -3.14926 78.4987 -14.6248 56.4686 -20.7309L56.4643 -20.7321L56.4597 -20.7343C20.0034 -36.4643 12.8759 -54.5253 21.6904 -73.5433C32.9283 -97.7897 70.1143 -123.568 105.427 -148.048C129.605 -164.809 152.905 -180.962 166.382 -195.586L166.493 -195.479C153.004 -180.84 129.695 -164.682 105.508 -147.915C70.2147 -123.448 33.0491 -97.6839 21.8319 -73.4821C13.06 -54.5566 20.1776 -36.5719 56.5254 -20.8873C78.6588 -14.7509 84.2042 -3.20346 79.4173 11.4272C70.2813 39.3514 23.4204 78.5021 -17.4612 112.657C-34.5358 126.923 -50.5673 140.316 -62.3673 151.653L-62.4702 151.537ZM-64.7209 150.054C-53.6246 139.393 -39.0981 126.95 -23.6229 113.694C15.9713 79.7783 61.7801 40.5392 72.1937 12.2694C77.6392 -2.51319 73.385 -14.2965 53.4528 -20.7434L53.4527 -20.7435L53.446 -20.7463C15.6666 -37.4434 8.35903 -56.0677 17.5063 -75.4208C28.9704 -99.6764 66.3136 -125.053 101.866 -149.213C126.598 -166.021 150.464 -182.239 164.132 -197.07L164.242 -196.962C150.562 -182.117 126.687 -165.893 101.945 -149.079C66.4127 -124.933 29.0898 -99.5694 17.6471 -75.359C8.54331 -56.0978 15.8414 -37.55 53.5115 -20.8995C73.5491 -14.4179 77.8221 -2.56114 72.3411 12.3175C61.9115 40.6306 16.0834 79.8866 -23.5277 113.817C-39.0015 127.071 -53.5265 139.513 -64.618 150.169L-64.7209 150.054ZM-66.9715 148.57C-56.7508 138.751 -43.8869 127.446 -30.1851 115.405C8.00609 81.8427 52.7114 42.556 64.8147 13.7877C71.2596 -1.53031 68.4433 -13.8655 50.4364 -20.7566L50.4326 -20.7579C11.3367 -38.4245 3.84397 -57.6001 13.3123 -77.2733C24.992 -101.541 62.5158 -126.544 98.3224 -150.402C123.603 -167.247 148.028 -183.521 161.881 -198.554L161.992 -198.446C148.125 -183.399 123.691 -167.118 98.4009 -150.267C62.6142 -126.422 25.1115 -101.434 13.4529 -77.2097C4.02821 -57.6275 11.5134 -38.5283 50.5051 -20.9086C68.6127 -13.9774 71.4425 -1.56808 64.9585 13.8431C52.839 42.6499 8.11743 81.9508 -30.0878 115.525C-43.7878 127.565 -56.6501 138.868 -66.8687 148.685L-66.9715 148.57ZM-69.2222 147.086C-60.1277 138.349 -49.1624 128.46 -37.4955 117.939C-0.99247 85.0207 42.382 45.9056 56.7598 16.5307C64.7872 0.12994 63.7622 -13.2316 47.419 -20.7701C7.01411 -39.4076 -0.669149 -59.1232 9.10918 -79.1017C20.9967 -103.389 58.7209 -128.04 94.7958 -151.613C120.619 -168.487 145.596 -184.809 159.63 -200.038L159.741 -199.93C145.692 -184.685 120.705 -168.357 94.8727 -151.477C58.8178 -127.917 21.1146 -103.279 9.24904 -79.0368C-0.485125 -59.1489 7.19113 -39.5098 47.4927 -20.9201C63.9372 -13.3347 64.9716 0.103179 56.8994 16.5955C42.5064 46.0019 -0.882062 85.1294 -37.3967 118.058C-49.0634 128.579 -60.0286 138.468 -69.1193 147.201L-69.2222 147.086ZM-21.9577 178.247C-4.65759 161.626 31.5443 139.626 69.9003 116.317C131.765 78.722 199.237 37.7195 201.963 10.4571C203.638 -6.29429 180.82 -17.8732 117.141 -20.3061C175.897 -17.3829 196.991 -5.90811 195.282 10.4526C192.434 37.714 126.161 78.4994 65.4502 115.862C28.1693 138.805 -7.01362 160.458 -24.1057 176.878L-24.2084 176.763C-7.10267 160.329 28.0879 138.672 65.3769 115.724C126.052 78.3832 192.286 37.6215 195.126 10.4472C196.87 -6.24502 174.639 -17.8242 112.415 -20.3551C169.725 -17.3344 190.23 -5.86054 188.448 10.4394C185.477 37.6183 120.437 78.171 60.9135 115.285C24.7039 137.862 -9.46355 159.165 -26.3562 175.395L-26.4591 175.279C-9.55208 159.036 24.6226 137.728 60.8394 115.147C120.328 78.0546 185.33 37.5256 188.292 10.4335C190.112 -6.21401 168.461 -17.803 107.615 -20.4223C163.552 -17.3123 183.481 -5.8303 181.619 10.4222C178.514 37.5246 114.7 77.855 56.3602 114.725C21.2285 136.929 -11.9177 157.877 -28.6071 173.911L-28.7099 173.795C-12.0081 157.749 21.1455 136.796 56.2854 114.588C114.59 77.7397 178.366 37.4332 181.462 10.4155C183.363 -6.17539 162.328 -17.768 103.002 -20.4914C157.431 -17.2775 176.741 -5.7929 174.793 10.4009C171.542 37.4356 108.947 77.5536 51.7889 114.187C17.7404 136.01 -14.3783 156.595 -30.8576 172.427L-30.9603 172.312C-14.4687 156.467 17.6572 135.878 51.7132 114.05C108.838 77.4386 171.396 37.3439 174.637 10.3936C176.623 -6.12244 156.285 -17.7164 98.6669 -20.5639L98.66 -20.5641L98.6572 -20.5647C81.5379 -23.6136 76.4702 -31.8524 79.1784 -43.2314C84.8895 -67.2256 125.291 -105.191 160.02 -137.827C174.661 -151.586 188.294 -164.397 197.892 -174.812L198.003 -174.705C188.404 -164.288 174.766 -151.473 160.121 -137.71C125.41 -105.092 85.0306 -67.1464 79.3321 -43.2038C76.6478 -31.9253 81.6861 -23.7561 98.6936 -20.7263C99.6405 -20.6795 100.578 -20.6303 101.503 -20.5786C85.9268 -22.9037 81.0575 -30.2594 83.2487 -40.7421C88.228 -64.5632 129.797 -104.546 164.805 -138.218C178.426 -151.319 191.053 -163.465 200.142 -173.328L200.253 -173.221C191.162 -163.355 178.532 -151.207 164.907 -138.102C129.918 -104.449 88.3711 -64.4868 83.4034 -40.7196C81.2253 -30.2999 86.1051 -22.9961 101.704 -20.7148C102.536 -20.6792 103.358 -20.6407 104.174 -20.6012C90.2602 -22.2861 85.6529 -28.7364 87.3321 -38.2357C91.5013 -61.821 134.581 -104.231 169.924 -139.025C182.394 -151.301 193.9 -162.628 202.393 -171.844L202.504 -171.737C194.01 -162.519 182.501 -151.19 170.029 -138.911C134.704 -104.135 91.6464 -61.7467 87.487 -38.218C85.8055 -28.7041 90.5113 -22.2788 104.714 -20.7033C105.313 -20.6808 105.901 -20.6556 106.493 -20.6316C94.481 -21.8149 90.2528 -27.3379 91.4336 -35.7315C94.708 -59.0088 139.783 -104.416 175.513 -140.41C186.648 -151.627 196.875 -161.931 204.644 -170.361L204.755 -170.253C196.982 -161.818 186.754 -151.515 175.619 -140.298C139.907 -104.322 94.8561 -58.9386 91.59 -35.7205C90.3846 -27.1519 94.8989 -21.6092 107.727 -20.6915L107.727 -20.6914C107.837 -20.6878 107.944 -20.6834 108.055 -20.6798C98.4626 -21.6188 94.8524 -26.1843 95.5594 -33.2562C97.8486 -56.1518 145.65 -105.401 181.789 -142.634C191.317 -152.451 200.033 -161.431 206.895 -168.877L207.005 -168.769C200.15 -161.33 191.429 -152.345 181.897 -142.524C145.776 -105.31 97.9997 -56.0859 95.7164 -33.2514C94.9574 -25.6609 99.2566 -20.9958 110.737 -20.6798C179.424 -18.7898 203.86 -6.94061 202.12 10.4619C199.385 37.8125 131.873 78.8391 69.9721 116.457C31.6248 139.76 -4.5689 161.755 -21.855 178.362L-21.9577 178.247Z" fill="#5209B2" fill-opacity="0.42"/>
</svg>
