<svg width="18" height="18" viewBox="0 0 18 18" fill="none" xmlns="http://www.w3.org/2000/svg">
<path d="M12.491 0.737183H5.50768C2.47435 0.737183 0.666016 2.54552 0.666016 5.57885V12.5622C0.666016 15.5955 2.47435 17.4039 5.50768 17.4039H12.491C15.5244 17.4039 17.3327 15.5955 17.3327 12.5622V5.57885C17.3327 2.54552 15.5244 0.737183 12.491 0.737183ZM7.30768 11.4872L5.43268 13.3622C5.30768 13.4872 5.14935 13.5455 4.99102 13.5455C4.83268 13.5455 4.66602 13.4872 4.54935 13.3622L3.92435 12.7372C3.67435 12.4955 3.67435 12.0955 3.92435 11.8539C4.16602 11.6122 4.55768 11.6122 4.80768 11.8539L4.99102 12.0372L6.42435 10.6038C6.66602 10.3622 7.05768 10.3622 7.30768 10.6038C7.54935 10.8455 7.54935 11.2455 7.30768 11.4872ZM7.30768 5.65385L5.43268 7.52885C5.30768 7.65385 5.14935 7.71218 4.99102 7.71218C4.83268 7.71218 4.66602 7.65385 4.54935 7.52885L3.92435 6.90385C3.67435 6.66218 3.67435 6.26218 3.92435 6.02052C4.16602 5.77885 4.55768 5.77885 4.80768 6.02052L4.99102 6.20385L6.42435 4.77052C6.66602 4.52885 7.05768 4.52885 7.30768 4.77052C7.54935 5.01218 7.54935 5.41218 7.30768 5.65385ZM13.6327 12.9205H9.25768C8.91602 12.9205 8.63268 12.6372 8.63268 12.2955C8.63268 11.9538 8.91602 11.6705 9.25768 11.6705H13.6327C13.9827 11.6705 14.2577 11.9538 14.2577 12.2955C14.2577 12.6372 13.9827 12.9205 13.6327 12.9205ZM13.6327 7.08718H9.25768C8.91602 7.08718 8.63268 6.80385 8.63268 6.46218C8.63268 6.12052 8.91602 5.83718 9.25768 5.83718H13.6327C13.9827 5.83718 14.2577 6.12052 14.2577 6.46218C14.2577 6.80385 13.9827 7.08718 13.6327 7.08718Z" fill="currentColor"/>
</svg>
