<svg width="43" height="42" viewBox="0 0 43 42" fill="none" xmlns="http://www.w3.org/2000/svg">
<path d="M24.5439 27.301C23.611 27.4336 23.1066 27.6501 22.6622 27.5502C16.6626 26.1575 10.648 24.8435 4.69348 23.2135C3.28033 22.8345 1.90557 21.5851 0.958835 20.3876C-0.293243 18.7595 0.529565 17.2007 2.60246 17.0799C3.72591 17.0125 4.97838 17.1682 5.9808 17.6379C11.7566 20.3426 17.4705 23.1734 23.184 25.9726C23.5978 26.1669 23.8561 26.6445 24.5121 27.3005L24.5439 27.301Z" fill="#085727"/>
<path d="M36.3998 19.5513C36.2514 19.0901 35.881 18.5944 35.955 18.1675C36.6681 12.9954 37.3017 7.80642 38.3167 2.7172C38.526 1.70579 40.3717 1.04713 41.4392 0.236328C41.9959 1.70076 43.2839 3.39596 42.9506 4.62769C42.148 7.67568 40.6146 10.5246 39.4147 13.4568C38.5687 15.5219 37.8022 17.6356 37.004 19.7172L36.3841 19.567L36.3998 19.5513Z" fill="#085727"/>
<path d="M28.1042 22.3708C27.8826 22.3059 27.5193 22.2873 27.439 22.1446C24.9394 17.4191 22.3453 12.7245 20.0977 7.90619C19.7606 7.19293 20.9659 5.76482 21.4473 4.67871C22.6361 5.2405 24.6445 5.58739 24.8558 6.39449C26.2846 11.5225 27.3194 16.758 28.4802 21.963C28.5124 22.058 28.2609 22.214 28.1202 22.3867L28.1042 22.3708Z" fill="#085727"/>
<path d="M19.1498 36.9165C18.9318 37.9721 18.9525 38.2411 18.8588 38.3029C13.7357 40.9453 8.3341 42.1909 2.48829 40.756C1.74158 40.5683 0.900504 39.5409 0.680722 38.762C0.562206 38.3329 1.66317 37.1352 2.26373 37.1147C7.77986 36.9462 13.3311 36.9683 19.1498 36.9165Z" fill="#085727"/>
</svg>
