<svg width="47" height="47" viewBox="0 0 47 47" fill="none" xmlns="http://www.w3.org/2000/svg">
<mask id="mask0_1791_28067" style="mask-type:luminance" maskUnits="userSpaceOnUse" x="0" y="0" width="47" height="47">
<path d="M47 47L47 0L3.8147e-06 -2.05444e-06L1.76026e-06 47L47 47Z" fill="currentColor"/>
</mask>
<g mask="url(#mask0_1791_28067)">
<path d="M17.7014 26.5419C17.5688 25.609 17.3524 25.1047 17.4522 24.6603C18.8449 18.6607 20.1589 12.6461 21.789 6.69153C22.168 5.27838 23.4174 3.90361 24.6148 2.95688C26.2429 1.7048 27.8018 2.52761 27.9225 4.60051C27.9899 5.72396 27.8343 6.97642 27.3646 7.97884C24.6598 13.7547 21.829 19.4685 19.0299 25.182C18.8355 25.5958 18.3579 25.8542 17.7019 26.5102L17.7014 26.5419Z" fill="currentColor"/>
<path d="M25.4506 38.3983C25.9119 38.25 26.4076 37.8796 26.8345 37.9535C32.0066 38.6666 37.1955 39.3002 42.2847 40.3152C43.2962 40.5245 43.9548 42.3702 44.7656 43.4378C43.3012 43.9944 41.606 45.2824 40.3743 44.9491C37.3263 44.1466 34.4774 42.6131 31.5451 41.4132C29.48 40.5672 27.3663 39.8007 25.2848 39.0025L25.435 38.3826L25.4506 38.3983Z" fill="currentColor"/>
<path d="M22.6283 30.1051C22.6931 29.8836 22.7117 29.5203 22.8544 29.44C27.5799 26.9404 32.2745 24.3463 37.0928 22.0987C37.8061 21.7616 39.2342 22.9669 40.3203 23.4483C39.7585 24.637 39.4116 26.6454 38.6045 26.8568C33.4766 28.2856 28.241 29.3204 23.0361 30.4811C22.9411 30.5134 22.785 30.2619 22.6123 30.1211L22.6283 30.1051Z" fill="currentColor"/>
<path d="M8.08594 21.1488C7.03034 20.9308 6.7613 20.9515 6.69956 20.8578C4.05715 15.7347 2.81152 10.3331 4.24642 4.48731C4.43417 3.7406 5.46156 2.89953 6.24049 2.67975C6.66959 2.56123 7.8672 3.6622 7.88778 4.26276C8.05621 9.77888 8.03411 15.3301 8.08594 21.1488Z" fill="currentColor"/>
</g>
</svg>
