<svg width="69" height="67" viewBox="0 0 69 67" fill="none" xmlns="http://www.w3.org/2000/svg">
<path d="M29.6468 23.2435C31.1354 23.0319 31.9403 22.6865 32.6494 22.8458C42.2232 25.0682 51.8209 27.165 61.3229 29.7661C63.5779 30.3709 65.7717 32.3647 67.2824 34.2755C69.2804 36.8735 67.9675 39.3611 64.6596 39.5538C62.8669 39.6613 60.8683 39.4129 59.2687 38.6634C50.0519 34.3473 40.9341 29.8301 31.8168 25.3633C31.1565 25.0532 30.7442 24.291 29.6974 23.2443L29.6468 23.2435Z" fill="#BABA9E"/>
<path d="M10.7279 35.6096C10.9646 36.3456 11.5557 37.1367 11.4377 37.8178C10.2998 46.0712 9.28867 54.3515 7.66907 62.4726C7.33502 64.0865 4.38975 65.1376 2.68624 66.4314C1.79799 64.0945 -0.257407 61.3894 0.274485 59.4239C1.55516 54.5601 4.00219 50.014 5.91692 45.3349C7.26692 42.0395 8.49002 38.6666 9.76381 35.3449L10.753 35.5846L10.7279 35.6096Z" fill="#BABA9E"/>
<path d="M23.9583 31.1108C24.3118 31.2143 24.8915 31.2439 25.0196 31.4717C29.0084 39.0123 33.1479 46.5037 36.7346 54.1925C37.2725 55.3307 35.3491 57.6096 34.581 59.3428C32.684 58.4463 29.4791 57.8928 29.1418 56.6048C26.8618 48.4219 25.2106 40.0672 23.3583 31.7615C23.3068 31.6099 23.7082 31.3609 23.9327 31.0854L23.9583 31.1108Z" fill="#BABA9E"/>
<path d="M38.2562 7.89917C38.604 6.21471 38.5709 5.78539 38.7205 5.68687C46.8957 1.47025 55.5152 -0.517448 64.8437 1.77228C66.0352 2.07188 67.3774 3.71133 67.7281 4.95431C67.9172 5.63904 66.1603 7.55012 65.202 7.58295C56.3997 7.85174 47.5414 7.81647 38.2562 7.89917Z" fill="#BABA9E"/>
</svg>
