<svg width="14" height="16" viewBox="0 0 14 16" fill="none" xmlns="http://www.w3.org/2000/svg">
<path d="M13.4687 5.3375C12.6812 1.8725 9.65873 0.3125 7.00373 0.3125C7.00373 0.3125 7.00373 0.3125 6.99623 0.3125C4.34873 0.3125 1.31873 1.865 0.531234 5.33C-0.346266 9.2 2.02373 12.4775 4.16873 14.54C4.96373 15.305 5.98373 15.6875 7.00373 15.6875C8.02373 15.6875 9.04373 15.305 9.83123 14.54C11.9762 12.4775 14.3462 9.2075 13.4687 5.3375ZM7.00373 9.095C5.69873 9.095 4.64123 8.0375 4.64123 6.7325C4.64123 5.4275 5.69873 4.37 7.00373 4.37C8.30873 4.37 9.36623 5.4275 9.36623 6.7325C9.36623 8.0375 8.30873 9.095 7.00373 9.095Z" fill="currentColor"/>
</svg>
