<svg width="20" height="20" viewBox="0 0 20 20" fill="none" xmlns="http://www.w3.org/2000/svg">
<path d="M14 1.66675H11.8333C9.16667 1.66675 7.5 3.33341 7.5 6.00008V9.37508H12.7083C13.05 9.37508 13.3333 9.65842 13.3333 10.0001C13.3333 10.3417 13.05 10.6251 12.7083 10.6251H7.5V14.0001C7.5 16.6667 9.16667 18.3334 11.8333 18.3334H13.9917C16.6583 18.3334 18.325 16.6667 18.325 14.0001V6.00008C18.3333 3.33341 16.6667 1.66675 14 1.66675Z" fill="currentColor"/>
<path d="M3.80312 9.37503L5.52813 7.65003C5.65313 7.52503 5.71146 7.3667 5.71146 7.20837C5.71146 7.05003 5.65313 6.88337 5.52813 6.7667C5.28646 6.52503 4.88646 6.52503 4.64479 6.7667L1.85313 9.55837C1.61146 9.80003 1.61146 10.2 1.85313 10.4417L4.64479 13.2334C4.88646 13.475 5.28646 13.475 5.52813 13.2334C5.76979 12.9917 5.76979 12.5917 5.52813 12.35L3.80312 10.625H7.50313V9.37503H3.80312Z" fill="currentColor"/>
</svg>
