<svg width="261" height="47" viewBox="0 0 261 47" fill="none" xmlns="http://www.w3.org/2000/svg">
<g clip-path="url(#clip0_1882_45836)">
<mask id="mask0_1882_45836" style="mask-type:luminance" maskUnits="userSpaceOnUse" x="0" y="0" width="260" height="47">
<path d="M259.678 0.5H0.164062V46.5H259.678V0.5Z" fill="white"/>
</mask>
<g mask="url(#mask0_1882_45836)">
<path d="M59.4603 7.75391C61.0597 7.75391 62.5784 8.02078 63.6986 8.58041C65.2445 9.35338 65.5637 10.3927 65.5637 11.5389C65.5637 12.1786 65.4844 12.4186 64.6844 12.0722C63.5914 11.6458 62.3656 10.846 59.5403 10.846C55.4356 10.846 53.4897 13.4313 53.4897 17.6696C53.4897 21.7209 55.2219 24.2265 59.4867 24.2265C62.019 24.2265 63.3249 23.6933 64.978 23.0272C65.6974 22.7602 65.8037 23.0004 65.8037 23.6664C65.8037 24.0665 65.6974 25.3192 64.3379 26.1989C63.1384 26.9986 61.4326 27.3183 59.3002 27.3183C53.8897 27.3183 49.7578 25.1327 49.7578 17.8295C49.7578 10.6327 53.9162 7.75391 59.4603 7.75391Z" fill="#00563F"/>
<path d="M72.4871 26.9717H72.2208C71.5543 26.9717 71.3678 26.8117 71.1278 26.1987L67.1832 16.1235C67.0497 15.777 66.9703 15.5102 66.9703 15.297C66.9703 14.8172 67.2896 14.6309 67.9561 14.6309H69.049C70.2748 14.6309 70.4348 14.7372 70.8612 15.9367L73.6865 23.7199L76.459 16.1498C76.9654 14.7372 77.1783 14.6309 78.1649 14.6309H79.4971C79.9772 14.6309 80.3773 14.7641 80.3773 15.3238C80.3773 15.5102 80.3237 15.777 80.1909 16.0967L76.0854 26.492C74.2202 31.2632 72.7272 33.3418 69.6619 33.3418C67.6096 33.3418 66.7031 32.4358 66.7031 30.9163C66.7031 30.3566 66.9967 30.2233 67.3696 30.3566C67.6896 30.4898 68.0625 30.5697 68.6489 30.5697C69.5291 30.5697 70.9949 30.5168 72.4871 26.9717Z" fill="#00563F"/>
<path d="M87.0373 12.2055V14.6312H89.5961C90.5291 14.6312 90.6356 14.7645 90.6356 15.6974V16.5502C90.6356 17.4832 90.5291 17.6165 89.5961 17.6165H87.0373V21.8812C87.0373 23.9066 88.1039 24.0931 88.6104 24.0931C89.1961 24.0931 89.7562 23.9868 90.3691 23.8267C90.8492 23.7202 91.0355 23.8267 91.0355 24.6264C91.0355 25.0796 90.9557 25.5062 90.7691 25.8527C90.3691 26.6787 89.3561 27.1584 87.5175 27.1584C84.3721 27.1584 83.5721 25.1861 83.5721 21.9876V17.6166H82.7463C81.8134 17.6166 81.6797 17.4833 81.6797 16.5504V15.6974C81.6797 14.7646 81.8134 14.6313 82.7463 14.6313H83.6256C83.9185 12.1257 85.0387 11.0327 86.371 11.0327C87.0374 11.0327 87.0373 11.299 87.0373 12.2055Z" fill="#00563F"/>
<path d="M94.9791 7.91406C96.1786 7.91406 97.005 8.6606 97.005 9.77998C97.005 10.9261 96.1786 11.6723 94.9791 11.6723C93.7796 11.6723 92.9531 10.9262 92.9531 9.77998C92.9531 8.6606 93.7796 7.91406 94.9791 7.91406ZM96.6585 17.4032V25.6393C96.6585 26.7588 96.4713 26.9719 95.3255 26.9719H94.5525C93.4332 26.9719 93.2195 26.7588 93.2195 25.6393V15.8038C93.2195 14.8976 93.2195 14.6312 93.8859 14.6312C95.8854 14.6312 96.6585 15.4573 96.6585 17.4032Z" fill="#00563F"/>
<path d="M109.586 8.46045C113.584 8.46045 116.489 10.1663 116.489 14.0577C116.489 18.2424 113.584 19.8951 109.586 19.8951H106.653V26.6118C106.653 27.1984 106.547 27.3315 105.96 27.3315H105.454C104.841 27.3315 104.734 27.1982 104.734 26.6118V9.28661C104.734 8.56693 104.841 8.46045 105.534 8.46045H109.586ZM106.653 10.0863V18.2693H109.586C112.544 18.2693 114.41 17.0163 114.41 14.0578C114.41 11.3122 112.544 10.0863 109.586 10.0863H106.653Z" fill="#00563F"/>
<path d="M120.538 18.056C120.538 20.9081 127.92 19.0426 127.92 23.867C127.92 26.8786 125.468 27.492 122.963 27.492C121.257 27.492 120.111 27.2255 119.258 26.8786C118.538 26.639 118.352 26.1589 118.352 25.466C118.352 24.9596 118.458 24.9331 119.124 25.1996C120.031 25.5728 121.417 25.9726 122.936 25.9726C124.722 25.9726 126.134 25.5728 126.134 23.9201C126.134 20.5884 118.752 22.5608 118.752 18.136C118.752 15.4439 121.203 14.8042 123.496 14.8042C124.669 14.8042 125.548 14.9642 126.455 15.2575C127.147 15.4706 127.521 15.8439 127.521 16.5369C127.521 16.9902 127.388 16.9902 126.721 16.83C125.922 16.6169 125.015 16.3768 123.523 16.3768C121.71 16.3768 120.538 16.8566 120.538 18.056Z" fill="#00563F"/>
<path d="M134.72 27.3315H134.694C134.294 27.3315 134.16 27.225 134.027 26.8251L129.923 15.87C129.682 15.204 129.815 14.9907 130.322 14.9907H130.908C131.548 14.9907 131.655 15.0438 131.921 15.7637L135.439 25.5456L139.251 15.8437C139.544 15.0438 139.677 14.9907 140.211 14.9907H140.904C141.277 14.9907 141.544 15.1503 141.25 15.8968L135.866 29.2238C134.586 32.3959 133.387 33.6486 131.442 33.6486C130.003 33.6486 129.336 33.0888 129.336 32.1827C129.336 31.8094 129.496 31.7294 129.762 31.8362C130.055 31.9958 130.375 32.1291 130.988 32.1291C131.841 32.1291 133.014 31.8627 134.107 28.9042L134.72 27.3315Z" fill="#00563F"/>
<path d="M143.352 21.2813C143.352 17.3631 145.324 14.8042 149.563 14.8042C151.109 14.8042 152.147 15.2043 152.815 15.5771C153.242 15.8172 153.508 16.1105 153.508 16.9365C153.508 17.3631 153.374 17.4431 152.842 17.2566C152.228 16.9634 151.322 16.5101 149.723 16.5101C146.577 16.5101 145.297 18.5361 145.297 21.2549C145.297 23.7601 146.417 25.8124 149.882 25.8124C151.482 25.8124 152.494 25.386 153.081 25.1727C153.668 25.0131 153.748 25.0131 153.748 25.3595C153.748 25.8924 153.668 26.4521 152.894 26.8522C152.175 27.2255 150.922 27.5183 149.509 27.5183C145.139 27.5183 143.352 24.9595 143.352 21.2813Z" fill="#00563F"/>
<path d="M166.515 27.3317H166.143C165.503 27.3317 165.396 27.2254 165.396 26.5851V19.7353C165.396 17.8161 164.597 16.4566 162.358 16.4566C160.12 16.4566 159.052 17.8694 158.866 19.8417V26.5851C158.866 27.2252 158.759 27.3317 158.146 27.3317H157.747C157.132 27.3317 157 27.2254 157 26.5851V8.62022C157 8.11379 157.026 7.9541 157.374 7.9541C158.44 7.9541 158.866 8.40699 158.866 9.44673V16.6699C159.586 15.6306 160.865 14.804 162.891 14.804C165.983 14.804 167.262 16.6699 167.262 19.6021V26.5851C167.262 27.2252 167.155 27.3317 166.515 27.3317Z" fill="#00563F"/>
<path d="M177.092 14.8042C181.144 14.8042 183.464 17.3366 183.464 21.2013C183.464 25.0658 181.144 27.5183 177.092 27.5183C172.962 27.5183 170.695 25.0664 170.695 21.2013C170.695 17.3362 172.962 14.8042 177.092 14.8042ZM177.092 25.8661C179.944 25.8661 181.491 23.9734 181.491 21.2013C181.491 18.4293 179.944 16.457 177.092 16.457C174.214 16.457 172.641 18.4293 172.641 21.2013C172.641 23.9734 174.214 25.8661 177.092 25.8661Z" fill="#00563F"/>
<path d="M188.154 27.3317H187.754C187.14 27.3317 187.008 27.2254 187.008 26.5851V8.62022C187.008 8.11379 187.034 7.9541 187.38 7.9541C188.448 7.9541 188.899 8.40699 188.899 9.44673V26.5851C188.899 27.2252 188.767 27.3317 188.154 27.3317Z" fill="#00563F"/>
<path d="M198.866 14.8042C202.916 14.8042 205.236 17.3366 205.236 21.2013C205.236 25.0658 202.916 27.5183 198.866 27.5183C194.734 27.5183 192.469 25.0664 192.469 21.2013C192.469 17.3362 194.734 14.8042 198.866 14.8042ZM198.866 25.8661C201.716 25.8661 203.263 23.9734 203.263 21.2013C203.263 18.4293 201.716 16.457 198.866 16.457C195.986 16.457 194.413 18.4293 194.413 21.2013C194.413 23.9734 195.986 25.8661 198.866 25.8661Z" fill="#00563F"/>
<path d="M209.336 32.5297C208.643 32.1831 208.324 31.7831 208.324 31.1434C208.324 30.6637 208.537 30.5836 208.963 30.7969C209.896 31.2502 211.415 31.8366 213.654 31.8366C215.893 31.8366 218.426 31.1169 218.426 26.559L218.452 25.306C217.599 26.6121 216.107 27.5183 213.841 27.5183C210.109 27.5183 207.977 24.9864 207.977 21.2282C207.977 17.4431 210.136 14.8042 213.814 14.8042C216.053 14.8042 217.546 15.7372 218.426 17.0965V16.6169C218.426 15.4971 218.852 14.991 219.918 14.991C220.264 14.991 220.292 15.1506 220.292 15.7372V26.7989C220.292 32.2095 217.119 33.4356 213.814 33.4356C211.468 33.4356 210.083 32.9293 209.336 32.5297ZM214.214 16.5102C211.362 16.5102 209.977 18.5625 209.977 21.2013C209.977 23.8138 211.362 25.8126 214.241 25.8126C217.306 25.8126 218.533 23.5468 218.533 21.2282C218.533 18.8295 217.253 16.5102 214.214 16.5102Z" fill="#00563F"/>
<path d="M225.75 9.04639C226.445 9.04639 226.924 9.47286 226.924 10.1393C226.924 10.779 226.445 11.2319 225.75 11.2319C225.058 11.2319 224.578 10.779 224.578 10.1393C224.578 9.47286 225.058 9.04639 225.75 9.04639ZM226.684 16.4833V26.5849C226.684 27.225 226.577 27.3315 225.937 27.3315H225.565C224.952 27.3315 224.818 27.225 224.818 26.5849V15.6567C224.818 15.1503 224.846 14.9905 225.191 14.9905C226.258 14.9905 226.684 15.4436 226.684 16.4833Z" fill="#00563F"/>
<path d="M230.391 21.2813C230.391 17.3631 232.363 14.8042 236.602 14.8042C238.148 14.8042 239.186 15.2043 239.853 15.5771C240.279 15.8172 240.547 16.1105 240.547 16.9365C240.547 17.3631 240.413 17.4431 239.881 17.2566C239.267 16.9634 238.361 16.5101 236.762 16.5101C233.616 16.5101 232.337 18.5361 232.337 21.2549C232.337 23.7601 233.456 25.8124 236.921 25.8124C238.521 25.8124 239.533 25.386 240.12 25.1727C240.706 25.0131 240.787 25.0131 240.787 25.3595C240.787 25.8924 240.706 26.4521 239.934 26.8522C239.214 27.2255 237.961 27.5183 236.548 27.5183C232.178 27.5183 230.391 24.9595 230.391 21.2813Z" fill="#00563F"/>
<path d="M247.764 20.6148C248.883 20.6148 250.349 20.6948 251.629 20.8549V19.549C251.629 17.5763 250.536 16.4037 248.111 16.4037C246.777 16.4037 245.578 16.6434 244.672 16.8834C243.979 17.0698 243.898 17.0167 243.898 16.6434C243.898 15.8441 244.219 15.5508 244.831 15.3375C245.684 15.0175 247.018 14.8042 248.27 14.8042C251.603 14.8042 253.521 16.4569 253.521 19.2821V26.7721C253.521 27.2787 253.494 27.4383 253.148 27.4383C252.162 27.4383 251.708 27.0654 251.629 26.2126C250.91 26.7454 249.576 27.492 247.097 27.492C244.325 27.492 242.992 26.2925 242.992 23.9201C242.992 21.4946 244.592 20.6148 247.764 20.6148ZM251.629 24.7463V22.3207C250.51 22.1342 249.096 22.1077 248.137 22.1077C246.11 22.1077 244.859 22.3475 244.859 23.9201C244.859 25.4659 245.871 25.9724 247.55 25.9724C249.763 25.9724 250.855 25.3329 251.629 24.7463Z" fill="#00563F"/>
<path d="M258.927 27.3317H258.527C257.914 27.3317 257.781 27.2254 257.781 26.5851V8.62022C257.781 8.11379 257.808 7.9541 258.155 7.9541C259.22 7.9541 259.674 8.40699 259.674 9.44673V26.5851C259.674 27.2252 259.54 27.3317 258.927 27.3317Z" fill="#00563F"/>
<path d="M18.8288 12.3764C22.1085 12.3764 24.767 9.71781 24.767 6.43822C24.767 3.15863 22.1085 0.5 18.8288 0.5C15.5493 0.5 12.8906 3.15863 12.8906 6.43822C12.8906 9.71781 15.5493 12.3764 18.8288 12.3764Z" fill="#00563F"/>
<path d="M36.8098 19.7347C35.2052 16.588 32.9815 16.1841 31.2234 16.1841C30.7722 16.1841 29.9308 16.1841 29.5085 16.8224C29.1119 17.4198 29.3406 18.1693 29.6222 18.8341C29.7453 19.1155 29.8798 19.4012 30.0174 19.6978C30.8588 21.4983 31.9064 23.7405 31.9064 28.0669C31.9064 34.2229 28.8693 37.1707 25.1203 38.4652C24.6719 38.6201 24.3672 39.0365 24.3672 39.511V45.1482C24.3672 45.8728 25.0543 46.4026 25.7549 46.2178C33.9705 44.0516 38.5502 37.7407 38.5502 28.1676C38.5502 24.8682 37.9312 21.8702 36.8098 19.7347Z" fill="#00563F"/>
<path d="M1.90454 19.7347C3.50904 16.588 5.73275 16.1841 7.49087 16.1841C7.94202 16.1841 8.7834 16.1841 9.20578 16.8224C9.60244 17.4198 9.37364 18.1693 9.09208 18.8341C8.96891 19.1155 8.83452 19.4012 8.69691 19.6978C7.85553 21.4983 6.80779 23.7405 6.80779 28.0669C6.80779 34.2229 9.84487 37.1707 13.5939 38.4652C14.0424 38.6201 14.3471 39.0365 14.3471 39.511V45.1482C14.3471 45.8728 13.66 46.4026 12.9594 46.2178C4.74386 44.0516 0.164062 37.7407 0.164062 28.1676C0.164062 24.8682 0.783076 21.8702 1.90454 19.7347Z" fill="#00563F"/>
<path d="M50.5437 44.5365C50.3642 44.124 50.2656 43.6668 50.2656 43.1736C50.2656 42.6715 50.3642 42.2143 50.5437 41.8017C51.0815 40.6001 52.4177 39.8467 54.3632 39.8467C55.5917 39.8467 56.6854 40.1607 57.4029 40.8064C57.896 41.2636 58.1918 41.8645 58.2458 42.5908H57.3222C57.2504 42.0709 57.0352 41.6582 56.6854 41.3535C56.1476 40.8604 55.3315 40.6179 54.3723 40.6179C52.857 40.6179 51.8349 41.1918 51.4223 42.1065C51.2789 42.4384 51.207 42.7882 51.207 43.1736C51.207 43.5589 51.2787 43.9177 51.4133 44.2317C51.8437 45.1732 52.8748 45.7288 54.3722 45.7288C55.3408 45.7288 56.1921 45.4958 56.7304 44.9937C57.0713 44.68 57.2954 44.2674 57.34 43.7386H58.2546C58.21 44.5005 57.905 45.1103 57.4027 45.5586C56.7037 46.1954 55.6184 46.5001 54.3543 46.5001C52.3815 46.5001 51.0815 45.7471 50.5437 44.5365Z" fill="#00563F"/>
<path d="M66.8025 44.5721H62.7854L61.8979 46.3386H60.9297L64.1844 40.0083H65.3949L68.6407 46.3386H67.6903L66.8025 44.5721ZM66.4169 43.8191L64.7938 40.5911H64.776L63.1624 43.8191H66.4169Z" fill="#00563F"/>
<path d="M74.2201 43.6756H72.9645V46.3386H72.0859V40.0083H75.6547C76.7664 40.0083 77.5376 40.3398 77.8424 41.0216C77.9413 41.2456 77.9953 41.5058 77.9953 41.8017C77.9953 42.1331 77.9413 42.4201 77.8245 42.6714C77.5287 43.3348 76.8025 43.6756 75.7176 43.6756H75.3946L78.4613 46.3387H77.224L74.2201 43.6756ZM72.9645 42.9494H75.4841C76.3092 42.9494 76.8114 42.7881 76.9999 42.3484C77.0715 42.205 77.0983 42.0436 77.0983 41.8285C77.0983 41.6405 77.0715 41.4788 77.0088 41.3443C76.8114 40.896 76.3004 40.7347 75.4841 40.7347H72.9645V42.9494Z" fill="#00563F"/>
<path d="M82.0156 40.0083H87.1535V40.7344H82.8941V42.788H87.1264V43.5142H82.8941V45.6122H87.1535V46.3385H82.0156V40.0083Z" fill="#00563F"/>
<path d="M96.6321 43.595L93.6016 40.0083H94.6954L97.0624 42.8238L99.4475 40.0083H100.532L97.5018 43.595V46.3386H96.6321V43.595Z" fill="#00563F"/>
<path d="M103.162 44.5632C102.973 44.1506 102.875 43.6757 102.875 43.1736C102.875 42.6803 102.973 42.2143 103.153 41.8017C103.691 40.6001 104.991 39.8467 106.973 39.8467C108.945 39.8467 110.245 40.6001 110.774 41.7746C110.963 42.1962 111.07 42.6715 111.07 43.1736C111.07 43.6846 110.963 44.1601 110.765 44.5811C110.227 45.7649 108.936 46.5 106.964 46.5C104.991 46.5 103.691 45.7559 103.162 44.5632ZM109.905 44.2496C110.048 43.9177 110.12 43.5678 110.12 43.1736C110.12 42.7788 110.048 42.4291 109.905 42.0976C109.492 41.1829 108.488 40.6179 106.973 40.6179C105.457 40.6179 104.453 41.1829 104.041 42.0976C103.897 42.429 103.825 42.7788 103.825 43.1736C103.825 43.5678 103.897 43.9177 104.041 44.2496C104.453 45.1641 105.457 45.7288 106.973 45.7288C108.488 45.7288 109.492 45.1643 109.905 44.2496Z" fill="#00563F"/>
<path d="M114.766 43.6578V40.0083H115.635V43.6038C115.635 45.0924 116.326 45.7286 117.886 45.7286C119.455 45.7286 120.146 45.0924 120.146 43.6038V40.0083H121.024V43.6578C121.024 45.5675 120.011 46.4999 117.886 46.4999C115.77 46.4999 114.766 45.5673 114.766 43.6578Z" fill="#00563F"/>
<path d="M130.096 40.7702H127.773V40.0083H133.279V40.7702H130.965V46.3387H130.096V40.7702Z" fill="#00563F"/>
<path d="M138.946 43.6756H137.691V46.3386H136.812V40.0083H140.381C141.492 40.0083 142.264 40.3398 142.568 41.0216C142.667 41.2456 142.722 41.5058 142.722 41.8017C142.722 42.1331 142.667 42.4201 142.552 42.6714C142.255 43.3348 141.528 43.6756 140.444 43.6756H140.121L143.187 46.3387H141.951L138.946 43.6756ZM137.691 42.9494H140.211C141.035 42.9494 141.538 42.7881 141.726 42.3484C141.798 42.205 141.825 42.0436 141.825 41.8285C141.825 41.6405 141.798 41.4788 141.735 41.3443C141.538 40.896 141.027 40.7347 140.211 40.7347H137.691V42.9494Z" fill="#00563F"/>
<path d="M146.438 43.6578V40.0083H147.307V43.6038C147.307 45.0924 147.997 45.7286 149.557 45.7286C151.127 45.7286 151.817 45.0924 151.817 43.6038V40.0083H152.696V43.6578C152.696 45.5675 151.683 46.4999 149.557 46.4999C147.441 46.4999 146.438 45.5673 146.438 43.6578Z" fill="#00563F"/>
<path d="M156.6 45.0925C156.485 44.8233 156.422 44.5186 156.422 44.1778H157.327C157.336 44.4019 157.373 44.5993 157.453 44.7784C157.767 45.4779 158.645 45.7826 159.865 45.7826C160.941 45.7826 161.793 45.5319 162.035 45.0026C162.08 44.8951 162.106 44.7784 162.106 44.662C162.106 44.5454 162.08 44.4376 162.035 44.3391C161.748 43.7025 160.528 43.6039 159.398 43.4515C158.196 43.272 157.076 43.0389 156.727 42.2678C156.655 42.1065 156.618 41.9363 156.618 41.7299C156.618 41.5059 156.664 41.3084 156.744 41.1199C157.12 40.2953 158.287 39.8467 159.667 39.8467C161.103 39.8467 162.223 40.3131 162.626 41.2101C162.743 41.4519 162.796 41.7299 162.796 42.0347H161.882C161.874 41.8284 161.837 41.6404 161.756 41.4787C161.479 40.8509 160.725 40.5551 159.677 40.5551C158.663 40.5551 157.838 40.8421 157.614 41.3535C157.579 41.443 157.561 41.5326 157.561 41.6311C157.561 41.73 157.579 41.8195 157.614 41.9002C157.865 42.4563 158.959 42.5636 160.043 42.7253C161.309 42.9133 162.545 43.1464 162.932 43.9984C163.012 44.169 163.047 44.3662 163.047 44.5993C163.047 44.8502 163.003 45.0653 162.913 45.2628C162.527 46.1147 161.362 46.5001 159.855 46.5001C158.224 46.5001 157.031 46.0606 156.6 45.0925Z" fill="#00563F"/>
<path d="M168.213 40.7702H165.891V40.0083H171.397V40.7702H169.083V46.3387H168.213V40.7702Z" fill="#00563F"/>
<path d="M177.891 40.0083H178.769V46.3386H177.891V40.0083Z" fill="#00563F"/>
<path d="M182.914 40.0083H183.982L188.618 45.3973V40.0083H189.488V46.3386H188.394L183.794 40.9944V46.3386H182.914V40.0083Z" fill="#00563F"/>
</g>
</g>
<defs>
<clipPath id="clip0_1882_45836">
<rect width="260.667" height="46" fill="white" transform="translate(0.164062 0.5)"/>
</clipPath>
</defs>
</svg>
