<svg width="34" height="34" viewBox="0 0 34 34" fill="none" xmlns="http://www.w3.org/2000/svg">
<path d="M23.9859 0.333374H10.0193C3.9526 0.333374 0.335938 3.95004 0.335938 10.0167V23.9667C0.335938 30.05 3.9526 33.6667 10.0193 33.6667H23.9693C30.0359 33.6667 33.6526 30.05 33.6526 23.9834V10.0167C33.6693 3.95004 30.0526 0.333374 23.9859 0.333374ZM24.2859 21.3834L20.5859 25.0834C19.6859 25.9834 18.5193 26.4167 17.3526 26.4167C16.1859 26.4167 15.0026 25.9667 14.1193 25.0834C12.3359 23.3 12.3359 20.3834 14.1193 18.6L16.4693 16.25C16.9526 15.7667 17.7526 15.7667 18.2359 16.25C18.7193 16.7334 18.7193 17.5334 18.2359 18.0167L15.8859 20.3667C15.0693 21.1834 15.0693 22.5 15.8859 23.3167C16.7026 24.1334 18.0193 24.1334 18.8359 23.3167L22.5359 19.6167C23.5526 18.6 24.1193 17.2334 24.1193 15.7834C24.1193 14.3334 23.5526 12.9834 22.5359 11.95C20.4859 9.90004 16.9193 9.90004 14.8693 11.95L10.8193 16C9.08594 17.7334 9.08594 20.5667 10.8193 22.3167C11.3026 22.8 11.3026 23.6 10.8193 24.0834C10.3359 24.5667 9.53594 24.5667 9.0526 24.0834C6.33594 21.3667 6.33594 16.95 9.0526 14.2334L13.0859 10.2C14.5859 8.70004 16.5693 7.88337 18.6859 7.88337C20.8026 7.88337 22.7859 8.70004 24.2859 10.2C25.7859 11.7 26.6026 13.6834 26.6026 15.8C26.6026 17.9167 25.7859 19.9 24.2859 21.3834Z" fill="currentColor"/>
</svg>
