<svg width="30" height="30" viewBox="0 0 30 30" fill="none" xmlns="http://www.w3.org/2000/svg">
<g clip-path="url(#clip0_11096_21183)">
<path d="M15.3125 2.5H13.9375C13.525 1.0625 12.2 0 10.625 0C9.05 0 7.725 1.0625 7.3125 2.5H5.9375C5.425 2.5 5 2.925 5 3.4375V5.3125C5 6.5125 5.9875 7.5 7.1875 7.5H14.0625C15.2625 7.5 16.25 6.5125 16.25 5.3125V3.4375C16.25 2.925 15.825 2.5 15.3125 2.5Z" fill="currentColor"/>
<path d="M17.8125 3.75H17.5V5.3125C17.5 7.2125 15.9625 8.75 14.0625 8.75H7.1875C5.2875 8.75 3.75 7.2125 3.75 5.3125V3.75H3.4375C1.5375 3.75 0 5.2875 0 7.1875V22.8125C0 24.7125 1.5375 26.25 3.4375 26.25H12.6625L12.9375 24.7125C13.0625 24.0125 13.3875 23.3875 13.8875 22.875L14.8875 21.875H4.6875C4.175 21.875 3.75 21.45 3.75 20.9375C3.75 20.425 4.175 20 4.6875 20H16.5625C16.625 20 16.675 20 16.7375 20.025H16.75L21.25 15.525V7.1875C21.25 5.2875 19.7125 3.75 17.8125 3.75ZM16.5625 17.8125H4.6875C4.175 17.8125 3.75 17.3875 3.75 16.875C3.75 16.3625 4.175 15.9375 4.6875 15.9375H16.5625C17.075 15.9375 17.5 16.3625 17.5 16.875C17.5 17.3875 17.075 17.8125 16.5625 17.8125ZM16.5625 13.75H4.6875C4.175 13.75 3.75 13.325 3.75 12.8125C3.75 12.3 4.175 11.875 4.6875 11.875H16.5625C17.075 11.875 17.5 12.3 17.5 12.8125C17.5 13.325 17.075 13.75 16.5625 13.75Z" fill="currentColor"/>
<path d="M15.6558 30.0004C15.4095 30.0004 15.1695 29.9029 14.9933 29.7254C14.777 29.5092 14.6795 29.2017 14.7333 28.8992L15.3958 25.1429C15.4283 24.9542 15.5208 24.7792 15.6558 24.6429L24.937 15.3629C26.077 14.2204 27.197 14.5292 27.8095 15.1417L29.3558 16.6879C30.2095 17.5404 30.2095 18.9279 29.3558 19.7817L20.0745 29.0629C19.9395 29.1992 19.7645 29.2904 19.5745 29.3229L15.8183 29.9854C15.7645 29.9954 15.7095 30.0004 15.6558 30.0004Z" fill="currentColor"/>
</g>
<defs>
<clipPath id="clip0_11096_21183">
<rect width="30" height="30" fill="currentColor"/>
</clipPath>
</defs>
</svg>
