<svg width="20" height="21" viewBox="0 0 20 21" fill="none" xmlns="http://www.w3.org/2000/svg">
<path d="M14 0.5H6C2 0.5 0 2.5 0 6.5V19.5C0 20.05 0.45 20.5 1 20.5H14C18 20.5 20 18.5 20 14.5V6.5C20 2.5 18 0.5 14 0.5ZM12 13.75H5C4.59 13.75 4.25 13.41 4.25 13C4.25 12.59 4.59 12.25 5 12.25H12C12.41 12.25 12.75 12.59 12.75 13C12.75 13.41 12.41 13.75 12 13.75ZM15 8.75H5C4.59 8.75 4.25 8.41 4.25 8C4.25 7.59 4.59 7.25 5 7.25H15C15.41 7.25 15.75 7.59 15.75 8C15.75 8.41 15.41 8.75 15 8.75Z" fill="currentColor"/>
</svg>
