<svg width="13" height="19" viewBox="0 0 13 19" fill="none" xmlns="http://www.w3.org/2000/svg">
<path d="M2.75 9.1875V4.1875C2.75 3.19294 3.14509 2.23911 3.84835 1.53585C4.55161 0.832588 5.50544 0.4375 6.5 0.4375C7.49456 0.4375 8.44839 0.832588 9.15165 1.53585C9.85491 2.23911 10.25 3.19294 10.25 4.1875V9.1875C10.25 10.1821 9.85491 11.1359 9.15165 11.8392C8.44839 12.5424 7.49456 12.9375 6.5 12.9375C5.50544 12.9375 4.55161 12.5424 3.84835 11.8392C3.14509 11.1359 2.75 10.1821 2.75 9.1875ZM12.75 9.1875C12.75 9.02174 12.6842 8.86277 12.5669 8.74556C12.4497 8.62835 12.2908 8.5625 12.125 8.5625C11.9592 8.5625 11.8003 8.62835 11.6831 8.74556C11.5658 8.86277 11.5 9.02174 11.5 9.1875C11.5 10.5136 10.9732 11.7854 10.0355 12.723C9.09785 13.6607 7.82608 14.1875 6.5 14.1875C5.17392 14.1875 3.90215 13.6607 2.96447 12.723C2.02678 11.7854 1.5 10.5136 1.5 9.1875C1.5 9.02174 1.43415 8.86277 1.31694 8.74556C1.19973 8.62835 1.04076 8.5625 0.875 8.5625C0.70924 8.5625 0.550269 8.62835 0.433058 8.74556C0.315848 8.86277 0.25 9.02174 0.25 9.1875C0.251903 10.7364 0.828064 12.2295 1.86707 13.3782C2.90607 14.5268 4.3341 15.2495 5.875 15.4062V17.9375C5.875 18.1033 5.94085 18.2622 6.05806 18.3794C6.17527 18.4967 6.33424 18.5625 6.5 18.5625C6.66576 18.5625 6.82473 18.4967 6.94194 18.3794C7.05915 18.2622 7.125 18.1033 7.125 17.9375V15.4062C8.6659 15.2495 10.0939 14.5268 11.1329 13.3782C12.1719 12.2295 12.7481 10.7364 12.75 9.1875Z" fill="currentColor"/>
</svg>
