<svg width="15" height="20" viewBox="0 0 15 20" fill="none" xmlns="http://www.w3.org/2000/svg">
<path d="M14.7767 18.441C14.6428 18.564 14.4661 18.6282 14.2854 18.6195C14.1048 18.6108 13.9349 18.5298 13.8133 18.3945L11.1771 15.4628C10.2752 16.0507 9.24736 16.4117 8.17936 16.5156V19.3102C8.17936 19.4931 8.1075 19.6686 7.97958 19.798C7.85167 19.9273 7.67818 20 7.49728 20C7.31639 20 7.1429 19.9273 7.01499 19.798C6.88707 19.6686 6.81521 19.4931 6.81521 19.3102V16.5164C5.1336 16.3434 3.57517 15.5458 2.4413 14.2781C1.30742 13.0103 0.678649 11.3623 0.676572 9.6528C0.676572 9.46985 0.748433 9.29439 0.876346 9.16503C1.00426 9.03566 1.17775 8.96299 1.35864 8.96299C1.53954 8.96299 1.71303 9.03566 1.84094 9.16503C1.96885 9.29439 2.04071 9.46985 2.04071 9.6528C2.04229 11.1159 2.61769 12.5186 3.64065 13.5532C4.66362 14.5878 6.0506 15.1697 7.49728 15.1713C8.46233 15.1742 9.41054 14.9158 10.2435 14.4229L9.2971 13.3709C8.67311 13.6799 7.98159 13.8232 7.28771 13.7872C6.59383 13.7512 5.92043 13.5372 5.33097 13.1652C4.7415 12.7933 4.25538 12.2756 3.9184 11.6611C3.58143 11.0466 3.4047 10.3555 3.40486 9.6528V6.81508L0.17184 3.21857C0.0527318 3.08278 -0.00865593 2.90499 0.000985798 2.72373C0.0106275 2.54247 0.0905213 2.37237 0.223346 2.25029C0.356171 2.12821 0.531221 2.064 0.710545 2.07158C0.889868 2.07915 1.05901 2.15791 1.1813 2.29077L14.8227 17.4667C14.9444 17.602 15.0079 17.7808 14.9992 17.9635C14.9906 18.1462 14.9105 18.318 14.7767 18.441ZM12.7143 12.9975C12.8073 13.0442 12.9097 13.0684 13.0135 13.0682C13.1413 13.0683 13.2665 13.032 13.3749 12.9635C13.4833 12.8951 13.5705 12.7972 13.6265 12.6811C14.0842 11.7389 14.3208 10.7026 14.318 9.6528C14.318 9.46985 14.2461 9.29439 14.1182 9.16503C13.9903 9.03566 13.8168 8.96299 13.6359 8.96299C13.455 8.96299 13.2815 9.03566 13.1536 9.16503C13.0257 9.29439 12.9539 9.46985 12.9539 9.6528C12.9563 10.4924 12.7672 11.3212 12.4014 12.0749C12.3219 12.2392 12.3103 12.4287 12.3689 12.6017C12.4276 12.7748 12.5518 12.9171 12.7143 12.9975ZM10.3842 10.478C10.4728 10.5766 10.5878 10.6472 10.7152 10.6812C10.8427 10.7151 10.9771 10.711 11.1023 10.6693C11.2275 10.6276 11.338 10.5502 11.4206 10.4463C11.5032 10.3424 11.5542 10.2165 11.5675 10.0839C11.5821 9.94069 11.5895 9.7968 11.5897 9.6528V4.13429C11.5887 3.18369 11.2641 2.26241 10.6706 1.52531C10.077 0.788209 9.25068 0.280206 8.33042 0.0866811C7.41017 -0.106844 6.45209 0.0259049 5.61721 0.462618C4.78233 0.89933 4.12154 1.61339 3.74589 2.48478C3.69344 2.60658 3.67689 2.74111 3.69821 2.87219C3.71954 3.00328 3.77784 3.12535 3.86611 3.22374L10.3842 10.478Z" fill="currentColor"/>
</svg>
