<svg width="24" height="24" viewBox="0 0 24 24" fill="none" xmlns="http://www.w3.org/2000/svg">
<path d="M15.75 21C15.75 21.1989 15.671 21.3897 15.5303 21.5303C15.3897 21.671 15.1989 21.75 15 21.75H9C8.80109 21.75 8.61032 21.671 8.46967 21.5303C8.32902 21.3897 8.25 21.1989 8.25 21C8.25 20.8011 8.32902 20.6103 8.46967 20.4697C8.61032 20.329 8.80109 20.25 9 20.25H15C15.1989 20.25 15.3897 20.329 15.5303 20.4697C15.671 20.6103 15.75 20.8011 15.75 21ZM21.75 6V16.5C21.75 17.0967 21.5129 17.669 21.091 18.091C20.669 18.5129 20.0967 18.75 19.5 18.75H4.5C3.90326 18.75 3.33097 18.5129 2.90901 18.091C2.48705 17.669 2.25 17.0967 2.25 16.5V6C2.25 5.40326 2.48705 4.83097 2.90901 4.40901C3.33097 3.98705 3.90326 3.75 4.5 3.75H19.5C20.0967 3.75 20.669 3.98705 21.091 4.40901C21.5129 4.83097 21.75 5.40326 21.75 6ZM14.7806 9.96937L12.5306 7.71937C12.461 7.64964 12.3783 7.59432 12.2872 7.55658C12.1962 7.51884 12.0986 7.49941 12 7.49941C11.9014 7.49941 11.8038 7.51884 11.7128 7.55658C11.6217 7.59432 11.539 7.64964 11.4694 7.71937L9.21937 9.96937C9.07864 10.1101 8.99958 10.301 8.99958 10.5C8.99958 10.699 9.07864 10.8899 9.21937 11.0306C9.36011 11.1714 9.55098 11.2504 9.75 11.2504C9.94902 11.2504 10.1399 11.1714 10.2806 11.0306L11.25 10.0603V14.25C11.25 14.4489 11.329 14.6397 11.4697 14.7803C11.6103 14.921 11.8011 15 12 15C12.1989 15 12.3897 14.921 12.5303 14.7803C12.671 14.6397 12.75 14.4489 12.75 14.25V10.0603L13.7194 11.0306C13.7891 11.1003 13.8718 11.1556 13.9628 11.1933C14.0539 11.231 14.1515 11.2504 14.25 11.2504C14.3485 11.2504 14.4461 11.231 14.5372 11.1933C14.6282 11.1556 14.7109 11.1003 14.7806 11.0306C14.8503 10.9609 14.9056 10.8782 14.9433 10.7872C14.981 10.6961 15.0004 10.5985 15.0004 10.5C15.0004 10.4015 14.981 10.3039 14.9433 10.2128C14.9056 10.1218 14.8503 10.0391 14.7806 9.96937Z" fill="white"/>
</svg>
