<svg width="16" height="17" viewBox="0 0 16 17" fill="none" xmlns="http://www.w3.org/2000/svg">
<g clip-path="url(#clip0_1343_20474)">
<path d="M8.00128 16.0196C6.28432 16.0196 5.6768 14.8443 5.65184 14.7944C5.59766 14.6813 5.58989 14.5514 5.63019 14.4327C5.67048 14.3139 5.75565 14.2156 5.86747 14.1588C5.97929 14.102 6.10889 14.0913 6.22856 14.1288C6.34823 14.1663 6.44847 14.2492 6.50784 14.3596C6.52944 14.3995 6.90768 15.0596 8.00128 15.0596C9.10464 15.0596 9.47968 14.3872 9.4952 14.3587C9.61984 14.1281 9.90816 14.0369 10.1406 14.1571C10.2526 14.2142 10.3374 14.3132 10.3767 14.4325C10.416 14.5519 10.4066 14.6819 10.3506 14.7944C10.3258 14.8443 9.71824 16.0196 8.00128 16.0196ZM13.7491 10.0488L12.9419 9.24157C12.8972 9.19703 12.8618 9.14409 12.8376 9.08579C12.8135 9.02749 12.8011 8.96499 12.8013 8.90189V6.25485L11.8413 7.21485V8.90189C11.8413 9.28653 11.9914 9.64845 12.2632 9.92029L13.0704 10.7272C13.1374 10.794 13.1905 10.8735 13.2267 10.9609C13.2629 11.0484 13.2814 11.1421 13.2813 11.2368V11.4596C13.2813 11.8566 12.9582 12.1796 12.5613 12.1796H6.87648L5.91648 13.1396H12.5613C13.4875 13.1396 14.2413 12.3859 14.2413 11.4596V11.2368C14.2413 10.7884 14.0664 10.3664 13.7491 10.0488ZM14.5806 2.43901L2.10064 14.919C2.00688 15.0128 1.88416 15.0596 1.76128 15.0596C1.6384 15.0596 1.51568 15.0128 1.42192 14.919C1.37733 14.8745 1.34195 14.8216 1.31781 14.7633C1.29367 14.7051 1.28125 14.6427 1.28125 14.5796C1.28125 14.5166 1.29367 14.4542 1.31781 14.396C1.34195 14.3377 1.37733 14.2848 1.42192 14.2403L2.70512 12.9571C2.14832 12.6849 1.76128 12.1204 1.76128 11.4596V11.2368C1.76128 10.7884 1.93616 10.3665 2.25344 10.0489L3.06064 9.24157C3.10534 9.19703 3.14078 9.14409 3.16492 9.08579C3.18906 9.02749 3.20141 8.96499 3.20128 8.90189V5.93965C3.20128 3.29293 5.35472 1.13965 8.00128 1.13965C9.76592 1.13965 11.3056 2.10029 12.139 3.52301L13.9019 1.76029C14.0894 1.57277 14.3931 1.57277 14.5806 1.76029C14.7682 1.94781 14.7682 2.25149 14.5806 2.43901ZM3.48256 12.1796L11.4304 4.23181C10.8005 2.97101 9.50384 2.09965 8.00128 2.09965C5.884 2.09965 4.16128 3.82237 4.16128 5.93965V8.90189C4.16175 9.0911 4.1247 9.27853 4.05228 9.45333C3.97986 9.62813 3.8735 9.78685 3.73936 9.92029L2.93216 10.7275C2.86514 10.7943 2.812 10.8736 2.77581 10.961C2.73962 11.0485 2.72108 11.1422 2.72128 11.2368V11.4596C2.72128 11.8566 3.04432 12.1796 3.44128 12.1796H3.48256Z" fill="#6B6B6B"/>
</g>
<defs>
<clipPath id="clip0_1343_20474">
<rect width="16" height="16" fill="white" transform="translate(0 0.5)"/>
</clipPath>
</defs>
</svg>
