<svg width="18" height="19" viewBox="0 0 18 19" fill="none" xmlns="http://www.w3.org/2000/svg">
<g clip-path="url(#clip0_4441_2749)">
<path d="M10.6875 0.570312H2.0625C0.9225 0.570312 0 1.49281 0 2.63281V14.2578C0 15.3978 0.9225 16.3203 2.0625 16.3203H8.175C7.545 15.3228 7.125 14.1453 7.125 12.7953V10.9653C7.0125 11.0328 6.885 11.0703 6.75 11.0703H3C2.5875 11.0703 2.25 10.7328 2.25 10.3203C2.25 9.90781 2.5875 9.57031 3 9.57031H6.75C6.8925 9.57031 7.02 9.60781 7.1325 9.67531C7.1625 9.03781 7.4625 8.45281 7.935 8.07031H3C2.5875 8.07031 2.25 7.73281 2.25 7.32031C2.25 6.90781 2.5875 6.57031 3 6.57031H9.75C10.065 6.57031 10.335 6.76531 10.4475 7.04281L12.585 6.31531C12.6375 6.29281 12.69 6.27781 12.75 6.27031V2.63281C12.75 1.49281 11.8275 0.570312 10.6875 0.570312ZM6 5.07031H3C2.5875 5.07031 2.25 4.73281 2.25 4.32031C2.25 3.90781 2.5875 3.57031 3 3.57031H6C6.4125 3.57031 6.75 3.90781 6.75 4.32031C6.75 4.73281 6.4125 5.07031 6 5.07031Z" fill="currentColor"/>
<path d="M17.4923 9.07475L13.5548 7.73525C13.398 7.682 13.2278 7.682 13.071 7.73525L9.1335 9.07475C8.82975 9.17825 8.625 9.464 8.625 9.785V12.7985C8.625 16.5988 12.8393 18.4348 13.0185 18.5113C13.113 18.551 13.2135 18.5705 13.3133 18.5705C13.413 18.5705 13.5135 18.551 13.6073 18.5105C13.7865 18.434 18.0008 16.5988 18.0008 12.7985V9.785C18.0008 9.46325 17.7968 9.17825 17.4923 9.07475ZM15.9758 11.8955L13.7258 14.8955C13.5953 15.0695 13.3965 15.1783 13.179 15.1933C13.161 15.1948 13.143 15.1955 13.1258 15.1955C12.927 15.1955 12.7365 15.1175 12.5955 14.9758L11.0955 13.4758C10.8023 13.1825 10.8023 12.7085 11.0955 12.4153C11.3888 12.122 11.8628 12.122 12.156 12.4153L13.0448 13.304L14.7758 10.9955C15.024 10.6647 15.4943 10.5965 15.825 10.8455C16.1573 11.0937 16.2248 11.564 15.9758 11.8955Z" fill="currentColor"/>
</g>
<defs>
<clipPath id="clip0_4441_2749">
<rect width="18" height="18" fill="white" transform="translate(0 0.570312)"/>
</clipPath>
</defs>
</svg>
