<svg width="7" height="11" viewBox="0 0 7 11" fill="none" xmlns="http://www.w3.org/2000/svg">
<path d="M1.24902 0.623291C1.29834 0.623291 1.34702 0.633688 1.39258 0.652588C1.43814 0.671493 1.47981 0.69872 1.51465 0.733643L6.01465 5.23364C6.04957 5.26848 6.0768 5.31015 6.0957 5.35571C6.1146 5.40127 6.125 5.44995 6.125 5.49927C6.125 5.54859 6.1146 5.59727 6.0957 5.64282C6.0768 5.68838 6.04957 5.73006 6.01465 5.76489L1.51465 10.2649C1.44423 10.3353 1.34861 10.3743 1.24902 10.3743C1.14944 10.3743 1.05381 10.3353 0.983398 10.2649C0.912983 10.1945 0.874023 10.0988 0.874023 9.99927C0.874023 9.89969 0.912983 9.80406 0.983398 9.73364L5.21875 5.49927L0.983398 1.26489C0.948476 1.23006 0.921249 1.18838 0.902344 1.14282C0.883444 1.09727 0.873047 1.04859 0.873047 0.999268C0.873047 0.949949 0.883444 0.901266 0.902344 0.855713C0.921249 0.810154 0.948476 0.768477 0.983398 0.733643C1.01823 0.69872 1.05991 0.671493 1.10547 0.652588C1.15102 0.633688 1.19971 0.623291 1.24902 0.623291Z" fill="currentColor"/>
</svg>
