<svg width="100" height="100" viewBox="0 0 100 100" fill="none" xmlns="http://www.w3.org/2000/svg">
<g clip-path="url(#clip0_10918_35740)">
<path d="M98.0469 54.6621C99.1256 54.6621 100 53.7877 100 52.709C100 51.6303 99.1256 50.7559 98.0469 50.7559C96.9682 50.7559 96.0938 51.6303 96.0938 52.709C96.0938 53.7877 96.9682 54.6621 98.0469 54.6621Z" fill="currentcolor"/>
<path d="M90.2344 0H9.76562C4.38086 0 0 4.38086 0 9.76562V79.9805C0 81.2988 0.257813 82.5781 0.767578 83.7812C1.66191 85.91 3.55273 87.9742 5.96484 88.9785C7.16797 89.4863 8.44727 89.7461 9.76562 89.7461H79.2637L79.2662 89.7477L89.0557 99.435C89.4361 99.8115 89.9326 99.9998 90.4295 99.9998C90.9213 99.9998 91.4131 99.8152 91.7926 99.4455L99.4098 92.0236C99.7842 91.659 99.9967 91.1594 99.9998 90.6367C100.003 90.1143 99.7967 89.6121 99.4268 89.2428L97.102 86.9209C98.0078 86.0244 98.7205 84.9779 99.2184 83.8102C99.7357 82.5973 99.9996 81.3082 99.9996 79.9801V61.4977C99.9996 60.4215 99.1227 59.5445 98.0465 59.5445C96.9703 59.5445 96.0934 60.4215 96.0934 61.4977V79.9801C96.0934 81.5883 95.4547 83.0732 94.3383 84.1607L82.7334 72.5707C82.0904 71.9283 81.1121 71.8301 80.3635 72.2711L77.0104 68.9182C79.9975 64.3801 81.7383 58.9523 81.7383 53.125C81.7383 37.2398 68.8148 24.3164 52.9297 24.3164C37.0445 24.3164 24.1211 37.2398 24.1211 53.125C24.1211 69.0102 37.0445 81.9336 52.9297 81.9336C58.7572 81.9336 64.1848 80.1926 68.7232 77.2061L72.0764 80.5594C71.9004 80.8586 71.8037 81.201 71.8045 81.5541C71.8059 82.0738 72.0143 82.5717 72.3838 82.9373L75.3172 85.84H9.76562C6.54102 85.8342 3.91211 83.2053 3.90625 79.9807V19.5312H96.0938V43.9199C96.0938 44.9961 96.9707 45.873 98.0469 45.873C99.123 45.873 100 44.9961 100 43.9199V9.76562C100 4.38086 95.6191 0 90.2344 0ZM95.2658 90.6078L90.4404 95.3096L76.5273 81.5416L81.3547 76.7143L95.2658 90.6078ZM28.0273 53.125C28.0273 39.3937 39.1984 28.2227 52.9297 28.2227C66.6609 28.2227 77.832 39.3937 77.832 53.125C77.832 66.8563 66.6609 78.0273 52.9297 78.0273C39.1984 78.0273 28.0273 66.8563 28.0273 53.125ZM74.6283 72.0537C74.6309 72.0588 77.5561 74.9883 77.5561 74.9883L74.7928 77.7516L71.8625 74.8199C72.8455 73.9611 73.7697 73.0367 74.6283 72.0537ZM3.90625 15.625V9.76562C3.90625 6.53477 6.53477 3.90625 9.76562 3.90625H90.2344C93.4652 3.90625 96.0938 6.53477 96.0938 9.76562V15.625H3.90625Z" fill="currentcolor"/>
<path d="M11.7188 11.7188C12.7974 11.7188 13.6719 10.8443 13.6719 9.76562C13.6719 8.68694 12.7974 7.8125 11.7188 7.8125C10.6401 7.8125 9.76562 8.68694 9.76562 9.76562C9.76562 10.8443 10.6401 11.7188 11.7188 11.7188Z" fill="currentcolor"/>
<path d="M29.2969 11.7188C30.3756 11.7188 31.25 10.8443 31.25 9.76562C31.25 8.68694 30.3756 7.8125 29.2969 7.8125C28.2182 7.8125 27.3438 8.68694 27.3438 9.76562C27.3438 10.8443 28.2182 11.7188 29.2969 11.7188Z" fill="currentcolor"/>
<path d="M20.5078 11.7188C21.5865 11.7188 22.4609 10.8443 22.4609 9.76562C22.4609 8.68694 21.5865 7.8125 20.5078 7.8125C19.4291 7.8125 18.5547 8.68694 18.5547 9.76562C18.5547 10.8443 19.4291 11.7188 20.5078 11.7188Z" fill="currentcolor"/>
<path d="M88.2812 7.8125H70.7031C69.6246 7.8125 68.75 8.68691 68.75 9.76562C68.75 10.8443 69.6246 11.7188 70.7031 11.7188H88.2812C89.3598 11.7188 90.2344 10.8443 90.2344 9.76562C90.2344 8.68691 89.3598 7.8125 88.2812 7.8125Z" fill="currentcolor"/>
<path d="M52.9297 32.1289C41.3523 32.1289 31.9336 41.5477 31.9336 53.125C31.9336 64.7023 41.3523 74.1211 52.9297 74.1211C64.5068 74.1211 73.9258 64.7023 73.9258 53.125C73.9258 41.5477 64.5068 32.1289 52.9297 32.1289ZM52.9297 70.2148C43.5062 70.2148 35.8398 62.5484 35.8398 53.125C35.8398 43.7016 43.5062 36.0352 52.9297 36.0352C62.3531 36.0352 70.0195 43.7016 70.0195 53.125C70.0195 62.5484 62.3531 70.2148 52.9297 70.2148Z" fill="currentcolor"/>
<path d="M61.9066 44.1481C61.1437 43.3854 59.9074 43.3854 59.1443 44.1481L52.9297 50.3629L46.7148 44.1481C45.9521 43.3852 44.7154 43.3854 43.9527 44.1481C43.19 44.9107 43.19 46.1475 43.9527 46.9102L50.1676 53.125L43.9527 59.3399C43.19 60.1025 43.19 61.3391 43.9527 62.1018C44.6758 62.825 45.9574 62.8594 46.715 62.1018L52.9299 55.8869C52.9299 55.8869 59.1275 62.0846 59.1445 62.1018C59.8611 62.8184 61.1582 62.8504 61.9068 62.102C62.6695 61.3393 62.6695 60.1025 61.9068 59.3399L55.6918 53.125L61.9066 46.9102C62.6693 46.1475 62.6693 44.9107 61.9066 44.1481Z" fill="currentcolor"/>
</g>
<defs>
<clipPath id="clip0_10918_35740">
<rect width="100" height="100" fill="white"/>
</clipPath>
</defs>
</svg>
