<svg width="24" height="25" viewBox="0 0 24 25" fill="none" xmlns="http://www.w3.org/2000/svg">
<path d="M16 4.75C16 5.99 14.99 7 13.75 7H10.25C9.63 7 9.07 6.75 8.66 6.34C8.25 5.93 8 5.37 8 4.75C8 3.51 9.01 2.5 10.25 2.5H13.75C14.37 2.5 14.93 2.75 15.34 3.16C15.75 3.57 16 4.13 16 4.75Z" fill="currentColor"/>
<path d="M18.83 5.52996C18.6 5.33996 18.34 5.18996 18.06 5.07996C17.77 4.96996 17.48 5.19996 17.42 5.49996C17.08 7.20996 15.57 8.49996 13.75 8.49996H10.25C9.25 8.49996 8.31 8.10996 7.6 7.39996C7.08 6.87996 6.72 6.21996 6.58 5.50996C6.52 5.20996 6.22 4.96996 5.93 5.08996C4.77 5.55996 4 6.61996 4 8.74996V18.5C4 21.5 5.79 22.5 8 22.5H16C18.21 22.5 20 21.5 20 18.5V8.74996C20 7.11996 19.55 6.11996 18.83 5.52996ZM8 12.75H12C12.41 12.75 12.75 13.09 12.75 13.5C12.75 13.91 12.41 14.25 12 14.25H8C7.59 14.25 7.25 13.91 7.25 13.5C7.25 13.09 7.59 12.75 8 12.75ZM16 18.25H8C7.59 18.25 7.25 17.91 7.25 17.5C7.25 17.09 7.59 16.75 8 16.75H16C16.41 16.75 16.75 17.09 16.75 17.5C16.75 17.91 16.41 18.25 16 18.25Z" fill="currentColor"/>
</svg>
