<svg width="14" height="14" viewBox="0 0 14 14" fill="none" xmlns="http://www.w3.org/2000/svg">
<path d="M7.01686 13.8974C5.26936 13.8974 3.52185 13.6199 1.86435 13.0649C1.23435 12.8474 0.754355 12.4049 0.544355 11.8274C0.326855 11.2499 0.401855 10.6124 0.746855 10.0424L1.60935 8.60994C1.78935 8.30994 1.95436 7.70994 1.95436 7.35744V5.18994C1.95436 2.39994 4.22686 0.127441 7.01686 0.127441C9.80686 0.127441 12.0794 2.39994 12.0794 5.18994V7.35744C12.0794 7.70244 12.2444 8.30994 12.4244 8.61744L13.2794 10.0424C13.6019 10.5824 13.6619 11.2349 13.4444 11.8274C13.2269 12.4199 12.7544 12.8699 12.1619 13.0649C10.5119 13.6199 8.76436 13.8974 7.01686 13.8974ZM7.01686 1.25244C4.84936 1.25244 3.07936 3.01494 3.07936 5.18994V7.35744C3.07936 7.90494 2.85435 8.71494 2.57685 9.18744L1.71435 10.6199C1.54935 10.8974 1.50435 11.1899 1.60186 11.4374C1.69185 11.6924 1.91686 11.8874 2.22435 11.9924C5.35935 13.0424 8.68186 13.0424 11.8169 11.9924C12.0869 11.9024 12.2969 11.6999 12.3944 11.4299C12.4919 11.1599 12.4694 10.8674 12.3194 10.6199L11.4569 9.18744C11.1719 8.69994 10.9544 7.89744 10.9544 7.34994V5.18994C10.9544 3.01494 9.19186 1.25244 7.01686 1.25244Z" fill="currentColor"/>
</svg>
