<svg width="16" height="16" viewBox="0 0 16 16" fill="none" xmlns="http://www.w3.org/2000/svg">
<path d="M6.31719 10.1867C6.19052 10.1867 6.06385 10.14 5.96385 10.04C5.41719 9.49334 5.11719 8.76668 5.11719 8.00001C5.11719 6.40668 6.41052 5.11334 8.00385 5.11334C8.77052 5.11334 9.49719 5.41334 10.0439 5.96001C10.1372 6.05334 10.1905 6.18001 10.1905 6.31334C10.1905 6.44668 10.1372 6.57334 10.0439 6.66668L6.67052 10.04C6.57052 10.14 6.44385 10.1867 6.31719 10.1867ZM8.00385 6.11334C6.96385 6.11334 6.11719 6.96001 6.11719 8.00001C6.11719 8.33334 6.20385 8.65334 6.36385 8.93334L8.93719 6.36001C8.65719 6.20001 8.33719 6.11334 8.00385 6.11334Z" fill="currentColor"/>
<path d="M3.73323 12.34C3.6199 12.34 3.4999 12.3 3.40656 12.22C2.69323 11.6133 2.05323 10.8667 1.50656 10C0.799896 8.9 0.799896 7.10666 1.50656 6C3.13323 3.45333 5.4999 1.98666 7.9999 1.98666C9.46656 1.98666 10.9132 2.49333 12.1799 3.44666C12.3999 3.61333 12.4466 3.92666 12.2799 4.14666C12.1132 4.36666 11.7999 4.41333 11.5799 4.24666C10.4866 3.42 9.24656 2.98666 7.9999 2.98666C5.84656 2.98666 3.78656 4.28 2.34656 6.54C1.84656 7.32 1.84656 8.68 2.34656 9.46C2.84656 10.24 3.4199 10.9133 4.05323 11.46C4.2599 11.64 4.28656 11.9533 4.10656 12.1667C4.01323 12.28 3.87323 12.34 3.73323 12.34Z" fill="currentColor"/>
<path d="M8.00167 14.0133C7.115 14.0133 6.24834 13.8333 5.415 13.48C5.16167 13.3733 5.04167 13.08 5.14834 12.8267C5.255 12.5733 5.54834 12.4533 5.80167 12.56C6.50834 12.86 7.24834 13.0133 7.995 13.0133C10.1483 13.0133 12.2083 11.72 13.6483 9.45999C14.1483 8.67999 14.1483 7.31999 13.6483 6.53999C13.4417 6.21332 13.215 5.89999 12.975 5.60666C12.8017 5.39332 12.835 5.07999 13.0483 4.89999C13.2617 4.72666 13.575 4.75332 13.755 4.97332C14.015 5.29332 14.2683 5.63999 14.495 5.99999C15.2017 7.09999 15.2017 8.89332 14.495 9.99999C12.8683 12.5467 10.5017 14.0133 8.00167 14.0133Z" fill="currentColor"/>
<path d="M8.46363 10.8467C8.2303 10.8467 8.01697 10.68 7.9703 10.44C7.91697 10.1667 8.09697 9.90665 8.3703 9.85999C9.10363 9.72665 9.71697 9.11332 9.8503 8.37999C9.90363 8.10665 10.1636 7.93332 10.437 7.97999C10.7103 8.03332 10.8903 8.29332 10.837 8.56665C10.6236 9.71999 9.70363 10.6333 8.55697 10.8467C8.52363 10.84 8.49697 10.8467 8.46363 10.8467Z" fill="currentColor"/>
<path d="M1.33427 15.1667C1.2076 15.1667 1.08094 15.12 0.980938 15.02C0.787604 14.8267 0.787604 14.5067 0.980938 14.3133L5.96094 9.33332C6.15427 9.13999 6.47427 9.13999 6.6676 9.33332C6.86094 9.52666 6.86094 9.84666 6.6676 10.04L1.6876 15.02C1.5876 15.12 1.46094 15.1667 1.33427 15.1667Z" fill="currentColor"/>
<path d="M9.68583 6.81333C9.55917 6.81333 9.4325 6.76666 9.3325 6.66666C9.13917 6.47333 9.13917 6.15332 9.3325 5.95999L14.3125 0.979991C14.5058 0.786658 14.8258 0.786658 15.0192 0.979991C15.2125 1.17332 15.2125 1.49332 15.0192 1.68666L10.0392 6.66666C9.93917 6.76666 9.8125 6.81333 9.68583 6.81333Z" fill="currentColor"/>
</svg>
