<svg width="16" height="17" viewBox="0 0 16 17" fill="none" xmlns="http://www.w3.org/2000/svg">
<path d="M8.00385 11.3867C6.41052 11.3867 5.11719 10.0933 5.11719 8.50001C5.11719 6.90668 6.41052 5.61334 8.00385 5.61334C9.59719 5.61334 10.8905 6.90668 10.8905 8.50001C10.8905 10.0933 9.59719 11.3867 8.00385 11.3867ZM8.00385 6.61334C6.96385 6.61334 6.11719 7.46001 6.11719 8.50001C6.11719 9.54001 6.96385 10.3867 8.00385 10.3867C9.04385 10.3867 9.89052 9.54001 9.89052 8.50001C9.89052 7.46001 9.04385 6.61334 8.00385 6.61334Z" fill="currentColor"/>
<path d="M7.99875 14.5133C5.49208 14.5133 3.12542 13.0467 1.49875 10.5C0.792083 9.4 0.792083 7.60666 1.49875 6.5C3.13208 3.95333 5.49875 2.48666 7.99875 2.48666C10.4988 2.48666 12.8654 3.95333 14.4921 6.5C15.1988 7.6 15.1988 9.39333 14.4921 10.5C12.8654 13.0467 10.4988 14.5133 7.99875 14.5133ZM7.99875 3.48666C5.84542 3.48666 3.78542 4.78 2.34542 7.04C1.84542 7.82 1.84542 9.18 2.34542 9.96C3.78542 12.22 5.84542 13.5133 7.99875 13.5133C10.1521 13.5133 12.2121 12.22 13.6521 9.96C14.1521 9.18 14.1521 7.82 13.6521 7.04C12.2121 4.78 10.1521 3.48666 7.99875 3.48666Z" fill="currentColor"/>
</svg>
