<svg width="16" height="13" viewBox="0 0 16 13" fill="none" xmlns="http://www.w3.org/2000/svg">
<path d="M14.75 0.945312H1.25C0.951631 0.945313 0.665483 1.06384 0.454505 1.27482C0.243526 1.4858 0.125 1.77194 0.125 2.07031V11.0703C0.125 11.3687 0.243526 11.6548 0.454505 11.8658C0.665483 12.0768 0.951631 12.1953 1.25 12.1953H14.75C15.0484 12.1953 15.3345 12.0768 15.5455 11.8658C15.7565 11.6548 15.875 11.3687 15.875 11.0703V2.07031C15.875 1.77194 15.7565 1.4858 15.5455 1.27482C15.3345 1.06384 15.0484 0.945313 14.75 0.945312ZM8.5625 9.94531H7.4375C7.28832 9.94531 7.14524 9.88605 7.03975 9.78056C6.93426 9.67507 6.875 9.532 6.875 9.38281C6.875 9.23363 6.93426 9.09055 7.03975 8.98506C7.14524 8.87958 7.28832 8.82031 7.4375 8.82031H8.5625C8.71168 8.82031 8.85476 8.87958 8.96025 8.98506C9.06574 9.09055 9.125 9.23363 9.125 9.38281C9.125 9.532 9.06574 9.67507 8.96025 9.78056C8.85476 9.88605 8.71168 9.94531 8.5625 9.94531ZM13.0625 9.94531H10.8125C10.6633 9.94531 10.5202 9.88605 10.4148 9.78056C10.3093 9.67507 10.25 9.532 10.25 9.38281C10.25 9.23363 10.3093 9.09055 10.4148 8.98506C10.5202 8.87958 10.6633 8.82031 10.8125 8.82031H13.0625C13.2117 8.82031 13.3548 8.87958 13.4602 8.98506C13.5657 9.09055 13.625 9.23363 13.625 9.38281C13.625 9.532 13.5657 9.67507 13.4602 9.78056C13.3548 9.88605 13.2117 9.94531 13.0625 9.94531ZM1.25 3.75781V2.07031H14.75V3.75781H1.25Z" fill="currentColor"/>
</svg>
