<svg width="20" height="21" viewBox="0 0 20 21" fill="none" xmlns="http://www.w3.org/2000/svg">
<g clip-path="url(#clip0_1882_45915)">
<path d="M11.875 0.5H2.29167C1.025 0.5 0 1.525 0 2.79167V15.7083C0 16.975 1.025 18 2.29167 18H9.08333C8.38333 16.8917 7.91667 15.5833 7.91667 14.0833V12.05C7.79167 12.125 7.65 12.1667 7.5 12.1667H3.33333C2.875 12.1667 2.5 11.7917 2.5 11.3333C2.5 10.875 2.875 10.5 3.33333 10.5H7.5C7.65833 10.5 7.8 10.5417 7.925 10.6167C7.95833 9.90833 8.29167 9.25833 8.81667 8.83333H3.33333C2.875 8.83333 2.5 8.45833 2.5 8C2.5 7.54167 2.875 7.16667 3.33333 7.16667H10.8333C11.1833 7.16667 11.4833 7.38333 11.6083 7.69167L13.9833 6.88333C14.0417 6.85833 14.1 6.84167 14.1667 6.83333V2.79167C14.1667 1.525 13.1417 0.5 11.875 0.5ZM6.66667 5.5H3.33333C2.875 5.5 2.5 5.125 2.5 4.66667C2.5 4.20833 2.875 3.83333 3.33333 3.83333H6.66667C7.125 3.83333 7.5 4.20833 7.5 4.66667C7.5 5.125 7.125 5.5 6.66667 5.5Z" fill="currentcolor"/>
<path d="M19.4384 9.94921L15.0634 8.46088C14.8893 8.40171 14.7001 8.40171 14.5259 8.46088L10.1509 9.94921C9.81344 10.0642 9.58594 10.3817 9.58594 10.7384V14.0867C9.58594 18.3092 14.2684 20.3492 14.4676 20.4342C14.5726 20.4784 14.6843 20.5 14.7951 20.5C14.9059 20.5 15.0176 20.4784 15.1218 20.4334C15.3209 20.3484 20.0034 18.3092 20.0034 14.0867V10.7384C20.0034 10.3809 19.7768 10.0642 19.4384 9.94921ZM17.7534 13.0834L15.2534 16.4167C15.1084 16.61 14.8876 16.7309 14.6459 16.7475C14.6259 16.7492 14.6059 16.75 14.5868 16.75C14.3659 16.75 14.1543 16.6634 13.9976 16.5059L12.3309 14.8392C12.0051 14.5134 12.0051 13.9867 12.3309 13.6609C12.6568 13.335 13.1834 13.335 13.5093 13.6609L14.4968 14.6484L16.4201 12.0834C16.6959 11.7159 17.2184 11.64 17.5859 11.9167C17.9551 12.1925 18.0301 12.715 17.7534 13.0834Z" fill="currentcolor"/>
</g>
<defs>
<clipPath id="clip0_1882_45915">
<rect width="20" height="20" fill="white" transform="translate(0 0.5)"/>
</clipPath>
</defs>
</svg>
