<svg width="26" height="26" viewBox="0 0 26 26" fill="none" xmlns="http://www.w3.org/2000/svg">
<path d="M18.2375 0.5H7.7625C3.2125 0.5 0.5 3.2125 0.5 7.7625V18.2375C0.5 22.7875 3.2125 25.5 7.7625 25.5H18.2375C22.7875 25.5 25.5 22.7875 25.5 18.2375V7.7625C25.5 3.2125 22.7875 0.5 18.2375 0.5ZM10.4625 16.625L7.65 19.4375C7.4625 19.625 7.225 19.7125 6.9875 19.7125C6.75 19.7125 6.5 19.625 6.325 19.4375L5.3875 18.5C5.0125 18.1375 5.0125 17.5375 5.3875 17.175C5.75 16.8125 6.3375 16.8125 6.7125 17.175L6.9875 17.45L9.1375 15.3C9.5 14.9375 10.0875 14.9375 10.4625 15.3C10.825 15.6625 10.825 16.2625 10.4625 16.625ZM10.4625 7.875L7.65 10.6875C7.4625 10.875 7.225 10.9625 6.9875 10.9625C6.75 10.9625 6.5 10.875 6.325 10.6875L5.3875 9.75C5.0125 9.3875 5.0125 8.7875 5.3875 8.425C5.75 8.0625 6.3375 8.0625 6.7125 8.425L6.9875 8.7L9.1375 6.55C9.5 6.1875 10.0875 6.1875 10.4625 6.55C10.825 6.9125 10.825 7.5125 10.4625 7.875ZM19.95 18.775H13.3875C12.875 18.775 12.45 18.35 12.45 17.8375C12.45 17.325 12.875 16.9 13.3875 16.9H19.95C20.475 16.9 20.8875 17.325 20.8875 17.8375C20.8875 18.35 20.475 18.775 19.95 18.775ZM19.95 10.025H13.3875C12.875 10.025 12.45 9.6 12.45 9.0875C12.45 8.575 12.875 8.15 13.3875 8.15H19.95C20.475 8.15 20.8875 8.575 20.8875 9.0875C20.8875 9.6 20.475 10.025 19.95 10.025Z" fill="currentColor"/>
</svg>
