<svg width="18" height="18" viewBox="0 0 18 18" fill="none" xmlns="http://www.w3.org/2000/svg">
    <path d="M17.3327 16.2084H16.4993V6.81672C16.4993 6.30006 16.266 5.81672 15.8577 5.50006L14.8327 4.70006L14.816 2.65839C14.816 2.20006 14.441 1.83339 13.9827 1.83339H11.141L10.0243 0.966724C9.42435 0.491724 8.57435 0.491724 7.97435 0.966724L2.14102 5.50006C1.73268 5.81672 1.49935 6.30006 1.49935 6.80839L1.45768 16.2084H0.666016C0.324349 16.2084 0.0410156 16.4917 0.0410156 16.8334C0.0410156 17.1751 0.324349 17.4584 0.666016 17.4584H17.3327C17.6744 17.4584 17.9577 17.1751 17.9577 16.8334C17.9577 16.4917 17.6744 16.2084 17.3327 16.2084ZM4.41602 9.12506V7.87506C4.41602 7.41672 4.79102 7.04172 5.24935 7.04172H6.91602C7.37435 7.04172 7.74935 7.41672 7.74935 7.87506V9.12506C7.74935 9.58339 7.37435 9.95839 6.91602 9.95839H5.24935C4.79102 9.95839 4.41602 9.58339 4.41602 9.12506ZM11.0827 16.2084H6.91602V13.9167C6.91602 13.2251 7.47435 12.6667 8.16602 12.6667H9.83268C10.5243 12.6667 11.0827 13.2251 11.0827 13.9167V16.2084ZM13.5827 9.12506C13.5827 9.58339 13.2077 9.95839 12.7493 9.95839H11.0827C10.6243 9.95839 10.2493 9.58339 10.2493 9.12506V7.87506C10.2493 7.41672 10.6243 7.04172 11.0827 7.04172H12.7493C13.2077 7.04172 13.5827 7.41672 13.5827 7.87506V9.12506Z" fill="currentColor" />
</svg>
