<svg width="13" height="15" viewBox="0 0 13 15" fill="none" xmlns="http://www.w3.org/2000/svg">
<path d="M12.375 7.50011C12.3755 7.69109 12.3265 7.87895 12.2329 8.04541C12.1392 8.21187 12.0041 8.35126 11.8406 8.45003L1.71 14.6474C1.5392 14.752 1.34358 14.8091 1.14334 14.8128C0.943094 14.8165 0.745492 14.7667 0.570938 14.6685C0.398046 14.5718 0.254022 14.4308 0.153678 14.26C0.053333 14.0893 0.000288884 13.8948 0 13.6967V1.30347C0.000288884 1.10539 0.053333 0.910956 0.153678 0.740173C0.254022 0.569389 0.398046 0.428415 0.570938 0.331747C0.745492 0.233555 0.943094 0.183741 1.14334 0.187449C1.34358 0.191157 1.5392 0.248253 1.71 0.352841L11.8406 6.55018C12.0041 6.64895 12.1392 6.78835 12.2329 6.9548C12.3265 7.12126 12.3755 7.30912 12.375 7.50011Z" fill="currentColor"/>
</svg>
