<svg width="7" height="11" viewBox="0 0 7 11" fill="none" xmlns="http://www.w3.org/2000/svg">
<path d="M5.74902 0.623047C5.79834 0.623047 5.84702 0.633444 5.89258 0.652344C5.93814 0.671249 5.97981 0.698476 6.01465 0.733398C6.04957 0.768233 6.0768 0.80991 6.0957 0.855469C6.1146 0.901022 6.125 0.949705 6.125 0.999023C6.125 1.04834 6.1146 1.09702 6.0957 1.14258C6.0768 1.18814 6.04957 1.22981 6.01465 1.26465L1.7793 5.49902L6.01465 9.7334C6.08506 9.80381 6.12402 9.89944 6.12402 9.99902C6.12402 10.0986 6.08506 10.1942 6.01465 10.2646C5.94423 10.3351 5.84861 10.374 5.74902 10.374C5.64944 10.374 5.55381 10.3351 5.4834 10.2646L0.983398 5.76465C0.948476 5.72981 0.921249 5.68814 0.902344 5.64258C0.883444 5.59702 0.873047 5.54834 0.873047 5.49902C0.873047 5.44971 0.883444 5.40102 0.902344 5.35547C0.921248 5.30991 0.948476 5.26823 0.983398 5.2334L5.4834 0.733398C5.51823 0.698476 5.55991 0.671249 5.60547 0.652344C5.65102 0.633444 5.69971 0.623047 5.74902 0.623047Z" fill="currentColor"/>
</svg>
