<svg
  width="18"
  height="18"
  viewBox="0 0 18 18"
  fill="none"
  xmlns="http://www.w3.org/2000/svg"
>
  <path
    d="M16.1817 14.9375L16.1826 14.9389C16.2175 14.9958 16.2406 15.0591 16.2507 15.1251C16.2607 15.1912 16.2574 15.2585 16.241 15.3232C16.2246 15.3879 16.1954 15.4487 16.1551 15.502C16.1148 15.5552 16.0642 15.5999 16.0064 15.6332C15.9486 15.6666 15.8847 15.6881 15.8184 15.6964C15.7522 15.7047 15.6849 15.6996 15.6207 15.6815C15.5564 15.6634 15.4964 15.6326 15.4443 15.5909C15.3921 15.5493 15.3488 15.4976 15.3169 15.4389L15.3161 15.4374C13.9805 13.1292 11.6187 11.75 8.99925 11.75C6.37979 11.75 4.01802 13.1292 2.68242 15.4374L2.68159 15.4389C2.64973 15.4976 2.60643 15.5493 2.55427 15.5909C2.5021 15.6326 2.44212 15.6634 2.37785 15.6815C2.31359 15.6996 2.24635 15.7047 2.18009 15.6964C2.11384 15.6881 2.04992 15.6666 1.9921 15.6332C1.93429 15.5999 1.88374 15.5552 1.84346 15.502C1.80317 15.4487 1.77396 15.3879 1.75754 15.3232C1.74112 15.2585 1.73783 15.1912 1.74787 15.1251C1.7579 15.0591 1.78106 14.9958 1.81596 14.9389L1.81679 14.9375C2.88008 13.0986 4.51808 11.7812 6.42903 11.1575L6.55988 11.1148L6.44161 11.0444C5.50075 10.4843 4.76977 9.63082 4.3609 8.61507C3.95204 7.59932 3.88792 6.47744 4.17837 5.42171C4.46883 4.36599 5.0978 3.43479 5.96871 2.77113C6.83961 2.10747 7.90429 1.74805 8.99925 1.74805C10.0942 1.74805 11.1589 2.10747 12.0298 2.77113C12.9007 3.43479 13.5297 4.36599 13.8202 5.42171C14.1106 6.47744 14.0465 7.59932 13.6376 8.61507C13.2288 9.63082 12.4978 10.4843 11.5569 11.0444L11.4387 11.1148L11.5695 11.1575C13.4804 11.7819 15.1184 13.0993 16.1817 14.9375ZM4.99925 6.74996C5.00038 7.81046 5.42217 8.82727 6.17205 9.57715C6.92194 10.327 7.93868 10.7488 8.99918 10.75C9.7903 10.75 10.5638 10.5154 11.2216 10.0758C11.8794 9.63631 12.392 9.0116 12.6948 8.28069C12.9975 7.54979 13.0768 6.74552 12.9224 5.9696C12.7681 5.19367 12.3871 4.48094 11.8277 3.92153C11.2683 3.36212 10.5556 2.98116 9.77961 2.82682C9.00368 2.67248 8.19942 2.75169 7.46851 3.05444C6.73761 3.35719 6.11289 3.86988 5.67337 4.52768C5.23384 5.18548 4.99925 5.95883 4.99925 6.74996Z"
    fill="currentColor"
    stroke="currentColor"
    stroke-width="0.125"
  />
</svg>
