<svg width="40" height="40" viewBox="0 0 40 40" fill="none" xmlns="http://www.w3.org/2000/svg">
<rect width="40" height="40" rx="20" fill="currentColor"/>
<rect x="0.5" y="0.5" width="39" height="39" rx="19.5" stroke="black" stroke-opacity="0.2"/>
<path d="M20.0022 13.2625C15.6205 13.2625 12.0547 16.8283 12.0547 21.21C12.0547 25.5916 15.6205 29.1666 20.0022 29.1666C24.3839 29.1666 27.9497 25.6008 27.9497 21.2191C27.9497 16.8375 24.3839 13.2625 20.0022 13.2625ZM20.6897 20.9166C20.6897 21.2925 20.378 21.6041 20.0022 21.6041C19.6264 21.6041 19.3147 21.2925 19.3147 20.9166V16.3333C19.3147 15.9575 19.6264 15.6458 20.0022 15.6458C20.378 15.6458 20.6897 15.9575 20.6897 16.3333V20.9166Z" fill="white"/>
<path d="M22.6458 12.1625H17.3475C16.9808 12.1625 16.6875 11.8692 16.6875 11.5025C16.6875 11.1359 16.9808 10.8334 17.3475 10.8334H22.6458C23.0125 10.8334 23.3058 11.1267 23.3058 11.4934C23.3058 11.86 23.0125 12.1625 22.6458 12.1625Z" fill="white"/>
</svg>
