<svg width="18" height="19" viewBox="0 0 18 19" fill="none" xmlns="http://www.w3.org/2000/svg">
<path d="M9.0025 17.5625C5.1025 17.5625 1.9375 14.39 1.9375 10.4975C1.9375 6.60505 5.1025 3.42505 9.0025 3.42505C9.805 3.42505 10.585 3.53755 11.335 3.77005C11.635 3.86005 11.8 4.17505 11.71 4.47505C11.62 4.77505 11.305 4.94005 11.005 4.85005C10.3675 4.65505 9.6925 4.55005 9.0025 4.55005C5.725 4.55005 3.0625 7.21255 3.0625 10.49C3.0625 13.7675 5.725 16.43 9.0025 16.43C12.28 16.43 14.9425 13.7675 14.9425 10.49C14.9425 9.30505 14.5975 8.16505 13.945 7.19005C13.7725 6.93505 13.84 6.58255 14.1025 6.41005C14.3575 6.23755 14.71 6.30505 14.8825 6.56755C15.6625 7.73005 16.075 9.08755 16.075 10.4975C16.0675 14.39 12.9025 17.5625 9.0025 17.5625Z" fill="currentColor"/>
<path d="M12.1003 5.05253C11.9428 5.05253 11.7853 4.98503 11.6728 4.85753L9.50527 2.36753C9.30277 2.13503 9.32527 1.77503 9.55777 1.57253C9.79027 1.37003 10.1503 1.39253 10.3528 1.62503L12.5203 4.11503C12.7228 4.34753 12.7003 4.70753 12.4678 4.91003C12.3703 5.00753 12.2353 5.05253 12.1003 5.05253Z" fill="currentColor"/>
<path d="M9.57211 6.89753C9.39961 6.89753 9.22711 6.81503 9.11461 6.66503C8.93461 6.41753 8.98711 6.06503 9.23461 5.87753L11.7621 4.03253C12.0096 3.84503 12.3621 3.90503 12.5496 4.15253C12.7371 4.40003 12.6771 4.75253 12.4296 4.94003L9.90211 6.79253C9.80461 6.86753 9.69211 6.89753 9.57211 6.89753Z" fill="currentColor"/>
</svg>
