<svg width="18" height="19" viewBox="0 0 18 19" fill="none" xmlns="http://www.w3.org/2000/svg">
<path d="M13.8741 3.65305L10.1316 2.25055C9.50914 2.01805 8.48914 2.01805 7.86664 2.25055L4.12414 3.65305C3.26164 3.97555 2.55664 4.99555 2.55664 5.91055V11.483C2.55664 12.368 3.14164 13.5305 3.85414 14.063L7.07914 16.4705C8.13664 17.2655 9.87664 17.2655 10.9341 16.4705L14.1591 14.063C14.8716 13.5305 15.4566 12.368 15.4566 11.483V5.91055C15.4416 4.99555 14.7366 3.97555 13.8741 3.65305ZM8.94664 5.84305C9.83164 5.84305 10.5516 6.56305 10.5516 7.44805C10.5516 8.31805 9.86914 9.01555 9.00664 9.04555H8.99164H8.97664C8.96164 9.04555 8.94664 9.04555 8.93164 9.04555C8.03164 9.01555 7.35664 8.31805 7.35664 7.44805C7.34914 6.56305 8.06914 5.84305 8.94664 5.84305ZM10.6416 12.8405C10.1841 13.1405 9.59164 13.298 8.99914 13.298C8.40664 13.298 7.80664 13.148 7.35664 12.8405C6.92914 12.5555 6.69664 12.1655 6.68914 11.738C6.68914 11.318 6.92914 10.913 7.35664 10.628C8.26414 10.028 9.74164 10.028 10.6491 10.628C11.0766 10.913 11.3166 11.303 11.3166 11.7305C11.3091 12.1505 11.0691 12.5555 10.6416 12.8405Z" fill="#43573C"/>
</svg>
