<svg width="14" height="16" viewBox="0 0 14 16" fill="none" xmlns="http://www.w3.org/2000/svg">
<path d="M10 0.0703125H4C1.375 0.0703125 0.25 1.57031 0.25 3.82031V11.3203C0.25 13.5703 1.375 15.0703 4 15.0703H10C12.625 15.0703 13.75 13.5703 13.75 11.3203V3.82031C13.75 1.57031 12.625 0.0703125 10 0.0703125ZM4 7.75781H7C7.3075 7.75781 7.5625 8.01281 7.5625 8.32031C7.5625 8.62781 7.3075 8.88281 7 8.88281H4C3.6925 8.88281 3.4375 8.62781 3.4375 8.32031C3.4375 8.01281 3.6925 7.75781 4 7.75781ZM10 11.8828H4C3.6925 11.8828 3.4375 11.6278 3.4375 11.3203C3.4375 11.0128 3.6925 10.7578 4 10.7578H10C10.3075 10.7578 10.5625 11.0128 10.5625 11.3203C10.5625 11.6278 10.3075 11.8828 10 11.8828ZM11.875 5.50781H10.375C9.235 5.50781 8.3125 4.58531 8.3125 3.44531V1.94531C8.3125 1.63781 8.5675 1.38281 8.875 1.38281C9.1825 1.38281 9.4375 1.63781 9.4375 1.94531V3.44531C9.4375 3.96281 9.8575 4.38281 10.375 4.38281H11.875C12.1825 4.38281 12.4375 4.63781 12.4375 4.94531C12.4375 5.25281 12.1825 5.50781 11.875 5.50781Z" fill="currentColor"/>
</svg>
