<svg width="20" height="20" viewBox="0 0 20 20" fill="none" xmlns="http://www.w3.org/2000/svg">
<g clip-path="url(#clip0_10779_130483)">
<path fill-rule="evenodd" clip-rule="evenodd" d="M17.2367 0.709172C14.4008 0.532922 11.8025 0.675005 10.6183 0.762922C10.06 0.804588 9.52833 1.00542 9.08333 1.35584C7.81874 2.3525 4.54333 5.10334 1.23708 9.28C0.517911 10.1883 0.413745 11.4529 1.16041 12.4258C1.72916 13.1667 2.65041 14.2692 4.12708 15.8442C5.84583 17.6775 7.05791 18.6554 7.84458 19.1767C8.70833 19.7492 9.71958 19.55 10.4358 19.0083C14.8296 15.6833 17.6787 12.1996 18.6733 10.8958C19.0011 10.4645 19.1962 9.94704 19.235 9.40667C19.3225 8.23459 19.4683 5.61917 19.2904 2.76292C19.2578 2.22878 19.031 1.72501 18.6526 1.34661C18.2742 0.968215 17.7704 0.741335 17.2362 0.708755M13.9583 4.58334C13.9583 4.19656 14.112 3.82563 14.3855 3.55214C14.659 3.27865 15.0299 3.12501 15.4167 3.12501C15.8034 3.12501 16.1744 3.27865 16.4479 3.55214C16.7213 3.82563 16.875 4.19656 16.875 4.58334C16.875 4.97011 16.7213 5.34104 16.4479 5.61454C16.1744 5.88803 15.8034 6.04167 15.4167 6.04167C15.0299 6.04167 14.659 5.88803 14.3855 5.61454C14.112 5.34104 13.9583 4.97011 13.9583 4.58334Z" fill="currentColor"/>
<path d="M14.5834 10.4255C15.2388 10.4255 15.888 10.5545 16.4935 10.8054C17.099 11.0562 17.6492 11.424 18.1127 11.8874C18.5761 12.3508 18.9439 12.901 19.1947 13.5065C19.4455 14.1121 19.5746 14.7613 19.5746 15.4167C19.5746 16.7404 19.0486 18.01 18.1127 18.946C17.1767 19.882 15.907 20.4079 14.5834 20.4079C13.928 20.4079 13.2787 20.2788 12.6732 20.028C12.0677 19.7772 11.5175 19.4094 11.0541 18.946C10.1181 18.01 9.59216 16.7404 9.59216 15.4167C9.59216 14.093 10.1181 12.8234 11.0541 11.8874C11.5175 11.424 12.0677 11.0562 12.6732 10.8054C13.2787 10.5545 13.928 10.4255 14.5834 10.4255Z" fill="currentColor" stroke="white" stroke-width="0.981818"/>
</g>
<defs>
<clipPath id="clip0_10779_130483">
<rect width="20" height="20" fill="white"/>
</clipPath>
</defs>
</svg>
