<svg width="18" height="16" viewBox="0 0 18 16" fill="none" xmlns="http://www.w3.org/2000/svg">
<path d="M15.7474 5.75392C14.2391 5.75392 13.6224 4.68725 14.3724 3.37892C14.8057 2.62059 14.5474 1.65392 13.7891 1.22059L12.3474 0.395585C11.6891 0.00391839 10.8391 0.237252 10.4474 0.895585L10.3557 1.05392C9.60573 2.36225 8.3724 2.36225 7.61406 1.05392L7.5224 0.895585C7.1474 0.237252 6.2974 0.00391839 5.63906 0.395585L4.1974 1.22059C3.43906 1.65392 3.18073 2.62892 3.61406 3.38725C4.3724 4.68725 3.75573 5.75392 2.2474 5.75392C1.38073 5.75392 0.664062 6.46225 0.664062 7.33725V8.80392C0.664062 9.67059 1.3724 10.3873 2.2474 10.3873C3.75573 10.3873 4.3724 11.4539 3.61406 12.7623C3.18073 13.5206 3.43906 14.4873 4.1974 14.9206L5.63906 15.7456C6.2974 16.1373 7.1474 15.9039 7.53906 15.2456L7.63073 15.0873C8.38073 13.7789 9.61406 13.7789 10.3724 15.0873L10.4641 15.2456C10.8557 15.9039 11.7057 16.1373 12.3641 15.7456L13.8057 14.9206C14.5641 14.4873 14.8224 13.5123 14.3891 12.7623C13.6307 11.4539 14.2474 10.3873 15.7557 10.3873C16.6224 10.3873 17.3391 9.67892 17.3391 8.80392V7.33725C17.3307 6.47058 16.6224 5.75392 15.7474 5.75392ZM8.9974 10.7789C7.50573 10.7789 6.28906 9.56225 6.28906 8.07059C6.28906 6.57892 7.50573 5.36225 8.9974 5.36225C10.4891 5.36225 11.7057 6.57892 11.7057 8.07059C11.7057 9.56225 10.4891 10.7789 8.9974 10.7789Z" fill="currentColor"/>
</svg>
