<svg width="20" height="21" viewBox="0 0 20 21" fill="none" xmlns="http://www.w3.org/2000/svg">
<path d="M17.7076 15.8917L16.3326 16.2167C16.0242 16.2917 15.7826 16.525 15.7159 16.8333L15.4242 18.0583C15.2659 18.725 14.4159 18.9333 13.9742 18.4083L11.4826 15.5417C11.2826 15.3083 11.3909 14.9417 11.6909 14.8667C13.1659 14.5083 14.4909 13.6833 15.4659 12.5083C15.6242 12.3167 15.9076 12.2917 16.0826 12.4667L17.9326 14.3167C18.5659 14.95 18.3409 15.7417 17.7076 15.8917Z" fill="currentColor"/>
<path d="M2.25062 15.8917L3.62562 16.2167C3.93396 16.2917 4.17562 16.525 4.24229 16.8333L4.53396 18.0583C4.69229 18.725 5.54229 18.9333 5.98396 18.4083L8.47562 15.5417C8.67562 15.3083 8.56729 14.9417 8.26729 14.8667C6.79229 14.5083 5.46729 13.6833 4.49229 12.5083C4.33396 12.3167 4.05062 12.2917 3.87562 12.4667L2.02562 14.3167C1.39229 14.95 1.61729 15.7417 2.25062 15.8917Z" fill="currentColor"/>
<path d="M9.99935 2.16663C6.77435 2.16663 4.16602 4.77496 4.16602 7.99996C4.16602 9.20829 4.52435 10.3166 5.14102 11.2416C6.04102 12.575 7.46602 13.5166 9.12435 13.7583C9.40768 13.8083 9.69935 13.8333 9.99935 13.8333C10.2993 13.8333 10.591 13.8083 10.8743 13.7583C12.5327 13.5166 13.9577 12.575 14.8577 11.2416C15.4743 10.3166 15.8327 9.20829 15.8327 7.99996C15.8327 4.77496 13.2243 2.16663 9.99935 2.16663ZM12.5493 7.81663L11.8577 8.50829C11.741 8.62496 11.6743 8.84996 11.716 9.01663L11.916 9.87496C12.0743 10.55 11.716 10.8166 11.116 10.4583L10.2827 9.96663C10.1327 9.87496 9.88268 9.87496 9.73268 9.96663L8.89935 10.4583C8.29935 10.8083 7.94102 10.55 8.09935 9.87496L8.29935 9.01663C8.33268 8.85829 8.27435 8.62496 8.15768 8.50829L7.44935 7.81663C7.04102 7.40829 7.17435 6.99996 7.74102 6.90829L8.63268 6.75829C8.78268 6.73329 8.95768 6.59996 9.02435 6.46663L9.51602 5.48329C9.78268 4.94996 10.216 4.94996 10.4827 5.48329L10.9743 6.46663C11.041 6.59996 11.216 6.73329 11.3743 6.75829L12.266 6.90829C12.8243 6.99996 12.9577 7.40829 12.5493 7.81663Z" fill="currentColor"/>
</svg>
