<svg width="18" height="19" viewBox="0 0 18 19" fill="none" xmlns="http://www.w3.org/2000/svg">
<path d="M13.1468 6.39806C13.0943 6.39056 13.0418 6.39056 12.9893 6.39806C11.8268 6.36056 10.9043 5.40806 10.9043 4.23806C10.9043 3.04556 11.8718 2.07056 13.0718 2.07056C14.2643 2.07056 15.2393 3.03806 15.2393 4.23806C15.2318 5.40806 14.3093 6.36056 13.1468 6.39806Z" fill="#43573C"/>
<path d="M15.5917 11.5956C14.7517 12.1581 13.5742 12.3681 12.4867 12.2256C12.7717 11.6106 12.9217 10.9281 12.9292 10.2081C12.9292 9.45812 12.7642 8.74561 12.4492 8.12311C13.5592 7.97311 14.7367 8.18311 15.5842 8.74561C16.7692 9.52561 16.7692 10.8081 15.5917 11.5956Z" fill="#43573C"/>
<path d="M4.82914 6.39806C4.88164 6.39056 4.93414 6.39056 4.98664 6.39806C6.14914 6.36056 7.07164 5.40806 7.07164 4.23806C7.07164 3.03806 6.10414 2.07056 4.90414 2.07056C3.71164 2.07056 2.74414 3.03806 2.74414 4.23806C2.74414 5.40806 3.66664 6.36056 4.82914 6.39806Z" fill="#43573C"/>
<path d="M4.91234 10.208C4.91234 10.9355 5.06984 11.6255 5.35484 12.248C4.29734 12.3605 3.19484 12.1355 2.38484 11.603C1.19984 10.8155 1.19984 9.53301 2.38484 8.74551C3.18734 8.20551 4.31984 7.98801 5.38484 8.10801C5.07734 8.73801 4.91234 9.45051 4.91234 10.208Z" fill="#43573C"/>
<path d="M9.08961 12.4731C9.02961 12.4656 8.96211 12.4656 8.89461 12.4731C7.51461 12.4281 6.41211 11.2956 6.41211 9.90056C6.41961 8.47556 7.56711 7.32056 8.99961 7.32056C10.4246 7.32056 11.5796 8.47556 11.5796 9.90056C11.5721 11.2956 10.4771 12.4281 9.08961 12.4731Z" fill="#43573C"/>
<path d="M6.65211 14.0255C5.51961 14.783 5.51961 16.028 6.65211 16.778C7.94211 17.6405 10.0571 17.6405 11.3471 16.778C12.4796 16.0205 12.4796 14.7755 11.3471 14.0255C10.0646 13.163 7.94961 13.163 6.65211 14.0255Z" fill="#43573C"/>
</svg>
