<svg width="20" height="19" viewBox="0 0 20 19" fill="none" xmlns="http://www.w3.org/2000/svg">
<path d="M13.8434 0.333252H6.16177C2.8251 0.333252 0.835938 2.32242 0.835938 5.65908V13.3316C0.835938 16.6774 2.8251 18.6666 6.16177 18.6666H13.8343C17.1709 18.6666 19.1601 16.6774 19.1601 13.3408V5.65908C19.1693 2.32242 17.1801 0.333252 13.8434 0.333252ZM14.4759 9.06909C14.4759 9.42658 14.1918 9.71075 13.8343 9.71075C13.4768 9.71075 13.1926 9.42658 13.1926 9.06909V8.90409L10.6993 11.3974C10.5618 11.5349 10.3784 11.5991 10.1859 11.5808C9.99344 11.5624 9.81927 11.4616 9.71844 11.2966L8.78344 9.90325L6.60177 12.0849C6.47344 12.2133 6.3176 12.2683 6.1526 12.2683C5.9876 12.2683 5.8226 12.2041 5.70344 12.0849C5.45594 11.8374 5.45594 11.4341 5.70344 11.1774L8.4351 8.44575C8.5726 8.30825 8.75594 8.24408 8.94844 8.26242C9.14094 8.28075 9.3151 8.38159 9.41594 8.54659L10.3509 9.93992L12.2851 8.00575H12.1201C11.7626 8.00575 11.4784 7.72158 11.4784 7.36409C11.4784 7.00659 11.7626 6.72242 12.1201 6.72242H13.8251C13.9076 6.72242 13.9901 6.74075 14.0726 6.76825C14.2284 6.83242 14.3568 6.96075 14.4209 7.11658C14.4576 7.19908 14.4668 7.28159 14.4668 7.36409V9.06909H14.4759Z" fill="#2E3139"/>
</svg>
