<svg width="20" height="20" viewBox="0 0 20 20" fill="none" xmlns="http://www.w3.org/2000/svg">
<g clip-path="url(#clip0_10779_130493)">
<path d="M10.625 11.25V10H9.375V11.25H1.875V15H3.125V12.5H9.375V15H10.625V12.5H16.875V15H18.125V11.25H10.625Z" fill="currentColor"/>
<path d="M2.5 20C2.00272 20 1.52581 19.8025 1.17417 19.4508C0.822544 19.0992 0.625 18.6223 0.625 18.125C0.625 17.6277 0.822544 17.1508 1.17417 16.7992C1.52581 16.4475 2.00272 16.25 2.5 16.25C2.99728 16.25 3.47419 16.4475 3.82583 16.7992C4.17746 17.1508 4.375 17.6277 4.375 18.125C4.375 18.6223 4.17746 19.0992 3.82583 19.4508C3.47419 19.8025 2.99728 20 2.5 20ZM2.5 17.5C2.33424 17.5 2.17527 17.5658 2.05806 17.6831C1.94085 17.8003 1.875 17.9592 1.875 18.125C1.875 18.2908 1.94085 18.4497 2.05806 18.5669C2.17527 18.6842 2.33424 18.75 2.5 18.75C2.66576 18.75 2.82473 18.6842 2.94194 18.5669C3.05915 18.4497 3.125 18.2908 3.125 18.125C3.125 17.9592 3.05915 17.8003 2.94194 17.6831C2.82473 17.5658 2.66576 17.5 2.5 17.5ZM10 20C9.50272 20 9.02581 19.8025 8.67417 19.4508C8.32254 19.0992 8.125 18.6223 8.125 18.125C8.125 17.6277 8.32254 17.1508 8.67417 16.7992C9.02581 16.4475 9.50272 16.25 10 16.25C10.4973 16.25 10.9742 16.4475 11.3258 16.7992C11.6775 17.1508 11.875 17.6277 11.875 18.125C11.875 18.6223 11.6775 19.0992 11.3258 19.4508C10.9742 19.8025 10.4973 20 10 20ZM10 17.5C9.83424 17.5 9.67527 17.5658 9.55806 17.6831C9.44085 17.8003 9.375 17.9592 9.375 18.125C9.375 18.2908 9.44085 18.4497 9.55806 18.5669C9.67527 18.6842 9.83424 18.75 10 18.75C10.1658 18.75 10.3247 18.6842 10.4419 18.5669C10.5592 18.4497 10.625 18.2908 10.625 18.125C10.625 17.9592 10.5592 17.8003 10.4419 17.6831C10.3247 17.5658 10.1658 17.5 10 17.5ZM17.5 20C17.0027 20 16.5258 19.8025 16.1742 19.4508C15.8225 19.0992 15.625 18.6223 15.625 18.125C15.625 17.6277 15.8225 17.1508 16.1742 16.7992C16.5258 16.4475 17.0027 16.25 17.5 16.25C17.9973 16.25 18.4742 16.4475 18.8258 16.7992C19.1775 17.1508 19.375 17.6277 19.375 18.125C19.375 18.6223 19.1775 19.0992 18.8258 19.4508C18.4742 19.8025 17.9973 20 17.5 20ZM17.5 17.5C17.3342 17.5 17.1753 17.5658 17.0581 17.6831C16.9408 17.8003 16.875 17.9592 16.875 18.125C16.875 18.2908 16.9408 18.4497 17.0581 18.5669C17.1753 18.6842 17.3342 18.75 17.5 18.75C17.6658 18.75 17.8247 18.6842 17.9419 18.5669C18.0592 18.4497 18.125 18.2908 18.125 18.125C18.125 17.9592 18.0592 17.8003 17.9419 17.6831C17.8247 17.5658 17.6658 17.5 17.5 17.5ZM14.375 5V3.75H13.0625C12.9816 3.35965 12.8267 2.98839 12.6062 2.65625L13.5375 1.725L12.65 0.8375L11.7188 1.76875C11.3866 1.5483 11.0153 1.39343 10.625 1.3125V0H9.375V1.3125C8.98465 1.39343 8.61339 1.5483 8.28125 1.76875L7.35 0.8375L6.4625 1.725L7.39375 2.65625C7.1733 2.98839 7.01843 3.35965 6.9375 3.75H5.625V5H6.9375C7.01843 5.39035 7.1733 5.76161 7.39375 6.09375L6.4625 7.025L7.34375 7.90625L8.275 6.975C8.60856 7.19839 8.98203 7.35542 9.375 7.4375V8.75H10.625V7.4375C11.0153 7.35657 11.3866 7.2017 11.7188 6.98125L12.65 7.9125L13.5312 7.03125L12.6062 6.09375C12.8267 5.76161 12.9816 5.39035 13.0625 5H14.375ZM10 6.25C9.75377 6.25 9.50995 6.2015 9.28247 6.10727C9.05498 6.01305 8.84828 5.87494 8.67417 5.70083C8.50006 5.52672 8.36195 5.32002 8.26773 5.09253C8.1735 4.86505 8.125 4.62123 8.125 4.375C8.125 4.12877 8.1735 3.88495 8.26773 3.65747C8.36195 3.42998 8.50006 3.22328 8.67417 3.04917C8.84828 2.87507 9.05498 2.73695 9.28247 2.64273C9.50995 2.5485 9.75377 2.5 10 2.5C10.4973 2.5 10.9742 2.69754 11.3258 3.04917C11.6775 3.40081 11.875 3.87772 11.875 4.375C11.875 4.87228 11.6775 5.34919 11.3258 5.70083C10.9742 6.05246 10.4973 6.25 10 6.25Z" fill="currentColor"/>
<path d="M9.99998 5.00003C9.83422 5.00003 9.67525 4.93418 9.55804 4.81697C9.44082 4.69976 9.37498 4.54079 9.37498 4.37503C9.372 4.33341 9.372 4.29164 9.37498 4.25003C9.38231 4.211 9.39493 4.17315 9.41248 4.13753C9.42571 4.09751 9.44466 4.05962 9.46873 4.02503C9.49221 3.99259 9.51724 3.96131 9.54373 3.93128C9.60202 3.87293 9.67244 3.82813 9.74998 3.80003C9.8638 3.75216 9.98924 3.73909 10.1105 3.76245C10.2317 3.78581 10.3433 3.84455 10.4312 3.93128L10.5062 4.02503C10.5296 4.06001 10.5485 4.09781 10.5625 4.13753C10.5896 4.17114 10.6108 4.2092 10.625 4.25003C10.6282 4.29163 10.6282 4.33342 10.625 4.37503C10.625 4.54079 10.5591 4.69976 10.4419 4.81697C10.3247 4.93418 10.1657 5.00003 9.99998 5.00003Z" fill="currentColor"/>
</g>
<defs>
<clipPath id="clip0_10779_130493">
<rect width="20" height="20" fill="white"/>
</clipPath>
</defs>
</svg>
