<svg width="35" height="36" viewBox="0 0 35 36" fill="none" xmlns="http://www.w3.org/2000/svg">
<path fill-rule="evenodd" clip-rule="evenodd" d="M15.3853 0.958374C15.9453 0.398374 16.7053 0.083374 17.4987 0.083374C18.292 0.083374 19.052 0.398374 19.612 0.958374L22.0203 3.36671C22.1303 3.47671 22.287 3.52837 22.442 3.50337L25.8053 2.97171C26.5887 2.84671 27.3887 3.04004 28.0303 3.50504C28.6703 3.97171 29.1003 4.67337 29.2253 5.45504L29.757 8.81837C29.782 8.97337 29.8787 9.10671 30.0187 9.17837L33.052 10.7234C33.7587 11.0834 34.2937 11.71 34.5387 12.4634C34.7837 13.2167 34.7187 14.0384 34.3587 14.7434L32.8137 17.7784C32.742 17.9184 32.742 18.0817 32.8137 18.2217L34.3587 21.2567C34.7187 21.9617 34.7837 22.7834 34.5387 23.5367C34.2937 24.29 33.7587 24.9167 33.052 25.2767L30.0187 26.8217C29.8787 26.8934 29.782 27.0267 29.757 27.1817L29.2253 30.545C29.1003 31.3267 28.6703 32.0284 28.0303 32.495C27.3887 32.96 26.5887 33.1534 25.8053 33.0284L22.442 32.4967C22.287 32.4717 22.1303 32.5234 22.0203 32.6334L19.612 35.0417C19.052 35.6017 18.292 35.9167 17.4987 35.9167C16.7053 35.9167 15.9453 35.6017 15.3853 35.0417L12.977 32.6334C12.867 32.5234 12.7103 32.4717 12.5553 32.4967L9.19199 33.0284C8.40866 33.1534 7.60866 32.96 6.96699 32.495C6.32699 32.0284 5.89699 31.3267 5.77199 30.545L5.24033 27.1817C5.21533 27.0267 5.11866 26.8934 4.97866 26.8217L1.94533 25.2767C1.23866 24.9167 0.703661 24.29 0.458661 23.5367C0.213661 22.7834 0.278661 21.9617 0.638661 21.2567L2.18366 18.2217C2.25533 18.0817 2.25533 17.9184 2.18366 17.7784L0.638661 14.7434C0.278661 14.0384 0.213661 13.2167 0.458661 12.4634C0.703661 11.71 1.23866 11.0834 1.94533 10.7234L4.97866 9.17837C5.11866 9.10671 5.21533 8.97337 5.24033 8.81837L5.77199 5.45504C5.89699 4.67337 6.32699 3.97171 6.96699 3.50504C7.60866 3.04004 8.40866 2.84671 9.19199 2.97171L12.5553 3.50337C12.7103 3.52837 12.867 3.47671 12.977 3.36671L15.3853 0.958374ZM10.782 18.8834L14.6703 22.7734C15.1587 23.2617 15.9503 23.2617 16.4387 22.7734L24.2153 14.995C24.7037 14.5067 24.7037 13.715 24.2153 13.2267C23.7287 12.74 22.9353 12.74 22.4487 13.2267L15.5537 20.1217L12.5487 17.1167C12.062 16.6284 11.2687 16.6284 10.782 17.1167C10.2937 17.6034 10.2937 18.3967 10.782 18.8834Z" fill="#08A045"/>
</svg>
