<svg width="20" height="20" viewBox="0 0 20 20" fill="none" xmlns="http://www.w3.org/2000/svg">
<path d="M10.9891 5H5.65573C5.43906 5 5.23073 5.00833 5.03073 5.03333C2.78906 5.225 1.66406 6.55 1.66406 8.99167V12.325C1.66406 15.6583 2.9974 16.3167 5.65573 16.3167H5.98906C6.1724 16.3167 6.41406 16.4417 6.5224 16.5833L7.5224 17.9167C7.96406 18.5083 8.68073 18.5083 9.1224 17.9167L10.1224 16.5833C10.2474 16.4167 10.4474 16.3167 10.6557 16.3167H10.9891C13.4307 16.3167 14.7557 15.2 14.9474 12.95C14.9724 12.75 14.9807 12.5417 14.9807 12.325V8.99167C14.9807 6.33333 13.6474 5 10.9891 5ZM5.41406 11.6667C4.9474 11.6667 4.58073 11.2917 4.58073 10.8333C4.58073 10.375 4.95573 10 5.41406 10C5.8724 10 6.2474 10.375 6.2474 10.8333C6.2474 11.2917 5.8724 11.6667 5.41406 11.6667ZM8.3224 11.6667C7.85573 11.6667 7.48906 11.2917 7.48906 10.8333C7.48906 10.375 7.86406 10 8.3224 10C8.78073 10 9.15573 10.375 9.15573 10.8333C9.15573 11.2917 8.78906 11.6667 8.3224 11.6667ZM11.2391 11.6667C10.7724 11.6667 10.4057 11.2917 10.4057 10.8333C10.4057 10.375 10.7807 10 11.2391 10C11.6974 10 12.0724 10.375 12.0724 10.8333C12.0724 11.2917 11.6974 11.6667 11.2391 11.6667Z" fill="#2E3139"/>
<path d="M18.3162 5.65841V8.99175C18.3162 10.6584 17.7996 11.7917 16.7662 12.4167C16.5162 12.5667 16.2246 12.3667 16.2246 12.0751L16.2329 8.99175C16.2329 5.65841 14.3246 3.75008 10.9912 3.75008L5.91622 3.75841C5.62455 3.75841 5.42455 3.46675 5.57455 3.21675C6.19955 2.18341 7.33289 1.66675 8.99122 1.66675H14.3246C16.9829 1.66675 18.3162 3.00008 18.3162 5.65841Z" fill="#2E3139"/>
</svg>
