<svg width="20" height="20" viewBox="0 0 20 20" fill="none" xmlns="http://www.w3.org/2000/svg">
<path fill-rule="evenodd" clip-rule="evenodd" d="M9.99785 0C11.4917 0.000342538 12.9664 0.335424 14.3137 0.980617C15.661 1.62581 16.8466 2.56471 17.7834 3.72832C18.7201 4.89193 19.3842 6.25066 19.7269 7.70465C20.0695 9.15864 20.082 10.6709 19.7633 12.1304C19.4447 13.5898 18.8031 14.9593 17.8856 16.1382C16.9682 17.3171 15.7982 18.2754 14.4617 18.9427C13.1253 19.61 11.6562 19.9694 10.1626 19.9943C8.66901 20.0193 7.18879 19.7092 5.83076 19.0869L0.846926 19.9885C0.721837 20.0111 0.592985 20.0002 0.473504 19.9568C0.354022 19.9134 0.248184 19.8391 0.166775 19.7415C0.0853669 19.6438 0.0312995 19.5264 0.0100839 19.401C-0.0111317 19.2757 0.00126302 19.147 0.0460048 19.028L1.4753 15.2233C0.546899 13.708 0.0390876 11.9727 0.00413729 10.196C-0.0308131 8.41923 0.40836 6.66529 1.27645 5.11468C2.14454 3.56408 3.41018 2.27282 4.94308 1.37385C6.47599 0.474869 8.22078 0.000648634 9.99785 0ZM5.36487 9.99642V10.0022L5.36343 10.0036H5.35624V9.99929V9.99642L5.35912 9.99498H5.36343L5.36487 9.99642ZM5.36056 8.56713C4.98072 8.56713 4.61644 8.71801 4.34786 8.9866C4.07928 9.25518 3.92839 9.61946 3.92839 9.99929C3.92839 10.3791 4.07928 10.7434 4.34786 11.012C4.61644 11.2806 4.98072 11.4315 5.36056 11.4315C5.74039 11.4315 6.10467 11.2806 6.37325 11.012C6.64184 10.7434 6.79273 10.3791 6.79273 9.99929C6.79273 9.61946 6.64184 9.25518 6.37325 8.9866C6.10467 8.71801 5.74039 8.56713 5.36056 8.56713ZM10.005 9.99929V9.99642L10.0036 9.99498H9.99785L9.99641 9.99642V10.0022L9.99785 10.0036H10.0036L10.005 10.0022V9.99929ZM8.56712 9.99929C8.56712 9.81112 8.60418 9.6248 8.67619 9.45095C8.7482 9.27711 8.85375 9.11915 8.9868 8.98609C9.11986 8.85303 9.27782 8.74749 9.45166 8.67548C9.62551 8.60347 9.81184 8.56641 10 8.56641C10.1882 8.56641 10.3745 8.60347 10.5483 8.67548C10.7222 8.74749 10.8802 8.85303 11.0132 8.98609C11.1463 9.11915 11.2518 9.27711 11.3238 9.45095C11.3958 9.6248 11.4329 9.81112 11.4329 9.99929C11.4329 10.3791 11.282 10.7434 11.0134 11.012C10.7448 11.2806 10.3806 11.4315 10.0007 11.4315C9.62089 11.4315 9.25661 11.2806 8.98803 11.012C8.71944 10.7434 8.56856 10.3791 8.56856 9.99929H8.56712ZM14.6452 9.99642V10.0022L14.6423 10.0036H14.638L14.6366 10.0022V9.99642L14.638 9.99498H14.6438L14.6452 9.99642ZM14.6409 8.56713C14.2611 8.56713 13.8968 8.71801 13.6282 8.9866C13.3596 9.25518 13.2087 9.61946 13.2087 9.99929C13.2087 10.3791 13.3596 10.7434 13.6282 11.012C13.8968 11.2806 14.2611 11.4315 14.6409 11.4315C15.0207 11.4315 15.385 11.2806 15.6536 11.012C15.9222 10.7434 16.0731 10.3791 16.0731 9.99929C16.0731 9.61946 15.9222 9.25518 15.6536 8.9866C15.385 8.71801 15.0207 8.56713 14.6409 8.56713Z" fill="currentColor"/>
</svg>
