<svg width="20" height="21" viewBox="0 0 20 21" fill="none" xmlns="http://www.w3.org/2000/svg">
<g clip-path="url(#clip0_1882_45924)">
<path d="M9.41017 10.2828C8.46024 10.2828 7.68888 11.1685 7.68888 12.2577V13.0469C7.68868 13.0747 7.69228 13.1023 7.69958 13.1291L7.77815 13.454C7.8754 13.9821 8.14727 14.4621 8.55011 14.817C8.95295 15.1719 9.46338 15.3811 9.99943 15.4111C10.5355 15.3811 11.0459 15.1719 11.4487 14.817C11.8516 14.4621 12.1235 13.9821 12.2207 13.454L12.2993 13.1291C12.3066 13.1023 12.3102 13.0747 12.31 13.0469V12.2577C12.31 11.1685 11.5386 10.2828 10.5887 10.2828H9.41017Z" fill="#2E3139"/>
<path d="M12.1636 14.8182C12.0169 15.0135 11.8466 15.1899 11.6565 15.3432C11.191 15.7337 10.6027 15.9474 9.99521 15.9467C9.38768 15.9461 8.79986 15.7311 8.33526 15.3396C8.1482 15.1853 7.98034 15.009 7.83529 14.8147C7.27386 15.1733 6.81238 15.6682 6.4939 16.2533C6.17543 16.8385 6.01032 17.4947 6.01399 18.1609V20.1429C6.01426 20.2375 6.05197 20.3282 6.11889 20.3951C6.1858 20.462 6.27647 20.4997 6.3711 20.5H13.6277C13.7224 20.4997 13.8131 20.462 13.88 20.3951C13.9469 20.3282 13.9846 20.2375 13.9849 20.1429V18.1609C13.9873 17.6377 13.8852 17.1193 13.6847 16.6361C13.4842 16.1529 13.1892 15.7145 12.8171 15.3468C12.6192 15.1473 12.4 14.9701 12.1636 14.8182Z" fill="#2E3139"/>
<path d="M13.7063 11.4006V12.1898C13.7064 12.2176 13.71 12.2452 13.717 12.272L13.792 12.5969C13.8906 13.125 14.1633 13.6047 14.5666 13.9595C14.9699 14.3143 15.4806 14.5236 16.0169 14.554C16.5529 14.524 17.0634 14.3148 17.4662 13.9599C17.869 13.605 18.1409 13.125 18.2382 12.5969L18.3167 12.272C18.3209 12.2448 18.3233 12.2173 18.3239 12.1898V11.4006C18.3239 10.3114 17.5525 9.42574 16.6061 9.42574H15.4241C14.4777 9.42573 13.7063 10.3114 13.7063 11.4006Z" fill="#2E3139"/>
<path d="M18.831 14.4861C18.6329 14.2868 18.4138 14.1096 18.1775 13.9576C18.0318 14.1548 17.8614 14.3325 17.6703 14.4861C17.2063 14.8765 16.6191 15.0903 16.0127 15.0896C15.4062 15.089 14.8195 14.874 14.3563 14.4826C14.1673 14.3291 13.9981 14.1528 13.8527 13.9576C13.5159 14.1726 13.2147 14.4389 12.9599 14.7468C13.0421 14.8147 13.1206 14.8897 13.1992 14.9682C13.2921 15.0611 13.3813 15.1575 13.4635 15.2575C14.1494 16.0691 14.5241 17.0983 14.5205 18.1609V19.6429H19.6416C19.7363 19.6426 19.8269 19.6049 19.8939 19.538C19.9608 19.4711 19.9985 19.3804 19.9988 19.2858V17.3038C20.0009 16.7801 19.8987 16.2613 19.6982 15.7775C19.4977 15.2938 19.2029 14.8548 18.831 14.4861Z" fill="#2E3139"/>
<path d="M1.76068 12.597C1.85793 13.125 2.12981 13.605 2.53265 13.9599C2.93549 14.3148 3.44593 14.524 3.98198 14.554C4.51827 14.5236 5.02891 14.3143 5.43223 13.9595C5.83556 13.6048 6.10829 13.125 6.20682 12.597L6.28182 12.272C6.28888 12.2452 6.29248 12.2176 6.29253 12.1898V11.4006C6.29253 10.3114 5.52116 9.42574 4.57479 9.42574H3.39272C2.44635 9.42574 1.67498 10.3114 1.67498 11.4006V12.1898C1.67503 12.2176 1.67862 12.2452 1.68568 12.272L1.76068 12.597Z" fill="#2E3139"/>
<path d="M7.03534 14.7397C6.96271 14.6509 6.88522 14.5663 6.80321 14.4861C6.60319 14.2865 6.38298 14.1081 6.14612 13.954C6.00175 14.1511 5.83249 14.3288 5.64257 14.4825C5.17805 14.8746 4.58981 15.0896 3.98197 15.0896C3.37413 15.0896 2.78589 14.8746 2.32137 14.4825L1.8214 13.9576C1.25937 14.3155 0.797434 14.8103 0.478879 15.3956C0.160323 15.9809 -0.00441977 16.6374 9.01661e-05 17.3038V19.2858C0.000365702 19.3804 0.0380794 19.4711 0.104993 19.538C0.171907 19.6049 0.262582 19.6426 0.357211 19.6429H5.47831V18.1609C5.47335 17.0976 5.84677 16.0672 6.53179 15.2539C6.68396 15.0678 6.85249 14.8957 7.03534 14.7397Z" fill="#2E3139"/>
<path d="M5.13904 4.67605C5.26181 5.1522 5.5125 5.58568 5.86398 5.92955L9.75301 9.6543C9.82009 9.7163 9.90808 9.75073 9.99943 9.75073C10.0908 9.75073 10.1788 9.7163 10.2458 9.6543L14.1349 5.92955C14.4863 5.58568 14.737 5.1522 14.8598 4.67605L14.9312 4.41536C14.998 4.16734 15.0316 3.91156 15.0312 3.6547C15.0379 3.22221 14.9428 2.7942 14.7536 2.40524C14.5644 2.01627 14.2864 1.67726 13.942 1.41556C13.6267 1.18385 13.2539 1.04303 12.8642 1.0084C12.4744 0.973769 12.0826 1.04666 11.7314 1.21915L9.99943 2.06194L8.26741 1.21915C7.9162 1.04666 7.52442 0.973769 7.13467 1.0084C6.74493 1.04303 6.37214 1.18385 6.05684 1.41556C5.61225 1.76044 5.28063 2.23011 5.10442 2.76449C4.9282 3.29886 4.91538 3.87366 5.06761 4.41536L5.13904 4.67605ZM7.1889 3.00474C7.24404 2.92733 7.32755 2.87487 7.42122 2.85881C7.51489 2.84276 7.61111 2.86441 7.68887 2.91904L8.03169 3.16187C8.23439 3.3063 8.39974 3.49696 8.51402 3.71807C8.6283 3.93917 8.68822 4.18433 8.6888 4.43322C8.68978 4.57814 8.72767 4.72042 8.7989 4.84664C8.87013 4.97285 8.97234 5.07883 9.0959 5.15458L9.6423 5.48315V3.50115C9.6423 3.40643 9.67993 3.3156 9.7469 3.24862C9.81387 3.18165 9.90471 3.14403 9.99942 3.14403C10.0941 3.14403 10.185 3.18165 10.2519 3.24862C10.3189 3.3156 10.3565 3.40643 10.3565 3.50115V5.48315L10.9029 5.15103C11.0267 5.07635 11.1291 4.9711 11.2004 4.84539C11.2717 4.71968 11.3095 4.57774 11.31 4.43322C11.3106 4.18433 11.3705 3.93917 11.4848 3.71807C11.5991 3.49697 11.7644 3.3063 11.9671 3.16188L12.31 2.91904C12.3877 2.86441 12.484 2.84276 12.5776 2.85882C12.6713 2.87487 12.7548 2.92733 12.8099 3.00474C12.837 3.04294 12.8562 3.08609 12.8666 3.13174C12.8769 3.17738 12.8781 3.22462 12.8701 3.27073C12.8622 3.31685 12.8452 3.36094 12.8202 3.40048C12.7951 3.44002 12.7625 3.47423 12.7242 3.50115L12.3778 3.74398C12.2682 3.82233 12.1789 3.92577 12.1174 4.04568C12.0559 4.16558 12.0239 4.29846 12.0243 4.43322C12.0226 4.70065 11.9529 4.96326 11.8217 5.1963C11.6905 5.42935 11.5021 5.62515 11.2743 5.76527L10.3565 6.3188V7.30803C10.3565 7.40274 10.3189 7.49358 10.2519 7.56055C10.185 7.62752 10.0941 7.66515 9.99941 7.66515C9.9047 7.66515 9.81386 7.62752 9.74689 7.56055C9.67992 7.49358 9.64229 7.40274 9.64229 7.30803V6.3188L8.72807 5.76526C8.49931 5.62591 8.30999 5.43037 8.1781 5.19722C8.04621 4.96408 7.97615 4.70108 7.97456 4.43322C7.97489 4.29846 7.94297 4.16558 7.88147 4.04567C7.81996 3.92577 7.73065 3.82232 7.62101 3.74398L7.2746 3.50114C7.23631 3.47423 7.20371 3.44002 7.17868 3.40048C7.15364 3.36094 7.13665 3.31685 7.12869 3.27073C7.12073 3.22461 7.12195 3.17738 7.13228 3.13173C7.14261 3.08609 7.16186 3.04293 7.1889 3.00474Z" fill="currentColor"/>
</g>
<defs>
<clipPath id="clip0_1882_45924">
<rect width="20" height="20" fill="white" transform="translate(0 0.5)"/>
</clipPath>
</defs>
</svg>
