<svg width="16" height="18" viewBox="0 0 16 18" fill="none" xmlns="http://www.w3.org/2000/svg">
<path d="M5.08464 13.2379C5.31475 13.2379 5.5013 13.0513 5.5013 12.8212C5.5013 12.5911 5.31475 12.4045 5.08464 12.4045C4.85452 12.4045 4.66797 12.5911 4.66797 12.8212C4.66797 13.0513 4.85452 13.2379 5.08464 13.2379Z" fill="#2E3139"/>
<path d="M11.3346 9.09139V12.4456C11.8052 12.5416 12.2281 12.7973 12.5319 13.1693C12.8356 13.5414 13.0014 14.007 13.0013 14.4872V15.3206C13.0013 15.5497 12.8138 15.7372 12.5846 15.7372H12.168C11.618 15.7372 11.618 14.9039 12.168 14.9039V14.4872C12.168 13.7997 11.6055 13.2372 10.918 13.2372C10.2305 13.2372 9.66797 13.7997 9.66797 14.4872V14.9039C10.218 14.9039 10.218 15.7372 9.66797 15.7372H9.25131C9.02214 15.7372 8.83464 15.5497 8.83464 15.3206V14.4872C8.83464 13.4831 9.55131 12.6414 10.5013 12.4456V9.16639C8.14297 9.77889 6.30131 9.37056 5.50131 9.16639V11.6497C5.98464 11.8206 6.33464 12.2789 6.33464 12.8247C6.33464 13.5122 5.77214 14.0747 5.08464 14.0747C4.39714 14.0747 3.83464 13.5122 3.83464 12.8247C3.83464 12.2831 4.18464 11.8247 4.66797 11.6497V9.09556C2.56381 9.30389 0.917974 11.0831 0.917974 13.2414V16.2497C0.917124 16.5569 1.02981 16.8536 1.23438 17.0828C1.43895 17.312 1.72098 17.4575 2.02631 17.4914C5.98881 17.9331 10.0138 17.9331 13.9805 17.4914C14.285 17.4565 14.5661 17.3106 14.7698 17.0815C14.9735 16.8524 15.0856 16.5563 15.0846 16.2497V13.2414C15.0846 11.0831 13.4388 9.30389 11.3346 9.09556V9.09139ZM8.00131 0.320557C5.93464 0.320557 4.25131 2.00389 4.25131 4.07056C4.25131 6.13722 5.92214 8.65389 8.00131 8.65389C10.0805 8.65389 11.7513 6.14556 11.7513 4.07056C11.7513 1.99556 10.068 0.320557 8.00131 0.320557Z" fill="currentColor"/>
</svg>
