<svg width="18" height="4" viewBox="0 0 18 4" fill="none" xmlns="http://www.w3.org/2000/svg">
<path d="M8.9987 3.66671C9.91917 3.66671 10.6654 2.92052 10.6654 2.00004C10.6654 1.07957 9.91917 0.333374 8.9987 0.333374C8.07822 0.333374 7.33203 1.07957 7.33203 2.00004C7.33203 2.92052 8.07822 3.66671 8.9987 3.66671Z" fill="currentColor"/>
<path d="M2.33268 3.66671C3.25316 3.66671 3.99935 2.92052 3.99935 2.00004C3.99935 1.07957 3.25316 0.333374 2.33268 0.333374C1.41221 0.333374 0.666016 1.07957 0.666016 2.00004C0.666016 2.92052 1.41221 3.66671 2.33268 3.66671Z" fill="currentColor"/>
<path d="M15.6667 3.66671C16.5871 3.66671 17.3333 2.92052 17.3333 2.00004C17.3333 1.07957 16.5871 0.333374 15.6667 0.333374C14.7462 0.333374 14 1.07957 14 2.00004C14 2.92052 14.7462 3.66671 15.6667 3.66671Z" fill="currentColor"/>
</svg>
