<svg width="24" height="25" viewBox="0 0 24 25" fill="none" xmlns="http://www.w3.org/2000/svg">
<path d="M12 23.25C6.07 23.25 1.25 18.43 1.25 12.5C1.25 6.57 6.07 1.75 12 1.75C17.93 1.75 22.75 6.57 22.75 12.5C22.75 18.43 17.93 23.25 12 23.25ZM12 3.25C6.9 3.25 2.75 7.4 2.75 12.5C2.75 17.6 6.9 21.75 12 21.75C17.1 21.75 21.25 17.6 21.25 12.5C21.25 7.4 17.1 3.25 12 3.25Z" fill="currentColor"/>
<path d="M10.5775 16.08C10.3775 16.08 10.1875 16 10.0475 15.86L7.2175 13.03C6.9275 12.74 6.9275 12.26 7.2175 11.97C7.5075 11.68 7.9875 11.68 8.2775 11.97L10.5775 14.27L15.7175 9.12998C16.0075 8.83998 16.4875 8.83998 16.7775 9.12998C17.0675 9.41998 17.0675 9.89998 16.7775 10.19L11.1075 15.86C10.9675 16 10.7775 16.08 10.5775 16.08Z" fill="currentColor"/>
</svg>
