<svg width="22" height="23" viewBox="0 0 22 23" fill="none" xmlns="http://www.w3.org/2000/svg">
<path d="M11.0026 2.33337C5.95177 2.33337 1.83594 6.44921 1.83594 11.5C1.83594 16.5509 5.95177 20.6667 11.0026 20.6667C16.0534 20.6667 20.1693 16.5509 20.1693 11.5C20.1693 6.44921 16.0534 2.33337 11.0026 2.33337ZM14.9901 14.7725C14.8618 14.9925 14.6326 15.1117 14.3943 15.1117C14.2751 15.1117 14.1559 15.0842 14.0459 15.0109L11.2043 13.315C10.4984 12.8934 9.97594 11.9675 9.97594 11.1517V7.39337C9.97594 7.01754 10.2876 6.70587 10.6634 6.70587C11.0393 6.70587 11.3509 7.01754 11.3509 7.39337V11.1517C11.3509 11.4817 11.6259 11.9675 11.9101 12.1325L14.7518 13.8284C15.0818 14.0209 15.1918 14.4425 14.9901 14.7725Z" fill="currentColor"/>
</svg>
