<svg width="30" height="30" viewBox="0 0 30 30" fill="none" xmlns="http://www.w3.org/2000/svg">
<g clip-path="url(#clip0_2880_57493)">
<path d="M29.0712 11.1102C27.9788 10.1918 26.3074 10.3012 25.359 11.432L24.7891 12.1063L28.8288 15.4959L29.373 14.8241C30.3091 13.7108 30.1906 12.0482 29.0712 11.1102Z" fill="currentColor"/>
<path d="M17.6616 20.5391L17.3609 20.8948C17.1 21.2073 16.912 21.5806 16.8176 21.9763L16.0006 25.3958C15.9233 25.7193 16.0358 26.0592 16.2907 26.273C16.5387 26.4815 16.8887 26.542 17.2048 26.4069L20.4311 25.0078C20.8045 24.8456 21.1392 24.5959 21.4001 24.286L21.7018 23.9291L17.6616 20.5391Z" fill="currentColor"/>
<path d="M23.6478 13.4482L18.7891 19.1971L22.8291 22.5871L27.6876 16.8378L23.6478 13.4482Z" fill="currentColor"/>
<path d="M22.0301 3.8967L18.6913 0.72438C18.3757 0.425142 17.9874 0.248892 17.5781 0.134399V5.27342H22.796C22.687 4.75135 22.421 4.26772 22.0301 3.8967Z" fill="currentColor"/>
<path d="M15.1028 21.5678C15.2599 20.9104 15.5731 20.2881 16.0074 19.7679L22.8516 11.6695V7.03125H16.6992C16.2134 7.03125 15.8203 6.63814 15.8203 6.15234V0H2.63672C1.18277 0 0 1.18277 0 2.63672V27.3633C0 28.8172 1.18277 30 2.63672 30H20.2148C21.6688 30 22.8516 28.8172 22.8516 27.3633V25.2856L22.7374 25.4207C22.3057 25.9348 21.7487 26.3494 21.1281 26.6198L17.8992 28.0197C16.9891 28.4127 15.9356 28.2735 15.156 27.6206C14.3861 26.9743 14.0522 25.9658 14.2857 24.9873L15.1028 21.5678ZM4.39453 5.27344H13.1836C13.6694 5.27344 14.0625 5.66654 14.0625 6.15234C14.0625 6.63814 13.6694 7.03125 13.1836 7.03125H4.39453C3.90873 7.03125 3.51562 6.63814 3.51562 6.15234C3.51562 5.66654 3.90873 5.27344 4.39453 5.27344ZM4.39453 10.6055H18.457C18.9428 10.6055 19.3359 10.9986 19.3359 11.4844C19.3359 11.9702 18.9428 12.3633 18.457 12.3633H4.39453C3.90873 12.3633 3.51562 11.9702 3.51562 11.4844C3.51562 10.9986 3.90873 10.6055 4.39453 10.6055ZM11.4258 22.9102H4.39453C3.90873 22.9102 3.51562 22.5171 3.51562 22.0312C3.51562 21.5454 3.90873 21.1523 4.39453 21.1523H11.4258C11.9116 21.1523 12.3047 21.5454 12.3047 22.0312C12.3047 22.5171 11.9116 22.9102 11.4258 22.9102ZM4.39453 17.6367C3.90873 17.6367 3.51562 17.2436 3.51562 16.7578C3.51562 16.272 3.90873 15.8789 4.39453 15.8789H14.9414C15.4272 15.8789 15.8203 16.272 15.8203 16.7578C15.8203 17.2436 15.4272 17.6367 14.9414 17.6367H4.39453Z" fill="currentColor"/>
</g>
<defs>
<clipPath id="clip0_2880_57493">
<rect width="30" height="30" fill="white"/>
</clipPath>
</defs>
</svg>
