<svg width="14" height="11" viewBox="0 0 14 11" fill="none" xmlns="http://www.w3.org/2000/svg">
<path d="M5.93573 9.75905C5.97886 9.80128 6.01308 9.85141 6.03642 9.90659C6.05977 9.96177 6.07178 10.0209 6.07178 10.0806C6.07178 10.1403 6.05977 10.1995 6.03642 10.2547C6.01308 10.3098 5.97886 10.36 5.93573 10.4022C5.89259 10.4444 5.84139 10.4779 5.78503 10.5008C5.72867 10.5236 5.66826 10.5354 5.60726 10.5354C5.54626 10.5354 5.48586 10.5236 5.4295 10.5008C5.37314 10.4779 5.32193 10.4444 5.2788 10.4022L0.636162 5.85698C0.592997 5.81476 0.558753 5.76463 0.535389 5.70946C0.512026 5.65428 0.5 5.59513 0.5 5.5354C0.5 5.47567 0.512026 5.41652 0.535389 5.36135C0.558753 5.30617 0.592997 5.25604 0.636162 5.21383L5.2788 0.668601C5.36591 0.583314 5.48406 0.5354 5.60726 0.5354C5.73046 0.5354 5.84862 0.583314 5.93573 0.668601C6.02284 0.753888 6.07178 0.869562 6.07178 0.990176C6.07178 1.11079 6.02284 1.22646 5.93573 1.31175L1.62098 5.5354L5.93573 9.75905Z" fill="currentColor"/>
<path d="M13.3639 9.75905C13.4071 9.80128 13.4413 9.85141 13.4646 9.90659C13.488 9.96177 13.5 10.0209 13.5 10.0806C13.5 10.1403 13.488 10.1995 13.4646 10.2547C13.4413 10.3098 13.4071 10.36 13.3639 10.4022C13.3208 10.4444 13.2696 10.4779 13.2132 10.5008C13.1569 10.5236 13.0965 10.5354 13.0355 10.5354C12.9745 10.5354 12.9141 10.5236 12.8577 10.5008C12.8014 10.4779 12.7501 10.4444 12.707 10.4022L8.06438 5.85698C8.02121 5.81476 7.98697 5.76463 7.9636 5.70946C7.94024 5.65428 7.92822 5.59513 7.92822 5.5354C7.92822 5.47567 7.94024 5.41652 7.9636 5.36135C7.98697 5.30617 8.02121 5.25604 8.06438 5.21383L12.707 0.668601C12.7941 0.583314 12.9123 0.5354 13.0355 0.5354C13.1587 0.5354 13.2768 0.583314 13.3639 0.668601C13.4511 0.753888 13.5 0.869562 13.5 0.990176C13.5 1.11079 13.4511 1.22646 13.3639 1.31175L9.0492 5.5354L13.3639 9.75905Z" fill="currentColor"/>
</svg>
