<svg width="18" height="18" viewBox="0 0 18 18" fill="none" xmlns="http://www.w3.org/2000/svg">
<path d="M12.4891 0.737305H5.50573C2.4724 0.737305 0.664062 2.54564 0.664062 5.57897V12.554C0.664062 15.5956 2.4724 17.404 5.50573 17.404H12.4807C15.5141 17.404 17.3224 15.5956 17.3224 12.5623V5.57897C17.3307 2.54564 15.5224 0.737305 12.4891 0.737305ZM13.7391 10.779C13.7057 10.854 13.6641 10.9206 13.6057 10.979L11.1474 13.4373C11.0224 13.5623 10.8641 13.6206 10.7057 13.6206C10.5474 13.6206 10.3891 13.5623 10.2641 13.4373C10.0224 13.1956 10.0224 12.7956 10.2641 12.554L11.6557 11.1623H4.83073C4.48906 11.1623 4.20573 10.879 4.20573 10.5373C4.20573 10.1956 4.48906 9.9123 4.83073 9.9123H13.1641C13.2474 9.9123 13.3224 9.92897 13.4057 9.96231C13.5557 10.029 13.6807 10.1456 13.7474 10.304C13.8057 10.454 13.8057 10.6206 13.7391 10.779ZM13.1641 8.22897H4.83073C4.7474 8.22897 4.6724 8.21231 4.58906 8.17897C4.43906 8.11231 4.31406 7.99564 4.2474 7.83731C4.18073 7.68731 4.18073 7.5123 4.2474 7.3623C4.28906 7.2873 4.33073 7.22064 4.38906 7.1623L6.8474 4.70397C7.08906 4.46231 7.48906 4.46231 7.73073 4.70397C7.9724 4.94564 7.9724 5.34564 7.73073 5.58731L6.33906 6.97897H13.1641C13.5057 6.97897 13.7891 7.2623 13.7891 7.60397C13.7891 7.94564 13.5057 8.22897 13.1641 8.22897Z" fill="currentColor"/>
</svg>
