<svg width="24" height="25" viewBox="0 0 24 25" fill="none" xmlns="http://www.w3.org/2000/svg">
<path d="M16.8 9.5H12.75V15.75C12.75 16.16 12.41 16.5 12 16.5C11.59 16.5 11.25 16.16 11.25 15.75V9.5H7.2C4 9.5 2 11.5 2 14.7V17.29C2 20.5 4 22.5 7.2 22.5H16.79C19.99 22.5 21.99 20.5 21.99 17.3V14.7C22 11.5 20 9.5 16.8 9.5Z" fill="currentColor"/>
<path d="M12.7538 5.05994L14.8238 7.12994C14.9738 7.27994 15.1638 7.34994 15.3538 7.34994C15.5438 7.34994 15.7338 7.27994 15.8838 7.12994C16.1738 6.83994 16.1738 6.35994 15.8838 6.06994L12.5338 2.71994C12.2438 2.42994 11.7638 2.42994 11.4738 2.71994L8.12375 6.06994C7.83375 6.35994 7.83375 6.83994 8.12375 7.12994C8.41375 7.41994 8.89375 7.41994 9.18375 7.12994L11.2538 5.05994V9.49994H12.7538V5.05994Z" fill="currentColor"/>
</svg>
