<svg width="24" height="25" viewBox="0 0 24 25" fill="none" xmlns="http://www.w3.org/2000/svg">
<path d="M12.1625 12.12C12.1325 12.12 12.1125 12.12 12.0825 12.12C12.0325 12.11 11.9625 12.11 11.9025 12.12C9.0025 12.03 6.8125 9.75 6.8125 6.94C6.8125 4.08 9.1425 1.75 12.0025 1.75C14.8625 1.75 17.1925 4.08 17.1925 6.94C17.1825 9.75 14.9825 12.03 12.1925 12.12C12.1825 12.12 12.1725 12.12 12.1625 12.12ZM12.0025 3.25C9.9725 3.25 8.3125 4.91 8.3125 6.94C8.3125 8.94 9.8725 10.55 11.8625 10.62C11.9125 10.61 12.0525 10.61 12.1825 10.62C14.1425 10.53 15.6825 8.92 15.6925 6.94C15.6925 4.91 14.0325 3.25 12.0025 3.25Z" fill="currentColor"/>
<path d="M12.1716 23.05C10.2116 23.05 8.24156 22.55 6.75156 21.55C5.36156 20.63 4.60156 19.37 4.60156 18C4.60156 16.63 5.36156 15.36 6.75156 14.43C9.75156 12.44 14.6116 12.44 17.5916 14.43C18.9716 15.35 19.7416 16.61 19.7416 17.98C19.7416 19.35 18.9816 20.62 17.5916 21.55C16.0916 22.55 14.1316 23.05 12.1716 23.05ZM7.58156 15.69C6.62156 16.33 6.10156 17.15 6.10156 18.01C6.10156 18.86 6.63156 19.68 7.58156 20.31C10.0716 21.98 14.2716 21.98 16.7616 20.31C17.7216 19.67 18.2416 18.85 18.2416 17.99C18.2416 17.14 17.7116 16.32 16.7616 15.69C14.2716 14.03 10.0716 14.03 7.58156 15.69Z" fill="currentColor"/>
</svg>
