<svg width="25" height="24" viewBox="0 0 25 24" fill="none" xmlns="http://www.w3.org/2000/svg">
<g clip-path="url(#clip0_2050_19827)">
<path d="M24.5 7.52138V16.4698C24.5022 16.6035 24.4702 16.7355 24.4068 16.8531C24.3434 16.9708 24.2509 17.0703 24.1381 17.142C24.0162 17.2158 23.8758 17.2532 23.7333 17.2501C23.5909 17.2469 23.4523 17.2033 23.3337 17.1242L20.1669 15.0129C20.1155 14.9787 20.0734 14.9322 20.0443 14.8778C20.0152 14.8233 20 14.7625 20 14.7008V9.29888C20.0001 9.23729 20.0154 9.17667 20.0445 9.12238C20.0736 9.0681 20.1156 9.02182 20.1669 8.98763L23.3337 6.87544C23.4714 6.78376 23.6354 6.74012 23.8004 6.75131C23.9653 6.7625 24.122 6.8279 24.2459 6.93732C24.3274 7.01098 24.3922 7.10119 24.436 7.20191C24.4799 7.30263 24.5017 7.41155 24.5 7.52138ZM5.555 3.24544C5.48914 3.1712 5.40919 3.11077 5.3198 3.06765C5.23041 3.02453 5.13335 2.99958 5.03424 2.99425C4.93514 2.98892 4.83596 3.00331 4.74246 3.03659C4.64896 3.06987 4.56299 3.12137 4.48954 3.18812C4.41609 3.25487 4.35662 3.33554 4.31458 3.42544C4.27253 3.51534 4.24875 3.61269 4.24461 3.71186C4.24046 3.81102 4.25604 3.91002 4.29044 4.00311C4.32484 4.09621 4.37738 4.18155 4.445 4.25419L5.34969 5.24982H3.5C3.10218 5.24982 2.72064 5.40785 2.43934 5.68916C2.15804 5.97046 2 6.35199 2 6.74982V17.2498C2 17.6476 2.15804 18.0292 2.43934 18.3105C2.72064 18.5918 3.10218 18.7498 3.5 18.7498H17.6225L19.445 20.7542C19.5109 20.8284 19.5908 20.8889 19.6802 20.932C19.7696 20.9751 19.8667 21.0001 19.9658 21.0054C20.0649 21.0107 20.164 20.9963 20.2575 20.963C20.351 20.9298 20.437 20.8783 20.5105 20.8115C20.5839 20.7448 20.6434 20.6641 20.6854 20.5742C20.7275 20.4843 20.7513 20.3869 20.7554 20.2878C20.7595 20.1886 20.744 20.0896 20.7096 19.9965C20.6752 19.9034 20.6226 19.8181 20.555 19.7454L5.555 3.24544ZM17.8438 14.5376C17.8944 14.5951 17.9615 14.6357 18.0359 14.6539C18.1103 14.6721 18.1885 14.6671 18.26 14.6395C18.3315 14.6119 18.3928 14.5631 18.4357 14.4997C18.4786 14.4362 18.501 14.3611 18.5 14.2845V6.74982C18.5 6.35199 18.342 5.97046 18.0607 5.68916C17.7794 5.40785 17.3978 5.24982 17 5.24982H10.25C10.177 5.24909 10.1055 5.26967 10.044 5.30902C9.98258 5.34837 9.93395 5.40479 9.9041 5.47136C9.87424 5.53793 9.86446 5.61177 9.87594 5.68382C9.88743 5.75587 9.91968 5.82301 9.96875 5.87701L17.8438 14.5376Z" fill="currentColor"/>
</g>
<defs>
<clipPath id="clip0_2050_19827">
<rect width="24" height="24" fill="currentColor" transform="translate(0.5)"/>
</clipPath>
</defs>
</svg>
