<svg width="22" height="22" viewBox="0 0 22 22" fill="none" xmlns="http://www.w3.org/2000/svg">
<path d="M15.625 6.375V16C15.625 16.3647 15.4801 16.7144 15.2223 16.9723C14.9644 17.2301 14.6147 17.375 14.25 17.375H1.875C1.51033 17.375 1.16059 17.2301 0.902728 16.9723C0.644866 16.7144 0.5 16.3647 0.5 16V6.375C0.5 6.01033 0.644866 5.66059 0.902728 5.40273C1.16059 5.14487 1.51033 5 1.875 5H14.25C14.6147 5 14.9644 5.14487 15.2223 5.40273C15.4801 5.66059 15.625 6.01033 15.625 6.375ZM20.6094 6.39648C20.5124 6.37275 20.4115 6.36982 20.3133 6.38789C20.2151 6.40596 20.1218 6.44462 20.0396 6.50133L17.153 8.42547C17.1059 8.45689 17.0673 8.49945 17.0406 8.54937C17.0139 8.59929 17 8.65503 17 8.71164V13.6634C17 13.72 17.0139 13.7757 17.0406 13.8256C17.0673 13.8756 17.1059 13.9181 17.153 13.9495L20.0559 15.8848C20.1646 15.9573 20.2917 15.9974 20.4222 16.0002C20.5528 16.0031 20.6815 15.9688 20.7933 15.9012C20.8967 15.8354 20.9815 15.7443 21.0396 15.6364C21.0976 15.5285 21.1271 15.4075 21.125 15.285V7.0625C21.1251 6.91002 21.0745 6.76185 20.9811 6.64128C20.8878 6.52072 20.757 6.4346 20.6094 6.39648Z" fill="currentColor"/>
</svg>
