<svg width="22" height="20" viewBox="0 0 22 20" fill="none" xmlns="http://www.w3.org/2000/svg">
<path d="M21.201 16.1334L13.0026 1.89556C12.7977 1.54674 12.5052 1.25752 12.1541 1.05656C11.803 0.855598 11.4055 0.749878 11.001 0.749878C10.5965 0.749878 10.199 0.855598 9.84787 1.05656C9.49679 1.25752 9.20431 1.54674 8.99944 1.89556L0.801006 16.1334C0.603883 16.4708 0.5 16.8545 0.5 17.2453C0.5 17.636 0.603883 18.0197 0.801006 18.3571C1.00325 18.7081 1.29523 18.9989 1.64697 19.1997C1.99871 19.4005 2.39755 19.5041 2.80257 19.4999H19.1994C19.6041 19.5038 20.0026 19.4 20.354 19.1992C20.7054 18.9984 20.997 18.7078 21.1991 18.3571C21.3965 18.0199 21.5007 17.6363 21.5011 17.2455C21.5014 16.8548 21.3978 16.4709 21.201 16.1334ZM10.251 8.24994C10.251 8.05103 10.33 7.86026 10.4707 7.71961C10.6113 7.57896 10.8021 7.49994 11.001 7.49994C11.1999 7.49994 11.3907 7.57896 11.5313 7.71961C11.672 7.86026 11.751 8.05103 11.751 8.24994V11.9999C11.751 12.1989 11.672 12.3896 11.5313 12.5303C11.3907 12.6709 11.1999 12.7499 11.001 12.7499C10.8021 12.7499 10.6113 12.6709 10.4707 12.5303C10.33 12.3896 10.251 12.1989 10.251 11.9999V8.24994ZM11.001 16.4999C10.7785 16.4999 10.561 16.434 10.376 16.3103C10.191 16.1867 10.0468 16.011 9.96164 15.8055C9.87649 15.5999 9.85421 15.3737 9.89762 15.1555C9.94103 14.9372 10.0482 14.7368 10.2055 14.5794C10.3628 14.4221 10.5633 14.315 10.7815 14.2716C10.9998 14.2281 11.226 14.2504 11.4315 14.3356C11.6371 14.4207 11.8128 14.5649 11.9364 14.7499C12.06 14.9349 12.126 15.1524 12.126 15.3749C12.126 15.6733 12.0075 15.9595 11.7965 16.1704C11.5855 16.3814 11.2994 16.4999 11.001 16.4999Z" fill="currentColor"/>
</svg>
