<svg width="24" height="25" viewBox="0 0 24 25" fill="none" xmlns="http://www.w3.org/2000/svg">
<g clip-path="url(#clip0_2635_16858)">
<path d="M7.6525 21.4101C7.6225 21.4101 7.5825 21.4301 7.5525 21.4301C5.6125 20.4701 4.0325 18.8801 3.0625 16.9401C3.0625 16.9101 3.0825 16.8701 3.0825 16.8401C4.3025 17.2001 5.5625 17.4701 6.8125 17.6801C7.0325 18.9401 7.2925 20.1901 7.6525 21.4101Z" fill="currentColor"/>
<path d="M20.9391 16.9501C19.9491 18.9401 18.2991 20.5501 16.2891 21.5201C16.6691 20.2501 16.9891 18.9701 17.1991 17.6801C18.4591 17.4701 19.6991 17.2001 20.9191 16.8401C20.9091 16.8801 20.9391 16.9201 20.9391 16.9501Z" fill="currentColor"/>
<path d="M21.0191 8.20998C19.7591 7.82998 18.4891 7.51998 17.1991 7.29998C16.9891 6.00998 16.6791 4.72998 16.2891 3.47998C18.3591 4.46998 20.0291 6.13998 21.0191 8.20998Z" fill="currentColor"/>
<path d="M7.64656 3.59006C7.28656 4.81006 7.02656 6.05006 6.81656 7.31006C5.52656 7.51006 4.24656 7.83006 2.97656 8.21006C3.94656 6.20006 5.55656 4.55006 7.54656 3.56006C7.57656 3.56006 7.61656 3.59006 7.64656 3.59006Z" fill="currentColor"/>
<path d="M15.4878 7.09C13.1678 6.83 10.8278 6.83 8.50781 7.09C8.75781 5.72 9.07781 4.35 9.52781 3.03C9.54781 2.95 9.53781 2.89 9.54781 2.81C10.3378 2.62 11.1478 2.5 11.9978 2.5C12.8378 2.5 13.6578 2.62 14.4378 2.81C14.4478 2.89 14.4478 2.95 14.4678 3.03C14.9178 4.36 15.2378 5.72 15.4878 7.09Z" fill="currentColor"/>
<path d="M6.59 15.99C5.21 15.74 3.85 15.42 2.53 14.97C2.45 14.95 2.39 14.96 2.31 14.95C2.12 14.16 2 13.35 2 12.5C2 11.66 2.12 10.84 2.31 10.06C2.39 10.05 2.45 10.05 2.53 10.03C3.86 9.59001 5.21 9.26001 6.59 9.01001C6.34 11.33 6.34 13.67 6.59 15.99Z" fill="currentColor"/>
<path d="M21.9963 12.5C21.9963 13.35 21.8763 14.16 21.6863 14.95C21.6063 14.96 21.5462 14.95 21.4662 14.97C20.1362 15.41 18.7763 15.74 17.4062 15.99C17.6662 13.67 17.6662 11.33 17.4062 9.01001C18.7763 9.26001 20.1462 9.58001 21.4662 10.03C21.5462 10.05 21.6063 10.06 21.6863 10.06C21.8763 10.85 21.9963 11.66 21.9963 12.5Z" fill="currentColor"/>
<path d="M15.4878 17.9099C15.2378 19.2899 14.9178 20.6499 14.4678 21.9699C14.4478 22.0499 14.4478 22.1099 14.4378 22.1899C13.6578 22.3799 12.8378 22.4999 11.9978 22.4999C11.1478 22.4999 10.3378 22.3799 9.54781 22.1899C9.53781 22.1099 9.54781 22.0499 9.52781 21.9699C9.08781 20.6399 8.75781 19.2899 8.50781 17.9099C9.66781 18.0399 10.8278 18.1299 11.9978 18.1299C13.1678 18.1299 14.3378 18.0399 15.4878 17.9099Z" fill="currentColor"/>
<path d="M15.7633 16.2633C13.2622 16.5789 10.7378 16.5789 8.23667 16.2633C7.92111 13.7622 7.92111 11.2378 8.23667 8.73667C10.7378 8.42111 13.2622 8.42111 15.7633 8.73667C16.0789 11.2378 16.0789 13.7622 15.7633 16.2633Z" fill="currentColor"/>
</g>
<defs>
<clipPath id="clip0_2635_16858">
<rect width="24" height="24" fill="white" transform="translate(0 0.5)"/>
</clipPath>
</defs>
</svg>
