<svg width="20" height="20" viewBox="0 0 20 20" fill="none" xmlns="http://www.w3.org/2000/svg">
<path fill-rule="evenodd" clip-rule="evenodd" d="M2.936 1.1288C3.756 1.0648 5.0224 1 6.8 1C8.5776 1 9.844 1.0644 10.664 1.1288C11.1323 1.16201 11.573 1.36307 11.9049 1.69506C12.2369 2.02705 12.438 2.46767 12.4712 2.936C12.5352 3.756 12.6 5.0224 12.6 6.8C12.6 8.5776 12.5356 9.844 12.4712 10.664C12.438 11.1323 12.2369 11.573 11.9049 11.9049C11.573 12.2369 11.1323 12.438 10.664 12.4712C9.844 12.5352 8.5776 12.6 6.8 12.6C5.0224 12.6 3.756 12.5356 2.936 12.4712C2.46767 12.438 2.02705 12.2369 1.69506 11.9049C1.36307 11.573 1.16201 11.1323 1.1288 10.664C1.0648 9.844 1 8.5776 1 6.8C1 5.0224 1.0644 3.756 1.1288 2.936C1.16201 2.46767 1.36307 2.02705 1.69506 1.69506C2.02705 1.36307 2.46767 1.16201 2.936 1.1288ZM2.776 13.8716C3.892 13.844 6.2184 13.8 10 13.8C13.7816 13.8 16.1076 13.8432 17.224 13.872C17.8976 13.8888 18.6688 14.2588 18.8632 15.0984C18.9416 15.4372 19 15.8684 19 16.4C19 16.932 18.9416 17.3628 18.8632 17.7016C18.6688 18.5412 17.8976 18.9112 17.2244 18.9284C16.1076 18.9564 13.7812 19 10 19C6.2188 19 3.8924 18.9568 2.776 18.928C2.1024 18.9112 1.3312 18.5412 1.1368 17.7016C1.0584 17.3628 1 16.9316 1 16.4C1 15.868 1.0584 15.4372 1.1368 15.0984C1.3312 14.2588 2.1028 13.8888 2.776 13.8716ZM16.4 7.4C16.1035 7.40053 15.8419 7.40453 15.6152 7.412C14.6156 7.444 13.844 8.216 13.812 9.2152C13.8045 9.44187 13.8005 9.70347 13.8 10C13.8005 10.2968 13.8045 10.5584 13.812 10.7848C13.844 11.7844 14.616 12.556 15.6152 12.588C15.8419 12.5955 16.1035 12.5995 16.4 12.6C16.6965 12.5995 16.9581 12.5955 17.1848 12.588C18.1844 12.556 18.956 11.784 18.988 10.7848C18.9955 10.5581 18.9995 10.2965 19 10C18.9995 9.70347 18.9955 9.44187 18.988 9.2152C18.956 8.2156 18.184 7.444 17.1848 7.412C16.9581 7.40427 16.6965 7.40027 16.4 7.4ZM15.6152 1.012C15.8419 1.00453 16.1035 1.00053 16.4 1C16.6965 1.00027 16.9581 1.00427 17.1848 1.012C18.1844 1.044 18.956 1.816 18.988 2.8152C18.9955 3.04187 18.9995 3.30347 19 3.6C18.9995 3.89653 18.9955 4.15813 18.988 4.3848C18.956 5.3844 18.184 6.156 17.1848 6.188C16.9581 6.19573 16.6965 6.19973 16.4 6.2C16.1035 6.19973 15.8419 6.19573 15.6152 6.188C14.6156 6.156 13.844 5.384 13.812 4.3848C13.8045 4.15813 13.8005 3.89653 13.8 3.6C13.7992 3.1552 13.8048 3.042 13.812 2.8152C13.844 1.8156 14.616 1.044 15.6152 1.012Z" fill="currentColor"/>
</svg>
