<svg width="15" height="15" viewBox="0 0 15 15" fill="none" xmlns="http://www.w3.org/2000/svg">
<path d="M9.10685 6.87427C8.99164 6.98948 8.83538 7.0542 8.67244 7.0542C8.50951 7.0542 8.35325 6.98948 8.23804 6.87427C8.12283 6.75905 8.0581 6.60279 8.0581 6.43986C8.0581 6.27693 8.12283 6.12067 8.23804 6.00546L13.1466 1.09693C13.2036 1.03988 13.2713 0.99463 13.3459 0.963756C13.4204 0.932883 13.5003 0.916992 13.581 0.916992C13.6616 0.916992 13.7415 0.932883 13.8161 0.963756C13.8906 0.99463 13.9583 1.03988 14.0154 1.09693C14.0724 1.15398 14.1177 1.2217 14.1486 1.29624C14.1794 1.37077 14.1953 1.45066 14.1953 1.53133C14.1953 1.61201 14.1794 1.6919 14.1486 1.76643C14.1177 1.84097 14.0724 1.90869 14.0154 1.96574L9.10685 6.87427ZM1.74406 14.2371C1.68701 14.2941 1.61929 14.3394 1.54475 14.3702C1.47022 14.4011 1.39033 14.417 1.30965 14.417C1.22898 14.417 1.14909 14.4011 1.07456 14.3702C1.00002 14.3394 0.932296 14.2941 0.875249 14.2371C0.818202 14.18 0.77295 14.1123 0.742076 14.0377C0.711203 13.9632 0.695312 13.8833 0.695312 13.8027C0.695312 13.722 0.711203 13.6421 0.742076 13.5676C0.77295 13.493 0.818202 13.4253 0.875249 13.3682L5.78378 8.45972C5.89899 8.34451 6.05525 8.27978 6.21818 8.27978C6.38111 8.27978 6.53737 8.34451 6.65259 8.45972C6.7678 8.57493 6.83252 8.73119 6.83252 8.89412C6.83252 9.05706 6.7678 9.21332 6.65259 9.32853L1.74406 14.2371Z" fill="#2E3139"/>
<path d="M1.30888 14.4166C1.14615 14.4166 0.990088 14.3519 0.875022 14.2369C0.759956 14.1218 0.695312 13.9657 0.695312 13.803C0.695312 13.6403 0.759956 13.4842 0.875022 13.3692C0.990088 13.2541 1.14615 13.1895 1.30888 13.1895H6.21741C6.38013 13.1895 6.5362 13.2541 6.65126 13.3692C6.76633 13.4842 6.83097 13.6403 6.83097 13.803C6.83097 13.9657 6.76633 14.1218 6.65126 14.2369C6.5362 14.3519 6.38013 14.4166 6.21741 14.4166H1.30888Z" fill="#2E3139"/>
<path d="M1.92244 13.8029C1.92244 13.9656 1.8578 14.1216 1.74274 14.2367C1.62767 14.3518 1.47161 14.4164 1.30888 14.4164C1.14615 14.4164 0.990088 14.3518 0.875022 14.2367C0.759956 14.1216 0.695312 13.9656 0.695312 13.8029V8.89433C0.695312 8.7316 0.759956 8.57554 0.875022 8.46047C0.990088 8.3454 1.14615 8.28076 1.30888 8.28076C1.47161 8.28076 1.62767 8.3454 1.74274 8.46047C1.8578 8.57554 1.92244 8.7316 1.92244 8.89433V13.8029ZM14.1938 6.44006C14.1938 6.60279 14.1291 6.75885 14.0141 6.87392C13.899 6.98899 13.7429 7.05363 13.5802 7.05363C13.4175 7.05363 13.2614 6.98899 13.1463 6.87392C13.0313 6.75885 12.9666 6.60279 12.9666 6.44006V1.53153C12.9666 1.36881 13.0313 1.21274 13.1463 1.09768C13.2614 0.982612 13.4175 0.917969 13.5802 0.917969C13.7429 0.917969 13.899 0.982612 14.0141 1.09768C14.1291 1.21274 14.1938 1.36881 14.1938 1.53153V6.44006Z" fill="#2E3139"/>
<path d="M8.66825 2.14412C8.50553 2.14412 8.34946 2.07948 8.2344 1.96441C8.11933 1.84935 8.05469 1.69329 8.05469 1.53056C8.05469 1.36783 8.11933 1.21177 8.2344 1.0967C8.34946 0.981636 8.50553 0.916992 8.66825 0.916992H13.5768C13.7395 0.916992 13.8956 0.981636 14.0106 1.0967C14.1257 1.21177 14.1903 1.36783 14.1903 1.53056C14.1903 1.69329 14.1257 1.84935 14.0106 1.96441C13.8956 2.07948 13.7395 2.14412 13.5768 2.14412H8.66825Z" fill="#2E3139"/>
</svg>
